<svg width="16" height="18" viewBox="0 0 16 18" fill="none" xmlns="http://www.w3.org/2000/svg">
<path d="M12.707 9.47416C12.6996 8.10858 13.3173 7.07788 14.5675 6.31882C13.868 5.31789 12.8112 4.7672 11.4159 4.65929C10.095 4.5551 8.65124 5.42952 8.12287 5.42952C7.56473 5.42952 6.28473 4.6965 5.28009 4.6965C3.20382 4.72999 0.997314 6.35231 0.997314 9.65276C0.997314 10.6276 1.17592 11.6348 1.53313 12.6741C2.0094 14.0397 3.72847 17.3885 5.52195 17.3327C6.45962 17.3104 7.12194 16.6667 8.3424 16.6667C9.52565 16.6667 10.1396 17.3327 11.1852 17.3327C12.9935 17.3067 14.5489 14.263 15.0028 12.8937C12.5768 11.7514 12.707 9.54485 12.707 9.47416ZM10.601 3.36441C11.6168 2.15884 11.5238 1.06117 11.494 0.666748C10.5973 0.718841 9.55914 1.27698 8.96751 1.96535C8.31635 2.70209 7.9331 3.61371 8.01496 4.64069C8.98612 4.7151 9.8717 4.2165 10.601 3.36441Z" fill="#2A84C6"/>
</svg>
