<svg width="60" height="60" viewBox="0 0 60 60" fill="none" xmlns="http://www.w3.org/2000/svg">
<circle cx="30" cy="30" r="30" fill="#2A84C6"/>
<circle cx="30" cy="30" r="30" fill="white" fill-opacity="0.2"/>
<path d="M41.6666 23.7778V24.5555C41.6666 24.6587 41.6256 24.7576 41.5527 24.8305C41.4797 24.9035 41.3808 24.9444 41.2777 24.9444H40.111V25.5278C40.111 25.8499 39.8498 26.1111 39.5277 26.1111H20.4721C20.15 26.1111 19.8888 25.8499 19.8888 25.5278V24.9444H18.7221C18.619 24.9444 18.5201 24.9035 18.4472 24.8305C18.3742 24.7576 18.3333 24.6587 18.3333 24.5555V23.7778C18.3333 23.7008 18.3561 23.6256 18.3988 23.5617C18.4416 23.4977 18.5023 23.4478 18.5734 23.4184L29.8512 19.1407C29.9464 19.1012 30.0534 19.1012 30.1486 19.1407L41.4264 23.4184C41.4975 23.4478 41.5583 23.4977 41.601 23.5617C41.6438 23.6256 41.6666 23.7008 41.6666 23.7778ZM40.4999 38.5555H19.4999C18.8556 38.5555 18.3333 39.0779 18.3333 39.7222V40.5C18.3333 40.6031 18.3742 40.702 18.4472 40.775C18.5201 40.8479 18.619 40.8889 18.7221 40.8889H41.2777C41.3808 40.8889 41.4797 40.8479 41.5527 40.775C41.6256 40.702 41.6666 40.6031 41.6666 40.5V39.7222C41.6666 39.0779 41.1443 38.5555 40.4999 38.5555ZM22.2221 26.8889V36.2222H20.4721C20.15 36.2222 19.8888 36.4834 19.8888 36.8055V37.7778H40.111V36.8055C40.111 36.4834 39.8498 36.2222 39.5277 36.2222H37.7777V26.8889H34.6666V36.2222H31.5555V26.8889H28.4444V36.2222H25.3333V26.8889H22.2221Z" fill="white"/>
</svg>
