<svg width="60" height="60" viewBox="0 0 60 60" fill="none" xmlns="http://www.w3.org/2000/svg">
<circle cx="30" cy="30" r="30" fill="#2A84C6"/>
<circle cx="30" cy="30" r="30" fill="white" fill-opacity="0.2"/>
<path d="M30.0001 29.9999C33.2221 29.9999 35.8334 27.3886 35.8334 24.1666C35.8334 20.9446 33.2221 18.3333 30.0001 18.3333C26.7781 18.3333 24.1667 20.9446 24.1667 24.1666C24.1667 27.3886 26.7781 29.9999 30.0001 29.9999ZM34.0834 31.4583H33.3223C32.3106 31.9231 31.185 32.1874 30.0001 32.1874C28.8152 32.1874 27.6941 31.9231 26.6778 31.4583H25.9167C22.5352 31.4583 19.7917 34.2017 19.7917 37.5833V39.4791C19.7917 40.6868 20.7716 41.6666 21.9792 41.6666H38.0209C39.2286 41.6666 40.2084 40.6868 40.2084 39.4791V37.5833C40.2084 34.2017 37.4649 31.4583 34.0834 31.4583Z" fill="white"/>
</svg>
