<svg width="1440" height="764" viewBox="0 0 1440 764" fill="none" xmlns="http://www.w3.org/2000/svg">
<g clip-path="url(#clip0_1_2200)">
<rect width="1440" height="764" fill="white"/>
<path d="M1085.16 229.405H877.973C874.422 229.405 871.543 232.348 871.543 235.979V387.914C871.543 391.545 874.422 394.488 877.973 394.488H1085.16C1088.71 394.488 1091.59 391.545 1091.59 387.914V235.979C1091.59 232.348 1088.71 229.405 1085.16 229.405Z" fill="#F2F2F2"/>
<path fill-rule="evenodd" clip-rule="evenodd" d="M937.958 376.645V262.364C937.958 261.121 938.943 260.114 940.158 260.114H1075.64C1076.86 260.114 1077.84 261.121 1077.84 262.364V377.067C1077.84 378.076 1077.02 378.894 1076.01 378.894H940.158C938.943 378.894 937.958 377.887 937.958 376.645Z" fill="white"/>
<path fill-rule="evenodd" clip-rule="evenodd" d="M965.869 282.921H957.863C957.243 282.921 956.741 282.421 956.741 281.804C956.741 281.187 957.243 280.687 957.863 280.687H965.869C966.489 280.687 966.991 281.187 966.991 281.804C966.991 282.421 966.489 282.921 965.869 282.921Z" fill="white"/>
<path fill-rule="evenodd" clip-rule="evenodd" d="M965.998 288.283H957.992C957.373 288.283 956.87 287.783 956.87 287.166C956.87 286.549 957.373 286.049 957.992 286.049H965.998C966.618 286.049 967.12 286.549 967.12 287.166C967.12 287.783 966.618 288.283 965.998 288.283Z" fill="white"/>
<path d="M1064.26 360.053C1064.71 360.053 1065.08 360.431 1065.08 360.897C1065.08 361.347 1064.74 361.715 1064.3 361.739L1064.26 361.74H951.149C950.693 361.74 950.324 361.363 950.324 360.897C950.324 360.447 950.669 360.079 951.103 360.055L951.149 360.053H1064.26Z" fill="#2A84C6"/>
<path d="M1064.26 360.053C1064.71 360.053 1065.08 360.431 1065.08 360.897C1065.08 361.347 1064.74 361.715 1064.3 361.739L1064.26 361.74H951.149C950.693 361.74 950.324 361.363 950.324 360.897C950.324 360.447 950.669 360.079 951.103 360.055L951.149 360.053H1064.26Z" fill="white" fill-opacity="0.85"/>
<path d="M1046.18 367.771C1046.64 367.771 1047.01 368.149 1047.01 368.615C1047.01 369.065 1046.66 369.433 1046.23 369.457L1046.18 369.458H951.149C950.693 369.458 950.324 369.081 950.324 368.615C950.324 368.165 950.669 367.797 951.103 367.773L951.149 367.771H1046.18Z" fill="#2A84C6"/>
<path d="M1046.18 367.771C1046.64 367.771 1047.01 368.149 1047.01 368.615C1047.01 369.065 1046.66 369.433 1046.23 369.457L1046.18 369.458H951.149C950.693 369.458 950.324 369.081 950.324 368.615C950.324 368.165 950.669 367.797 951.103 367.773L951.149 367.771H1046.18Z" fill="white" fill-opacity="0.85"/>
<path d="M877.437 221.967H1085.59C1088.84 221.967 1091.48 224.606 1091.48 227.861V245.426H871.543V227.861C871.543 224.606 874.182 221.967 877.437 221.967Z" fill="#1443BD"/>
<path d="M877.437 221.967H1085.59C1088.84 221.967 1091.48 224.606 1091.48 227.861V245.426H871.543V227.861C871.543 224.606 874.182 221.967 877.437 221.967Z" fill="black" fill-opacity="0.5"/>
<path d="M883.933 237.818C886.256 237.818 888.14 235.935 888.14 233.611C888.14 231.288 886.256 229.405 883.933 229.405C881.61 229.405 879.726 231.288 879.726 233.611C879.726 235.935 881.61 237.818 883.933 237.818Z" fill="#F56D7E"/>
<path d="M900.3 237.818C902.624 237.818 904.507 235.935 904.507 233.611C904.507 231.288 902.624 229.405 900.3 229.405C897.977 229.405 896.093 231.288 896.093 233.611C896.093 235.935 897.977 237.818 900.3 237.818Z" fill="#B7EE81"/>
<path d="M900.3 237.818C902.624 237.818 904.507 235.935 904.507 233.611C904.507 231.288 902.624 229.405 900.3 229.405C897.977 229.405 896.093 231.288 896.093 233.611C896.093 235.935 897.977 237.818 900.3 237.818Z" fill="white" fill-opacity="0.2"/>
<path d="M915.759 237.818C918.082 237.818 919.966 235.935 919.966 233.611C919.966 231.288 918.082 229.405 915.759 229.405C913.435 229.405 911.552 231.288 911.552 233.611C911.552 235.935 913.435 237.818 915.759 237.818Z" fill="#B7EE81"/>
<path d="M915.759 237.818C918.082 237.818 919.966 235.935 919.966 233.611C919.966 231.288 918.082 229.405 915.759 229.405C913.435 229.405 911.552 231.288 911.552 233.611C911.552 235.935 913.435 237.818 915.759 237.818Z" fill="white" fill-opacity="0.2"/>
<path d="M946.083 317.15L943.377 315.114L946.083 313.083L948.79 315.114L946.083 317.15Z" fill="white"/>
<path d="M927.294 260.087H888.536C887.186 260.087 886.092 261.206 886.092 262.586V376.596C886.092 377.976 887.186 379.095 888.536 379.095H927.294C928.643 379.095 929.738 377.976 929.738 376.596V262.586C929.738 261.206 928.643 260.087 927.294 260.087Z" fill="#1443BD"/>
<path d="M927.294 260.087H888.536C887.186 260.087 886.092 261.206 886.092 262.586V376.596C886.092 377.976 887.186 379.095 888.536 379.095H927.294C928.643 379.095 929.738 377.976 929.738 376.596V262.586C929.738 261.206 928.643 260.087 927.294 260.087Z" fill="white" fill-opacity="0.65"/>
<path d="M918.964 307.504H896.573C895.806 307.504 895.184 308.139 895.184 308.923V312.434C895.184 313.219 895.806 313.854 896.573 313.854H918.964C919.731 313.854 920.352 313.219 920.352 312.434V308.923C920.352 308.139 919.731 307.504 918.964 307.504Z" fill="white"/>
<path d="M918.985 319.591H896.552C895.797 319.591 895.184 320.217 895.184 320.989V324.351C895.184 325.123 895.797 325.749 896.552 325.749H918.985C919.74 325.749 920.352 325.123 920.352 324.351V320.989C920.352 320.217 919.74 319.591 918.985 319.591Z" fill="#2A84C6"/>
<path d="M918.985 319.591H896.552C895.797 319.591 895.184 320.217 895.184 320.989V324.351C895.184 325.123 895.797 325.749 896.552 325.749H918.985C919.74 325.749 920.352 325.123 920.352 324.351V320.989C920.352 320.217 919.74 319.591 918.985 319.591Z" fill="white" fill-opacity="0.85"/>
<path d="M918.985 331.678H896.552C895.797 331.678 895.184 332.304 895.184 333.076V336.438C895.184 337.21 895.797 337.836 896.552 337.836H918.985C919.74 337.836 920.352 337.21 920.352 336.438V333.076C920.352 332.304 919.74 331.678 918.985 331.678Z" fill="#B7EE81"/>
<path d="M918.985 331.678H896.552C895.797 331.678 895.184 332.304 895.184 333.076V336.438C895.184 337.21 895.797 337.836 896.552 337.836H918.985C919.74 337.836 920.352 337.21 920.352 336.438V333.076C920.352 332.304 919.74 331.678 918.985 331.678Z" fill="white" fill-opacity="0.5"/>
<path d="M918.985 343.764H896.552C895.797 343.764 895.184 344.39 895.184 345.162V348.524C895.184 349.296 895.797 349.922 896.552 349.922H918.985C919.74 349.922 920.352 349.296 920.352 348.524V345.162C920.352 344.39 919.74 343.764 918.985 343.764Z" fill="#B7EE81"/>
<path d="M918.985 343.764H896.552C895.797 343.764 895.184 344.39 895.184 345.162V348.524C895.184 349.296 895.797 349.922 896.552 349.922H918.985C919.74 349.922 920.352 349.296 920.352 348.524V345.162C920.352 344.39 919.74 343.764 918.985 343.764Z" fill="white" fill-opacity="0.2"/>
<path fill-rule="evenodd" clip-rule="evenodd" d="M950.466 314.066C949.657 314.066 949 313.38 949 312.533C949 311.686 949.657 311 950.466 311H977.355C978.165 311 978.822 311.686 978.822 312.533C978.822 313.38 978.165 314.066 977.355 314.066H950.466Z" fill="#2A84C6"/>
<path fill-rule="evenodd" clip-rule="evenodd" d="M950.466 314.066C949.657 314.066 949 313.38 949 312.533C949 311.686 949.657 311 950.466 311H977.355C978.165 311 978.822 311.686 978.822 312.533C978.822 313.38 978.165 314.066 977.355 314.066H950.466Z" fill="white" fill-opacity="0.2"/>
<path fill-rule="evenodd" clip-rule="evenodd" d="M958.466 321.066C957.657 321.066 957 320.38 957 319.533C957 318.686 957.657 318 958.466 318H968.932C969.742 318 970.398 318.686 970.398 319.533C970.398 320.38 969.742 321.066 968.932 321.066H958.466Z" fill="#2A84C6"/>
<path fill-rule="evenodd" clip-rule="evenodd" d="M958.466 321.066C957.657 321.066 957 320.38 957 319.533C957 318.686 957.657 318 958.466 318H968.932C969.742 318 970.398 318.686 970.398 319.533C970.398 320.38 969.742 321.066 968.932 321.066H958.466Z" fill="white" fill-opacity="0.85"/>
<g filter="url(#filter0_i_1_2200)">
<rect x="949" y="271" width="30.4615" height="36" rx="4" fill="white"/>
</g>
<path fill-rule="evenodd" clip-rule="evenodd" d="M972.412 290.192C970.925 288.399 966.317 284.929 968.926 282.185C971.269 279.72 973.262 282.941 976 286.353L972.412 290.192Z" fill="#F56D7E"/>
<path fill-rule="evenodd" clip-rule="evenodd" d="M955.357 290.192C956.844 288.399 961.756 284.52 959.147 281.775C956.804 279.311 954.508 282.941 951.769 286.353L955.357 290.192Z" fill="#F56D7E"/>
<path fill-rule="evenodd" clip-rule="evenodd" d="M958.737 295.475C959.25 297.6 959.349 297.91 959.349 297.91C962.35 298.112 968.845 297.91 968.845 297.91C969.111 296.639 969.391 295.204 969.391 295.204C969.391 295.204 972.637 282.315 971.6 281.581C970.644 280.905 968.943 280.372 966.7 280C966.637 280.138 966.008 281.218 963.908 281.243C961.61 281.271 961.116 280.249 961.032 280.07C959.15 280.301 957.962 280.446 956.791 281.167C956.429 281.389 956.675 286.931 958.737 295.475Z" fill="#F56D7E"/>
<path fill-rule="evenodd" clip-rule="evenodd" d="M952.466 352.066C951.657 352.066 951 351.38 951 350.533C951 349.686 951.657 349 952.466 349H962.932C963.742 349 964.398 349.686 964.398 350.533C964.398 351.38 963.742 352.066 962.932 352.066H952.466Z" fill="#2A84C6"/>
<path fill-rule="evenodd" clip-rule="evenodd" d="M952.466 352.066C951.657 352.066 951 351.38 951 350.533C951 349.686 951.657 349 952.466 349H962.932C963.742 349 964.398 349.686 964.398 350.533C964.398 351.38 963.742 352.066 962.932 352.066H952.466Z" fill="white" fill-opacity="0.85"/>
<path fill-rule="evenodd" clip-rule="evenodd" d="M952.114 343C950.947 343 950 342.328 950 341.5C950 340.672 950.947 340 952.114 340H990.886C992.054 340 993 340.672 993 341.5C993 342.328 992.054 343 990.886 343H952.114Z" fill="#2A84C6"/>
<path fill-rule="evenodd" clip-rule="evenodd" d="M952.114 343C950.947 343 950 342.328 950 341.5C950 340.672 950.947 340 952.114 340H990.886C992.054 340 993 340.672 993 341.5C993 342.328 992.054 343 990.886 343H952.114Z" fill="white" fill-opacity="0.2"/>
<path fill-rule="evenodd" clip-rule="evenodd" d="M972.114 352C970.947 352 970 351.328 970 350.5C970 349.672 970.947 349 972.114 349H1010.89C1012.05 349 1013 349.672 1013 350.5C1013 351.328 1012.05 352 1010.89 352H972.114Z" fill="#2A84C6"/>
<path fill-rule="evenodd" clip-rule="evenodd" d="M972.114 352C970.947 352 970 351.328 970 350.5C970 349.672 970.947 349 972.114 349H1010.89C1012.05 349 1013 349.672 1013 350.5C1013 351.328 1012.05 352 1010.89 352H972.114Z" fill="white" fill-opacity="0.85"/>
<path fill-rule="evenodd" clip-rule="evenodd" d="M994.466 314.066C993.657 314.066 993 313.38 993 312.533C993 311.686 993.657 311 994.466 311H1021.36C1022.17 311 1022.82 311.686 1022.82 312.533C1022.82 313.38 1022.17 314.066 1021.36 314.066H994.466Z" fill="#2A84C6"/>
<path fill-rule="evenodd" clip-rule="evenodd" d="M994.466 314.066C993.657 314.066 993 313.38 993 312.533C993 311.686 993.657 311 994.466 311H1021.36C1022.17 311 1022.82 311.686 1022.82 312.533C1022.82 313.38 1022.17 314.066 1021.36 314.066H994.466Z" fill="white" fill-opacity="0.2"/>
<path fill-rule="evenodd" clip-rule="evenodd" d="M1002.47 321.066C1001.66 321.066 1001 320.38 1001 319.533C1001 318.686 1001.66 318 1002.47 318H1012.93C1013.74 318 1014.4 318.686 1014.4 319.533C1014.4 320.38 1013.74 321.066 1012.93 321.066H1002.47Z" fill="#2A84C6"/>
<path fill-rule="evenodd" clip-rule="evenodd" d="M1002.47 321.066C1001.66 321.066 1001 320.38 1001 319.533C1001 318.686 1001.66 318 1002.47 318H1012.93C1013.74 318 1014.4 318.686 1014.4 319.533C1014.4 320.38 1013.74 321.066 1012.93 321.066H1002.47Z" fill="white" fill-opacity="0.85"/>
<g filter="url(#filter1_i_1_2200)">
<rect x="993" y="271" width="30.4615" height="36" rx="4" fill="white"/>
</g>
<path fill-rule="evenodd" clip-rule="evenodd" d="M1016.41 290.192C1014.93 288.399 1010.32 284.929 1012.93 282.185C1015.27 279.72 1017.26 282.941 1020 286.353L1016.41 290.192Z" fill="#1443BD"/>
<path fill-rule="evenodd" clip-rule="evenodd" d="M1016.41 290.192C1014.93 288.399 1010.32 284.929 1012.93 282.185C1015.27 279.72 1017.26 282.941 1020 286.353L1016.41 290.192Z" fill="white" fill-opacity="0.65"/>
<path fill-rule="evenodd" clip-rule="evenodd" d="M999.357 290.192C1000.84 288.399 1005.76 284.52 1003.15 281.775C1000.8 279.311 998.508 282.941 995.769 286.353L999.357 290.192Z" fill="#1443BD"/>
<path fill-rule="evenodd" clip-rule="evenodd" d="M999.357 290.192C1000.84 288.399 1005.76 284.52 1003.15 281.775C1000.8 279.311 998.508 282.941 995.769 286.353L999.357 290.192Z" fill="white" fill-opacity="0.65"/>
<path fill-rule="evenodd" clip-rule="evenodd" d="M1002.74 295.475C1003.25 297.6 1003.35 297.91 1003.35 297.91C1006.35 298.112 1012.84 297.91 1012.84 297.91C1013.11 296.639 1013.39 295.204 1013.39 295.204C1013.39 295.204 1016.64 282.315 1015.6 281.581C1014.64 280.905 1012.94 280.372 1010.7 280C1010.64 280.138 1010.01 281.218 1007.91 281.243C1005.61 281.271 1005.12 280.249 1005.03 280.07C1003.15 280.301 1001.96 280.446 1000.79 281.167C1000.43 281.389 1000.67 286.931 1002.74 295.475Z" fill="#1443BD"/>
<path fill-rule="evenodd" clip-rule="evenodd" d="M1002.74 295.475C1003.25 297.6 1003.35 297.91 1003.35 297.91C1006.35 298.112 1012.84 297.91 1012.84 297.91C1013.11 296.639 1013.39 295.204 1013.39 295.204C1013.39 295.204 1016.64 282.315 1015.6 281.581C1014.64 280.905 1012.94 280.372 1010.7 280C1010.64 280.138 1010.01 281.218 1007.91 281.243C1005.61 281.271 1005.12 280.249 1005.03 280.07C1003.15 280.301 1001.96 280.446 1000.79 281.167C1000.43 281.389 1000.67 286.931 1002.74 295.475Z" fill="white" fill-opacity="0.65"/>
<path fill-rule="evenodd" clip-rule="evenodd" d="M1038.47 314.066C1037.66 314.066 1037 313.38 1037 312.533C1037 311.686 1037.66 311 1038.47 311H1065.36C1066.17 311 1066.82 311.686 1066.82 312.533C1066.82 313.38 1066.17 314.066 1065.36 314.066H1038.47Z" fill="#2A84C6"/>
<path fill-rule="evenodd" clip-rule="evenodd" d="M1038.47 314.066C1037.66 314.066 1037 313.38 1037 312.533C1037 311.686 1037.66 311 1038.47 311H1065.36C1066.17 311 1066.82 311.686 1066.82 312.533C1066.82 313.38 1066.17 314.066 1065.36 314.066H1038.47Z" fill="white" fill-opacity="0.2"/>
<path fill-rule="evenodd" clip-rule="evenodd" d="M1046.47 321.066C1045.66 321.066 1045 320.38 1045 319.533C1045 318.686 1045.66 318 1046.47 318H1056.93C1057.74 318 1058.4 318.686 1058.4 319.533C1058.4 320.38 1057.74 321.066 1056.93 321.066H1046.47Z" fill="#2A84C6"/>
<path fill-rule="evenodd" clip-rule="evenodd" d="M1046.47 321.066C1045.66 321.066 1045 320.38 1045 319.533C1045 318.686 1045.66 318 1046.47 318H1056.93C1057.74 318 1058.4 318.686 1058.4 319.533C1058.4 320.38 1057.74 321.066 1056.93 321.066H1046.47Z" fill="white" fill-opacity="0.85"/>
<g filter="url(#filter2_i_1_2200)">
<rect x="1037" y="271" width="30.4615" height="36" rx="4" fill="white"/>
</g>
<path fill-rule="evenodd" clip-rule="evenodd" d="M1060.41 290.192C1058.93 288.399 1054.32 284.929 1056.93 282.185C1059.27 279.72 1061.26 282.941 1064 286.353L1060.41 290.192Z" fill="#B7EE81"/>
<path fill-rule="evenodd" clip-rule="evenodd" d="M1060.41 290.192C1058.93 288.399 1054.32 284.929 1056.93 282.185C1059.27 279.72 1061.26 282.941 1064 286.353L1060.41 290.192Z" fill="white" fill-opacity="0.5"/>
<path fill-rule="evenodd" clip-rule="evenodd" d="M1043.36 290.192C1044.84 288.399 1049.76 284.52 1047.15 281.775C1044.8 279.311 1042.51 282.941 1039.77 286.353L1043.36 290.192Z" fill="#B7EE81"/>
<path fill-rule="evenodd" clip-rule="evenodd" d="M1043.36 290.192C1044.84 288.399 1049.76 284.52 1047.15 281.775C1044.8 279.311 1042.51 282.941 1039.77 286.353L1043.36 290.192Z" fill="white" fill-opacity="0.5"/>
<path fill-rule="evenodd" clip-rule="evenodd" d="M1046.74 295.475C1047.25 297.6 1047.35 297.91 1047.35 297.91C1050.35 298.112 1056.84 297.91 1056.84 297.91C1057.11 296.639 1057.39 295.204 1057.39 295.204C1057.39 295.204 1060.64 282.315 1059.6 281.581C1058.64 280.905 1056.94 280.372 1054.7 280C1054.64 280.138 1054.01 281.218 1051.91 281.243C1049.61 281.271 1049.12 280.249 1049.03 280.07C1047.15 280.301 1045.96 280.446 1044.79 281.167C1044.43 281.389 1044.67 286.931 1046.74 295.475Z" fill="#B7EE81"/>
<path fill-rule="evenodd" clip-rule="evenodd" d="M1046.74 295.475C1047.25 297.6 1047.35 297.91 1047.35 297.91C1050.35 298.112 1056.84 297.91 1056.84 297.91C1057.11 296.639 1057.39 295.204 1057.39 295.204C1057.39 295.204 1060.64 282.315 1059.6 281.581C1058.64 280.905 1056.94 280.372 1054.7 280C1054.64 280.138 1054.01 281.218 1051.91 281.243C1049.61 281.271 1049.12 280.249 1049.03 280.07C1047.15 280.301 1045.96 280.446 1044.79 281.167C1044.43 281.389 1044.67 286.931 1046.74 295.475Z" fill="white" fill-opacity="0.5"/>
<path fill-rule="evenodd" clip-rule="evenodd" d="M1091.61 485.956C1097.64 494.491 1109.13 496.727 1117.81 491.052L1196.37 439.654C1207.93 432.094 1210.89 416.158 1202.86 404.788C1194.92 393.552 1179.44 391.319 1168.77 399.87L1095.37 458.709C1087.16 465.286 1085.5 477.315 1091.61 485.956Z" fill="#FFC999"/>
<path fill-rule="evenodd" clip-rule="evenodd" d="M1149.8 473.811L1199.71 441.445C1210.25 433.069 1210.25 411.587 1201.87 400.962C1193.5 390.34 1178.23 388.806 1167.99 397.56L1121.21 437.552C1121.21 437.552 1135.21 466.461 1149.8 473.811Z" fill="#1443BD"/>
<path fill-rule="evenodd" clip-rule="evenodd" d="M1149.8 473.811L1199.71 441.445C1210.25 433.069 1210.25 411.587 1201.87 400.962C1193.5 390.34 1178.23 388.806 1167.99 397.56L1121.21 437.552C1121.21 437.552 1135.21 466.461 1149.8 473.811Z" fill="white" fill-opacity="0.5"/>
<path fill-rule="evenodd" clip-rule="evenodd" d="M1058.49 371.542C1053.44 374.21 1051.14 380.31 1053.13 385.752L1088.04 481.403C1092.05 492.387 1104.45 497.437 1114.74 492.279C1124.81 487.236 1128.61 474.548 1123.04 464.606L1073.38 376.031C1070.39 370.697 1063.83 368.718 1058.49 371.542Z" fill="#FFC999"/>
<path fill-rule="evenodd" clip-rule="evenodd" d="M1229.49 393.388L1216.85 379.286L1220.84 332.877L1256.18 336.243L1256 382.168L1229.49 393.388Z" fill="#FFC999"/>
<path fill-rule="evenodd" clip-rule="evenodd" d="M1211.8 328.294C1211.8 328.294 1206.56 322.394 1204.16 326.18C1201.77 329.968 1205.35 343.883 1211.21 344.423C1219.04 345.144 1211.8 328.294 1211.8 328.294Z" fill="#FFC999"/>
<path fill-rule="evenodd" clip-rule="evenodd" d="M1244.91 364.687C1244.91 364.687 1233.1 373.971 1218.13 363.933C1207.36 356.707 1206.75 331.757 1209.42 313.542C1210.93 303.234 1215.76 297.816 1225.72 295.067C1235.68 292.317 1262.43 293.06 1261.67 323.507C1260.84 357.421 1244.91 364.687 1244.91 364.687Z" fill="#FFC999"/>
<path d="M1226.49 318.88L1226.39 318.893C1226.13 318.952 1225.95 319.192 1225.96 319.455L1225.98 319.555L1227.35 325.92L1223.48 343.043C1223.41 343.352 1223.6 343.65 1223.9 343.712L1223.99 343.723L1231.12 344.012C1231.42 344.024 1231.67 343.785 1231.68 343.479C1231.69 343.203 1231.5 342.966 1231.25 342.913L1231.16 342.902L1224.69 342.639L1228.43 326.046C1228.45 325.993 1228.45 325.938 1228.45 325.883L1228.44 325.802L1227.04 319.316C1226.98 319.05 1226.74 318.87 1226.49 318.88Z" fill="#DD936F"/>
<path d="M1236.88 348.458C1236.79 348.04 1236.38 347.778 1235.97 347.872L1235.7 347.926L1235.6 347.946C1235.27 348.004 1234.88 348.063 1234.44 348.118C1231.48 348.49 1227.87 348.5 1223.8 347.907C1223.39 347.847 1223 348.141 1222.94 348.565C1222.88 348.989 1223.17 349.382 1223.59 349.442C1227.8 350.056 1231.54 350.045 1234.63 349.658L1235.16 349.586C1235.33 349.561 1235.49 349.536 1235.64 349.511L1236.17 349.413C1236.23 349.402 1236.27 349.392 1236.31 349.385C1236.71 349.291 1236.97 348.876 1236.88 348.458Z" fill="#F56D7E"/>
<path fill-rule="evenodd" clip-rule="evenodd" d="M1257.9 336.451L1264.05 324.901C1264.05 324.901 1268.22 308.105 1264.6 300.714C1258.99 289.246 1245.39 289.135 1237.4 285.878C1229.42 282.619 1229.58 279.844 1226.29 280.207C1223 280.569 1210.06 289.222 1208.36 298.63C1206.87 306.901 1208.32 328.136 1208.32 328.136C1208.32 328.136 1211.15 309.457 1213.06 304.559C1219.54 302.023 1242.78 302.597 1252.39 305.951C1252.39 305.951 1253.05 312.359 1253.4 316.87C1258.49 320.826 1257.9 336.451 1257.9 336.451Z" fill="#1443BD"/>
<path fill-rule="evenodd" clip-rule="evenodd" d="M1257.9 336.451L1264.05 324.901C1264.05 324.901 1268.22 308.105 1264.6 300.714C1258.99 289.246 1245.39 289.135 1237.4 285.878C1229.42 282.619 1229.58 279.844 1226.29 280.207C1223 280.569 1210.06 289.222 1208.36 298.63C1206.87 306.901 1208.32 328.136 1208.32 328.136C1208.32 328.136 1211.15 309.457 1213.06 304.559C1219.54 302.023 1242.78 302.597 1252.39 305.951C1252.39 305.951 1253.05 312.359 1253.4 316.87C1258.49 320.826 1257.9 336.451 1257.9 336.451Z" fill="black" fill-opacity="0.5"/>
<path d="M1217.95 362.869C1217.75 362.636 1217.41 362.61 1217.18 362.81C1216.95 363.009 1216.93 363.36 1217.12 363.593C1217.27 363.77 1217.56 364.063 1217.98 364.432C1218.68 365.04 1219.52 365.646 1220.51 366.21C1225.83 369.245 1232.94 369.887 1241.91 366.674C1242.19 366.572 1242.34 366.256 1242.24 365.966C1242.15 365.677 1241.84 365.524 1241.55 365.626C1232.88 368.733 1226.09 368.12 1221.03 365.24C1220.11 364.713 1219.33 364.15 1218.68 363.588L1218.43 363.355C1218.19 363.138 1218.03 362.97 1217.95 362.869Z" fill="#DD936F"/>
<path d="M1223.48 316.941C1220.98 315.909 1218.44 315.342 1216.02 315.5C1214.31 315.611 1212.72 316.086 1211.31 316.974C1210.63 317.403 1210.42 318.315 1210.84 319.011C1211.26 319.707 1212.15 319.923 1212.83 319.494C1213.82 318.874 1214.94 318.537 1216.2 318.455C1218.13 318.329 1220.27 318.806 1222.4 319.687C1222.94 319.91 1223.45 320.145 1223.91 320.382L1224.25 320.56C1224.58 320.735 1224.81 320.867 1224.91 320.934C1225.59 321.363 1226.49 321.145 1226.9 320.449C1227.32 319.752 1227.11 318.841 1226.43 318.412L1226.12 318.226C1225.5 317.864 1224.6 317.401 1223.48 316.941Z" fill="#1443BD"/>
<path d="M1223.48 316.941C1220.98 315.909 1218.44 315.342 1216.02 315.5C1214.31 315.611 1212.72 316.086 1211.31 316.974C1210.63 317.403 1210.42 318.315 1210.84 319.011C1211.26 319.707 1212.15 319.923 1212.83 319.494C1213.82 318.874 1214.94 318.537 1216.2 318.455C1218.13 318.329 1220.27 318.806 1222.4 319.687C1222.94 319.91 1223.45 320.145 1223.91 320.382L1224.25 320.56C1224.58 320.735 1224.81 320.867 1224.91 320.934C1225.59 321.363 1226.49 321.145 1226.9 320.449C1227.32 319.752 1227.11 318.841 1226.43 318.412L1226.12 318.226C1225.5 317.864 1224.6 317.401 1223.48 316.941Z" fill="black" fill-opacity="0.5"/>
<path d="M1247.78 319.468C1245.28 318.435 1242.74 317.869 1240.31 318.027C1238.6 318.138 1237.02 318.612 1235.61 319.5C1234.93 319.929 1234.72 320.841 1235.14 321.537C1235.56 322.233 1236.45 322.45 1237.13 322.021C1238.11 321.401 1239.24 321.063 1240.5 320.981C1242.43 320.856 1244.56 321.333 1246.7 322.214C1247.24 322.436 1247.74 322.671 1248.21 322.909L1248.55 323.087C1248.88 323.261 1249.1 323.393 1249.21 323.461C1249.89 323.889 1250.78 323.672 1251.2 322.976C1251.62 322.279 1251.41 321.367 1250.73 320.939L1250.42 320.752C1249.8 320.39 1248.9 319.928 1247.78 319.468Z" fill="#1443BD"/>
<path d="M1247.78 319.468C1245.28 318.435 1242.74 317.869 1240.31 318.027C1238.6 318.138 1237.02 318.612 1235.61 319.5C1234.93 319.929 1234.72 320.841 1235.14 321.537C1235.56 322.233 1236.45 322.45 1237.13 322.021C1238.11 321.401 1239.24 321.063 1240.5 320.981C1242.43 320.856 1244.56 321.333 1246.7 322.214C1247.24 322.436 1247.74 322.671 1248.21 322.909L1248.55 323.087C1248.88 323.261 1249.1 323.393 1249.21 323.461C1249.89 323.889 1250.78 323.672 1251.2 322.976C1251.62 322.279 1251.41 321.367 1250.73 320.939L1250.42 320.752C1249.8 320.39 1248.9 319.928 1247.78 319.468Z" fill="black" fill-opacity="0.5"/>
<path d="M1226.69 353.514C1226.39 353.496 1226.13 353.73 1226.11 354.036C1226.1 354.312 1226.28 354.552 1226.54 354.61L1226.63 354.623L1230.9 354.877C1231.2 354.895 1231.45 354.661 1231.47 354.355C1231.49 354.08 1231.3 353.839 1231.05 353.781L1230.96 353.769L1226.69 353.514Z" fill="#DD936F"/>
<path d="M1226.72 324.819C1226.13 324.776 1225.61 325.236 1225.56 325.848C1225.52 326.419 1225.91 326.92 1226.45 327.019L1226.57 327.034L1231.81 327.414C1232.41 327.458 1232.93 326.997 1232.97 326.385C1233.01 325.814 1232.62 325.314 1232.08 325.214L1231.96 325.199L1226.72 324.819Z" fill="#1443BD"/>
<path d="M1226.72 324.819C1226.13 324.776 1225.61 325.236 1225.56 325.848C1225.52 326.419 1225.91 326.92 1226.45 327.019L1226.57 327.034L1231.81 327.414C1232.41 327.458 1232.93 326.997 1232.97 326.385C1233.01 325.814 1232.62 325.314 1232.08 325.214L1231.96 325.199L1226.72 324.819Z" fill="black" fill-opacity="0.5"/>
<path d="M1231.27 328.543C1230.17 328.021 1229.05 327.742 1227.94 327.854C1227.01 327.948 1226.15 328.324 1225.43 329.009C1225 329.427 1224.97 330.13 1225.38 330.578C1225.79 331.027 1226.48 331.051 1226.92 330.633C1227.27 330.291 1227.68 330.112 1228.15 330.064C1228.81 329.997 1229.58 330.187 1230.36 330.557C1230.77 330.753 1231.08 330.948 1231.24 331.063C1231.73 331.419 1232.41 331.303 1232.76 330.803C1233.1 330.304 1232.99 329.61 1232.5 329.255C1232.24 329.066 1231.82 328.803 1231.27 328.543Z" fill="#1443BD"/>
<path d="M1231.27 328.543C1230.17 328.021 1229.05 327.742 1227.94 327.854C1227.01 327.948 1226.15 328.324 1225.43 329.009C1225 329.427 1224.97 330.13 1225.38 330.578C1225.79 331.027 1226.48 331.051 1226.92 330.633C1227.27 330.291 1227.68 330.112 1228.15 330.064C1228.81 329.997 1229.58 330.187 1230.36 330.557C1230.77 330.753 1231.08 330.948 1231.24 331.063C1231.73 331.419 1232.41 331.303 1232.76 330.803C1233.1 330.304 1232.99 329.61 1232.5 329.255C1232.24 329.066 1231.82 328.803 1231.27 328.543Z" fill="black" fill-opacity="0.5"/>
<path d="M1251.38 326.309C1250.78 326.277 1250.27 326.747 1250.23 327.36C1250.21 327.932 1250.6 328.425 1251.14 328.514L1251.26 328.527L1259.86 328.989C1260.46 329.022 1260.97 328.551 1261 327.939C1261.03 327.367 1260.64 326.874 1260.09 326.784L1259.98 326.771L1251.38 326.309Z" fill="#1443BD"/>
<path d="M1251.38 326.309C1250.78 326.277 1250.27 326.747 1250.23 327.36C1250.21 327.932 1250.6 328.425 1251.14 328.514L1251.26 328.527L1259.86 328.989C1260.46 329.022 1260.97 328.551 1261 327.939C1261.03 327.367 1260.64 326.874 1260.09 326.784L1259.98 326.771L1251.38 326.309Z" fill="black" fill-opacity="0.5"/>
<path fill-rule="evenodd" clip-rule="evenodd" d="M1250.77 325.643L1234.36 324.669C1233.21 324.601 1232.23 325.493 1232.17 326.664C1232.06 328.852 1231.98 332.365 1232.37 335.4C1232.82 338.979 1235.81 341.331 1239.32 341.707C1243.71 342.177 1247.65 342.414 1249.78 340.199C1253.02 336.824 1252.61 330.927 1252.72 327.824C1252.76 326.685 1251.89 325.708 1250.77 325.643Z" fill="white"/>
<path d="M1244.79 334.688C1245.18 334.771 1245.56 334.514 1245.64 334.114C1246.11 331.838 1244.88 329.616 1242.85 329.181C1240.82 328.748 1238.83 330.287 1238.37 332.562C1238.28 332.963 1238.53 333.355 1238.93 333.438C1239.32 333.522 1239.7 333.265 1239.78 332.864C1240.09 331.349 1241.35 330.375 1242.55 330.631C1243.76 330.888 1244.53 332.297 1244.22 333.812C1244.14 334.212 1244.39 334.604 1244.79 334.688Z" fill="#1443BD"/>
<path d="M1244.79 334.688C1245.18 334.771 1245.56 334.514 1245.64 334.114C1246.11 331.838 1244.88 329.616 1242.85 329.181C1240.82 328.748 1238.83 330.287 1238.37 332.562C1238.28 332.963 1238.53 333.355 1238.93 333.438C1239.32 333.522 1239.7 333.265 1239.78 332.864C1240.09 331.349 1241.35 330.375 1242.55 330.631C1243.76 330.888 1244.53 332.297 1244.22 333.812C1244.14 334.212 1244.39 334.604 1244.79 334.688Z" fill="black" fill-opacity="0.5"/>
<path fill-rule="evenodd" clip-rule="evenodd" d="M1225.18 323.937L1206.59 322.834C1205.74 325.57 1205.8 336.35 1208.86 338.84C1213 341.382 1221.69 340.905 1223.16 338.653C1225.4 335.236 1226.53 328.533 1226.66 325.626C1226.7 324.74 1226.04 323.988 1225.18 323.937Z" fill="white"/>
<path d="M1222.09 332.771C1222.49 332.778 1222.82 332.452 1222.83 332.043C1222.87 329.719 1221.26 327.768 1219.18 327.733C1217.1 327.697 1215.43 329.59 1215.39 331.914C1215.39 332.323 1215.71 332.66 1216.11 332.667C1216.51 332.674 1216.84 332.348 1216.84 331.939C1216.87 330.392 1217.93 329.193 1219.16 329.214C1220.39 329.235 1221.4 330.47 1221.38 332.017C1221.37 332.426 1221.69 332.763 1222.09 332.771Z" fill="#1443BD"/>
<path d="M1222.09 332.771C1222.49 332.778 1222.82 332.452 1222.83 332.043C1222.87 329.719 1221.26 327.768 1219.18 327.733C1217.1 327.697 1215.43 329.59 1215.39 331.914C1215.39 332.323 1215.71 332.66 1216.11 332.667C1216.51 332.674 1216.84 332.348 1216.84 331.939C1216.87 330.392 1217.93 329.193 1219.16 329.214C1220.39 329.235 1221.4 330.47 1221.38 332.017C1221.37 332.426 1221.69 332.763 1222.09 332.771Z" fill="black" fill-opacity="0.5"/>
<path d="M1232.2 324.092C1231.6 324.073 1231.1 324.554 1231.08 325.167C1231.06 325.739 1231.47 326.224 1232.01 326.302L1232.13 326.312L1252.51 326.974C1253.11 326.994 1253.62 326.513 1253.63 325.9C1253.65 325.328 1253.24 324.843 1252.7 324.765L1252.58 324.755L1232.2 324.092Z" fill="#1443BD"/>
<path d="M1232.2 324.092C1231.6 324.073 1231.1 324.554 1231.08 325.167C1231.06 325.739 1231.47 326.224 1232.01 326.302L1232.13 326.312L1252.51 326.974C1253.11 326.994 1253.62 326.513 1253.63 325.9C1253.65 325.328 1253.24 324.843 1252.7 324.765L1252.58 324.755L1232.2 324.092Z" fill="black" fill-opacity="0.5"/>
<path d="M1206.49 322.136C1205.89 322.092 1205.37 322.552 1205.33 323.164C1205.29 323.735 1205.68 324.236 1206.22 324.336L1206.34 324.351L1226.26 325.822C1226.86 325.866 1227.38 325.406 1227.42 324.794C1227.46 324.223 1227.07 323.722 1226.54 323.622L1226.42 323.607L1206.49 322.136Z" fill="#1443BD"/>
<path d="M1206.49 322.136C1205.89 322.092 1205.37 322.552 1205.33 323.164C1205.29 323.735 1205.68 324.236 1206.22 324.336L1206.34 324.351L1226.26 325.822C1226.86 325.866 1227.38 325.406 1227.42 324.794C1227.46 324.223 1227.07 323.722 1226.54 323.622L1226.42 323.607L1206.49 322.136Z" fill="black" fill-opacity="0.5"/>
<path d="M1234.38 324.3L1250.79 325.274C1252.1 325.351 1253.13 326.499 1253.08 327.838L1253.07 328.569L1253.05 329.895C1253.01 331.864 1252.94 332.964 1252.73 334.319C1252.33 336.894 1251.49 338.948 1250.04 340.459C1248.11 342.469 1245.28 342.718 1239.28 342.075C1235.45 341.665 1232.47 339.067 1232.01 335.448C1231.68 332.87 1231.65 329.814 1231.81 326.645C1231.88 325.27 1233.03 324.22 1234.38 324.3ZM1234.33 325.039C1233.44 324.985 1232.66 325.644 1232.54 326.533L1232.53 326.683C1232.37 329.811 1232.4 332.828 1232.72 335.353C1233.14 338.61 1235.84 340.963 1239.36 341.339L1240.14 341.42C1245.37 341.932 1247.89 341.638 1249.52 339.94C1250.85 338.555 1251.64 336.638 1252.02 334.202L1252.09 333.719C1252.24 332.607 1252.29 331.571 1252.32 329.874L1252.36 327.921C1252.36 327.884 1252.36 327.848 1252.36 327.811C1252.39 326.875 1251.67 326.067 1250.75 326.013L1234.33 325.039Z" fill="#1443BD"/>
<path d="M1234.38 324.3L1250.79 325.274C1252.1 325.351 1253.13 326.499 1253.08 327.838L1253.07 328.569L1253.05 329.895C1253.01 331.864 1252.94 332.964 1252.73 334.319C1252.33 336.894 1251.49 338.948 1250.04 340.459C1248.11 342.469 1245.28 342.718 1239.28 342.075C1235.45 341.665 1232.47 339.067 1232.01 335.448C1231.68 332.87 1231.65 329.814 1231.81 326.645C1231.88 325.27 1233.03 324.22 1234.38 324.3ZM1234.33 325.039C1233.44 324.985 1232.66 325.644 1232.54 326.533L1232.53 326.683C1232.37 329.811 1232.4 332.828 1232.72 335.353C1233.14 338.61 1235.84 340.963 1239.36 341.339L1240.14 341.42C1245.37 341.932 1247.89 341.638 1249.52 339.94C1250.85 338.555 1251.64 336.638 1252.02 334.202L1252.09 333.719C1252.24 332.607 1252.29 331.571 1252.32 329.874L1252.36 327.921C1252.36 327.884 1252.36 327.848 1252.36 327.811C1252.39 326.875 1251.67 326.067 1250.75 326.013L1234.33 325.039Z" fill="black" fill-opacity="0.5"/>
<path d="M1206.61 322.465L1225.2 323.568C1226.26 323.631 1227.07 324.555 1227.03 325.643C1226.84 329.761 1225.4 335.899 1223.46 338.859C1221.79 341.421 1212.79 341.682 1208.67 339.158C1205.9 336.905 1205.01 326.7 1206.24 322.723C1206.29 322.562 1206.45 322.455 1206.61 322.465ZM1206.86 323.221L1206.81 323.402C1205.85 327.413 1206.74 336.642 1209.08 338.551C1212.87 340.868 1221.44 340.62 1222.86 338.447C1224.71 335.621 1226.13 329.605 1226.3 325.61C1226.33 324.925 1225.82 324.346 1225.16 324.307L1206.86 323.221Z" fill="#1443BD"/>
<path d="M1206.61 322.465L1225.2 323.568C1226.26 323.631 1227.07 324.555 1227.03 325.643C1226.84 329.761 1225.4 335.899 1223.46 338.859C1221.79 341.421 1212.79 341.682 1208.67 339.158C1205.9 336.905 1205.01 326.7 1206.24 322.723C1206.29 322.562 1206.45 322.455 1206.61 322.465ZM1206.86 323.221L1206.81 323.402C1205.85 327.413 1206.74 336.642 1209.08 338.551C1212.87 340.868 1221.44 340.62 1222.86 338.447C1224.71 335.621 1226.13 329.605 1226.3 325.61C1226.33 324.925 1225.82 324.346 1225.16 324.307L1206.86 323.221Z" fill="black" fill-opacity="0.5"/>
<path fill-rule="evenodd" clip-rule="evenodd" d="M1260.79 327.054C1262.93 324.88 1266.2 324.329 1268.46 326.925C1272.1 331.108 1268.38 346.339 1258.35 346.792C1254.55 346.182 1257.44 330.446 1260.79 327.054Z" fill="#FFC999"/>
<path fill-rule="evenodd" clip-rule="evenodd" d="M1271.1 517.717C1271.1 517.717 1280.1 471.651 1284.08 454.634C1288.06 437.615 1294.11 396.871 1287.24 393.82C1280.36 390.769 1263.89 384.291 1263.89 384.291C1263.89 384.291 1247.56 386.436 1232.81 389.648C1221.13 392.191 1224.44 380.979 1210.28 383.371C1204.29 384.385 1185.47 387.417 1176.07 392.658C1172.3 394.76 1172.91 407.521 1172.38 419.926C1170.67 459.52 1180.12 520.183 1180.12 520.183C1180.12 520.183 1174.51 526.071 1181.31 533.706C1184.67 537.281 1199.24 536.07 1217.9 536.117C1239.13 536.169 1264.11 538.896 1268.75 534.767C1277.45 527.012 1271.1 517.717 1271.1 517.717Z" fill="#1443BD"/>
<path fill-rule="evenodd" clip-rule="evenodd" d="M1271.1 517.717C1271.1 517.717 1280.1 471.651 1284.08 454.634C1288.06 437.615 1294.11 396.871 1287.24 393.82C1280.36 390.769 1263.89 384.291 1263.89 384.291C1263.89 384.291 1247.56 386.436 1232.81 389.648C1221.13 392.191 1224.44 380.979 1210.28 383.371C1204.29 384.385 1185.47 387.417 1176.07 392.658C1172.3 394.76 1172.91 407.521 1172.38 419.926C1170.67 459.52 1180.12 520.183 1180.12 520.183C1180.12 520.183 1174.51 526.071 1181.31 533.706C1184.67 537.281 1199.24 536.07 1217.9 536.117C1239.13 536.169 1264.11 538.896 1268.75 534.767C1277.45 527.012 1271.1 517.717 1271.1 517.717Z" fill="white" fill-opacity="0.5"/>
<path fill-rule="evenodd" clip-rule="evenodd" d="M1216.29 377.421L1230.53 391.395L1213.44 403.623L1206.04 384.989L1216.29 377.421Z" fill="#1443BD"/>
<path fill-rule="evenodd" clip-rule="evenodd" d="M1216.29 377.421L1230.53 391.395L1213.44 403.623L1206.04 384.989L1216.29 377.421Z" fill="white" fill-opacity="0.5"/>
<path fill-rule="evenodd" clip-rule="evenodd" d="M1255.21 903.316L1225.29 613.669L1224.1 613.069L1192.68 903.983C1192.68 903.983 1169.26 909.533 1156.89 901.937C1156.41 845.531 1169.4 662.304 1174.89 578.628C1175.78 565.156 1179.83 546.845 1180.64 541.755C1218.24 535.258 1269.18 544.627 1269.18 544.627L1271.38 551.382C1271.81 552.696 1272.07 554.062 1272.15 555.444L1295.76 900.456C1295.76 900.456 1272.61 909.022 1255.21 903.316Z" fill="#2A84C6"/>
<path fill-rule="evenodd" clip-rule="evenodd" d="M1255.21 903.316L1225.29 613.669L1224.1 613.069L1192.68 903.983C1192.68 903.983 1169.26 909.533 1156.89 901.937C1156.41 845.531 1169.4 662.304 1174.89 578.628C1175.78 565.156 1179.83 546.845 1180.64 541.755C1218.24 535.258 1269.18 544.627 1269.18 544.627L1271.38 551.382C1271.81 552.696 1272.07 554.062 1272.15 555.444L1295.76 900.456C1295.76 900.456 1272.61 909.022 1255.21 903.316Z" fill="white" fill-opacity="0.85"/>
<path d="M1204.93 601.856C1204.66 601.721 1204.33 601.836 1204.2 602.111C1204.08 602.356 1204.16 602.646 1204.37 602.802L1204.45 602.854L1227.11 614.177C1227.38 614.312 1227.71 614.198 1227.84 613.922C1227.95 613.677 1227.88 613.388 1227.67 613.232L1227.59 613.18L1204.93 601.856Z" fill="#1443BD"/>
<path d="M1204.93 601.856C1204.66 601.721 1204.33 601.836 1204.2 602.111C1204.08 602.356 1204.16 602.646 1204.37 602.802L1204.45 602.854L1227.11 614.177C1227.38 614.312 1227.71 614.198 1227.84 613.922C1227.95 613.677 1227.88 613.388 1227.67 613.232L1227.59 613.18L1204.93 601.856Z" fill="white" fill-opacity="0.5"/>
<path fill-rule="evenodd" clip-rule="evenodd" d="M1268.97 534.647C1268.97 534.647 1221.09 527.411 1181.29 534.54C1180.96 538.147 1180.62 542.589 1180.62 542.589C1180.62 542.589 1214.68 544.987 1269.75 546.375C1269.59 536.584 1268.97 534.647 1268.97 534.647Z" fill="#2A84C6"/>
<path fill-rule="evenodd" clip-rule="evenodd" d="M1268.97 534.647C1268.97 534.647 1221.09 527.411 1181.29 534.54C1180.96 538.147 1180.62 542.589 1180.62 542.589C1180.62 542.589 1214.68 544.987 1269.75 546.375C1269.59 536.584 1268.97 534.647 1268.97 534.647Z" fill="white" fill-opacity="0.85"/>
<path d="M1253.46 544.988C1236.02 543.537 1218.12 542.979 1201.4 543.832C1194.37 544.191 1187.74 544.796 1181.58 545.67C1181.28 545.712 1181.07 545.992 1181.12 546.296C1181.16 546.6 1181.43 546.812 1181.73 546.77C1187.86 545.901 1194.46 545.299 1201.45 544.941C1218.12 544.091 1235.98 544.648 1253.37 546.095L1256.14 546.333C1258.84 546.574 1261.37 546.824 1263.69 547.075L1266.3 547.367L1268.15 547.591C1268.33 547.613 1268.47 547.63 1268.56 547.642C1268.86 547.681 1269.13 547.466 1269.17 547.162C1269.2 546.858 1268.99 546.58 1268.7 546.541L1267.62 546.407C1266.88 546.316 1266.02 546.216 1265.06 546.109L1263.02 545.887C1260.12 545.58 1256.92 545.275 1253.46 544.988Z" fill="#1443BD"/>
<path d="M1253.46 544.988C1236.02 543.537 1218.12 542.979 1201.4 543.832C1194.37 544.191 1187.74 544.796 1181.58 545.67C1181.28 545.712 1181.07 545.992 1181.12 546.296C1181.16 546.6 1181.43 546.812 1181.73 546.77C1187.86 545.901 1194.46 545.299 1201.45 544.941C1218.12 544.091 1235.98 544.648 1253.37 546.095L1256.14 546.333C1258.84 546.574 1261.37 546.824 1263.69 547.075L1266.3 547.367L1268.15 547.591C1268.33 547.613 1268.47 547.63 1268.56 547.642C1268.86 547.681 1269.13 547.466 1269.17 547.162C1269.2 546.858 1268.99 546.58 1268.7 546.541L1267.62 546.407C1266.88 546.316 1266.02 546.216 1265.06 546.109L1263.02 545.887C1260.12 545.58 1256.92 545.275 1253.46 544.988Z" fill="white" fill-opacity="0.5"/>
<path d="M1253.65 532.762C1236.21 531.311 1218.31 530.753 1201.59 531.606C1194.57 531.965 1187.94 532.57 1181.77 533.443C1181.47 533.485 1181.27 533.766 1181.31 534.07C1181.35 534.373 1181.62 534.585 1181.92 534.543C1188.05 533.675 1194.65 533.072 1201.65 532.715C1218.31 531.864 1236.17 532.421 1253.57 533.868L1255.42 534.026C1258.16 534.266 1260.73 534.515 1263.1 534.765L1266.06 535.091L1268.75 535.416C1269.05 535.455 1269.32 535.24 1269.36 534.936C1269.4 534.632 1269.19 534.353 1268.89 534.314L1267.82 534.18C1267.19 534.105 1266.49 534.023 1265.72 533.935L1263.21 533.661C1260.31 533.353 1257.11 533.049 1253.65 532.762Z" fill="#1443BD"/>
<path d="M1253.65 532.762C1236.21 531.311 1218.31 530.753 1201.59 531.606C1194.57 531.965 1187.94 532.57 1181.77 533.443C1181.47 533.485 1181.27 533.766 1181.31 534.07C1181.35 534.373 1181.62 534.585 1181.92 534.543C1188.05 533.675 1194.65 533.072 1201.65 532.715C1218.31 531.864 1236.17 532.421 1253.57 533.868L1255.42 534.026C1258.16 534.266 1260.73 534.515 1263.1 534.765L1266.06 535.091L1268.75 535.416C1269.05 535.455 1269.32 535.24 1269.36 534.936C1269.4 534.632 1269.19 534.353 1268.89 534.314L1267.82 534.18C1267.19 534.105 1266.49 534.023 1265.72 533.935L1263.21 533.661C1260.31 533.353 1257.11 533.049 1253.65 532.762Z" fill="white" fill-opacity="0.5"/>
<path d="M1221 533.524C1220.7 533.517 1220.45 533.759 1220.45 534.066L1220.39 536.963C1220.36 538.206 1220.34 539.576 1220.32 541.06C1220.14 553.355 1220.13 566.4 1220.4 578.621L1220.46 581.402C1220.76 592.686 1221.29 602.147 1222.1 609.243C1222.14 609.547 1222.41 609.765 1222.7 609.73C1223 609.694 1223.22 609.418 1223.18 609.114L1223.05 607.949C1222.25 600.439 1221.74 590.455 1221.48 578.596C1221.23 567.329 1221.22 555.359 1221.36 543.924L1221.41 540.449L1221.53 534.093C1221.54 533.787 1221.3 533.532 1221 533.524Z" fill="#1443BD"/>
<path d="M1221 533.524C1220.7 533.517 1220.45 533.759 1220.45 534.066L1220.39 536.963C1220.36 538.206 1220.34 539.576 1220.32 541.06C1220.14 553.355 1220.13 566.4 1220.4 578.621L1220.46 581.402C1220.76 592.686 1221.29 602.147 1222.1 609.243C1222.14 609.547 1222.41 609.765 1222.7 609.73C1223 609.694 1223.22 609.418 1223.18 609.114L1223.05 607.949C1222.25 600.439 1221.74 590.455 1221.48 578.596C1221.23 567.329 1221.22 555.359 1221.36 543.924L1221.41 540.449L1221.53 534.093C1221.54 533.787 1221.3 533.532 1221 533.524Z" fill="white" fill-opacity="0.5"/>
<path fill-rule="evenodd" clip-rule="evenodd" d="M1211.69 537.541C1211.67 538.921 1212.5 540.055 1213.56 540.073C1214.61 540.091 1215.47 538.985 1215.5 537.603C1215.52 536.222 1214.68 535.089 1213.63 535.07C1212.58 535.053 1211.71 536.159 1211.69 537.541Z" fill="white"/>
<path fill-rule="evenodd" clip-rule="evenodd" d="M1230.45 390.256L1243.63 407.984L1263.32 384.328L1256.11 375.112L1230.45 390.256Z" fill="#1443BD"/>
<path fill-rule="evenodd" clip-rule="evenodd" d="M1230.45 390.256L1243.63 407.984L1263.32 384.328L1256.11 375.112L1230.45 390.256Z" fill="white" fill-opacity="0.5"/>
<path d="M1229.86 391.215C1229.48 391.074 1229.07 391.27 1228.93 391.654L1228.79 392.068L1228.66 392.51C1228.61 392.671 1228.56 392.844 1228.51 393.03L1228.43 393.319C1228.1 394.517 1227.73 395.99 1227.35 397.759L1227.14 398.753C1225.84 404.898 1224.55 413.023 1223.34 423.383L1223.02 426.21C1221.72 437.923 1220.61 451.682 1219.73 467.651L1219.66 468.987C1218.34 493.328 1218.65 514.21 1219.79 529.818C1219.82 530.226 1220.17 530.532 1220.57 530.502C1220.97 530.471 1221.26 530.116 1221.24 529.708L1221.12 528.109C1220.1 513.015 1219.85 493.228 1221.04 470.3L1221.1 469.069C1221.99 452.558 1223.13 438.386 1224.46 426.377L1224.68 424.449C1225.91 413.706 1227.23 405.337 1228.55 399.064L1228.76 398.084C1229.11 396.499 1229.43 395.159 1229.73 394.048L1229.82 393.721C1229.93 393.336 1230.02 393.004 1230.11 392.724L1230.26 392.26C1230.27 392.218 1230.28 392.187 1230.29 392.166C1230.43 391.782 1230.24 391.356 1229.86 391.215Z" fill="#1443BD"/>
<path d="M1229.86 391.215C1229.48 391.074 1229.07 391.27 1228.93 391.654L1228.79 392.068L1228.66 392.51C1228.61 392.671 1228.56 392.844 1228.51 393.03L1228.43 393.319C1228.1 394.517 1227.73 395.99 1227.35 397.759L1227.14 398.753C1225.84 404.898 1224.55 413.023 1223.34 423.383L1223.02 426.21C1221.72 437.923 1220.61 451.682 1219.73 467.651L1219.66 468.987C1218.34 493.328 1218.65 514.21 1219.79 529.818C1219.82 530.226 1220.17 530.532 1220.57 530.502C1220.97 530.471 1221.26 530.116 1221.24 529.708L1221.12 528.109C1220.1 513.015 1219.85 493.228 1221.04 470.3L1221.1 469.069C1221.99 452.558 1223.13 438.386 1224.46 426.377L1224.68 424.449C1225.91 413.706 1227.23 405.337 1228.55 399.064L1228.76 398.084C1229.11 396.499 1229.43 395.159 1229.73 394.048L1229.82 393.721C1229.93 393.336 1230.02 393.004 1230.11 392.724L1230.26 392.26C1230.27 392.218 1230.28 392.187 1230.29 392.166C1230.43 391.782 1230.24 391.356 1229.86 391.215Z" fill="black" fill-opacity="0.5"/>
<path d="M1172.27 417.029C1171.92 416.726 1171.42 416.78 1171.13 417.138C1171.01 417.29 1170.94 417.461 1170.89 417.683C1170.83 417.937 1170.79 418.292 1170.76 418.758L1170.74 419C1170.69 419.979 1170.68 421.403 1170.72 423.225L1170.74 424.095C1170.86 428.717 1171.22 435.34 1171.81 443.292L1172.03 446.191C1173.5 465.138 1175.96 488.657 1179.25 514.21L1179.6 516.914L1179.47 517.268L1179.35 517.588C1179.11 518.261 1178.87 519.005 1178.65 519.801C1178.1 521.732 1177.74 523.651 1177.64 525.457C1177.48 528.474 1178.07 530.929 1179.64 532.587C1179.92 532.881 1180.38 532.888 1180.67 532.604C1180.95 532.319 1180.96 531.85 1180.68 531.556C1179.44 530.249 1178.95 528.183 1179.09 525.538C1179.18 523.857 1179.52 522.043 1180.04 520.211C1180.21 519.602 1180.39 519.025 1180.57 518.49L1180.82 517.796C1180.91 517.569 1180.97 517.402 1181.01 517.301C1181.06 517.179 1181.08 517.046 1181.06 516.915L1180.5 512.574C1177.24 487.124 1174.82 463.755 1173.39 445.009L1173.2 442.418C1172.68 435.333 1172.35 429.352 1172.21 424.97L1172.17 423.253C1172.13 421.567 1172.14 420.232 1172.18 419.292L1172.19 419.082C1172.21 418.78 1172.23 418.529 1172.25 418.336L1172.28 418.158L1172.29 418.151L1172.36 418.072C1172.62 417.758 1172.58 417.291 1172.27 417.029Z" fill="#1443BD"/>
<path d="M1172.27 417.029C1171.92 416.726 1171.42 416.78 1171.13 417.138C1171.01 417.29 1170.94 417.461 1170.89 417.683C1170.83 417.937 1170.79 418.292 1170.76 418.758L1170.74 419C1170.69 419.979 1170.68 421.403 1170.72 423.225L1170.74 424.095C1170.86 428.717 1171.22 435.34 1171.81 443.292L1172.03 446.191C1173.5 465.138 1175.96 488.657 1179.25 514.21L1179.6 516.914L1179.47 517.268L1179.35 517.588C1179.11 518.261 1178.87 519.005 1178.65 519.801C1178.1 521.732 1177.74 523.651 1177.64 525.457C1177.48 528.474 1178.07 530.929 1179.64 532.587C1179.92 532.881 1180.38 532.888 1180.67 532.604C1180.95 532.319 1180.96 531.85 1180.68 531.556C1179.44 530.249 1178.95 528.183 1179.09 525.538C1179.18 523.857 1179.52 522.043 1180.04 520.211C1180.21 519.602 1180.39 519.025 1180.57 518.49L1180.82 517.796C1180.91 517.569 1180.97 517.402 1181.01 517.301C1181.06 517.179 1181.08 517.046 1181.06 516.915L1180.5 512.574C1177.24 487.124 1174.82 463.755 1173.39 445.009L1173.2 442.418C1172.68 435.333 1172.35 429.352 1172.21 424.97L1172.17 423.253C1172.13 421.567 1172.14 420.232 1172.18 419.292L1172.19 419.082C1172.21 418.78 1172.23 418.529 1172.25 418.336L1172.28 418.158L1172.29 418.151L1172.36 418.072C1172.62 417.758 1172.58 417.291 1172.27 417.029Z" fill="black" fill-opacity="0.5"/>
<path d="M1209.19 413.822L1210.18 413.91C1210.5 413.94 1210.82 413.97 1211.12 414L1212.58 414.16L1213.03 414.215C1213.43 414.267 1213.72 414.626 1213.69 415.035L1211.94 442.664C1211.92 442.926 1211.78 443.162 1211.55 443.291L1196.92 451.664C1196.66 451.808 1196.36 451.794 1196.12 451.628L1184.81 443.735C1184.6 443.591 1184.48 443.352 1184.48 443.096L1184.49 438.068L1184.51 434.861C1184.54 429.305 1184.61 423.121 1184.72 416.419C1184.72 416.121 1184.89 415.851 1185.16 415.727C1188.01 414.389 1192.14 413.685 1197.22 413.488C1201.06 413.338 1205.16 413.485 1209.19 413.822ZM1196.74 415.061C1192.44 415.262 1188.91 415.848 1186.4 416.872L1186.23 416.943L1186.13 423.754C1186.09 427.294 1186.05 430.657 1186.03 433.823L1186 439.815L1186 442.684L1196.59 450.075L1210.45 442.143L1212.13 415.668L1211.82 415.634C1211 415.543 1210.07 415.453 1209.06 415.368C1205.09 415.036 1201.05 414.891 1197.28 415.037L1196.74 415.061Z" fill="#1443BD"/>
<path d="M1209.19 413.822L1210.18 413.91C1210.5 413.94 1210.82 413.97 1211.12 414L1212.58 414.16L1213.03 414.215C1213.43 414.267 1213.72 414.626 1213.69 415.035L1211.94 442.664C1211.92 442.926 1211.78 443.162 1211.55 443.291L1196.92 451.664C1196.66 451.808 1196.36 451.794 1196.12 451.628L1184.81 443.735C1184.6 443.591 1184.48 443.352 1184.48 443.096L1184.49 438.068L1184.51 434.861C1184.54 429.305 1184.61 423.121 1184.72 416.419C1184.72 416.121 1184.89 415.851 1185.16 415.727C1188.01 414.389 1192.14 413.685 1197.22 413.488C1201.06 413.338 1205.16 413.485 1209.19 413.822ZM1196.74 415.061C1192.44 415.262 1188.91 415.848 1186.4 416.872L1186.23 416.943L1186.13 423.754C1186.09 427.294 1186.05 430.657 1186.03 433.823L1186 439.815L1186 442.684L1196.59 450.075L1210.45 442.143L1212.13 415.668L1211.82 415.634C1211 415.543 1210.07 415.453 1209.06 415.368C1205.09 415.036 1201.05 414.891 1197.28 415.037L1196.74 415.061Z" fill="black" fill-opacity="0.5"/>
<path fill-rule="evenodd" clip-rule="evenodd" d="M1229.43 403.582C1229.41 404.964 1230.3 406.097 1231.43 406.116C1232.55 406.135 1233.48 405.03 1233.5 403.648C1233.52 402.268 1232.63 401.133 1231.5 401.114C1230.38 401.095 1229.45 402.2 1229.43 403.582Z" fill="white"/>
<path fill-rule="evenodd" clip-rule="evenodd" d="M1226.17 428.96C1226.15 430.34 1227.05 431.476 1228.17 431.494C1229.3 431.513 1230.23 430.409 1230.25 429.027C1230.27 427.646 1229.38 426.511 1228.25 426.492C1227.12 426.474 1226.19 427.578 1226.17 428.96Z" fill="white"/>
<path fill-rule="evenodd" clip-rule="evenodd" d="M1224.11 456.443C1224.09 457.825 1224.98 458.959 1226.11 458.978C1227.24 458.996 1228.17 457.892 1228.19 456.51C1228.21 455.13 1227.31 453.994 1226.19 453.976C1225.06 453.957 1224.13 455.063 1224.11 456.443Z" fill="white"/>
<path fill-rule="evenodd" clip-rule="evenodd" d="M1223.3 482.28C1223.28 483.661 1224.17 484.796 1225.3 484.815C1226.42 484.833 1227.35 483.729 1227.37 482.347C1227.39 480.967 1226.5 479.831 1225.37 479.813C1224.25 479.794 1223.32 480.898 1223.3 482.28Z" fill="white"/>
<path fill-rule="evenodd" clip-rule="evenodd" d="M1223.17 516.465C1223.15 517.847 1224.04 518.981 1225.17 519C1226.29 519.018 1227.22 517.914 1227.25 516.532C1227.27 515.152 1226.37 514.016 1225.25 513.998C1224.12 513.979 1223.19 515.083 1223.17 516.465Z" fill="white"/>
<path d="M1263.53 384.487C1263.25 384.246 1262.85 384.256 1262.58 384.494L1262.51 384.573L1244.03 406.849L1230.84 391.161C1230.61 390.879 1230.21 390.824 1229.91 391.016L1229.82 391.082C1229.55 391.324 1229.49 391.733 1229.68 392.038L1229.74 392.126L1243.49 408.474C1243.75 408.79 1244.22 408.815 1244.51 408.549L1244.59 408.47L1263.61 385.531C1263.87 385.219 1263.83 384.751 1263.53 384.487Z" fill="#1443BD"/>
<path d="M1263.53 384.487C1263.25 384.246 1262.85 384.256 1262.58 384.494L1262.51 384.573L1244.03 406.849L1230.84 391.161C1230.61 390.879 1230.21 390.824 1229.91 391.016L1229.82 391.082C1229.55 391.324 1229.49 391.733 1229.68 392.038L1229.74 392.126L1243.49 408.474C1243.75 408.79 1244.22 408.815 1244.51 408.549L1244.59 408.47L1263.61 385.531C1263.87 385.219 1263.83 384.751 1263.53 384.487Z" fill="black" fill-opacity="0.5"/>
<path d="M1208.38 385.49C1208.26 385.1 1207.85 384.885 1207.47 385.009C1207.12 385.123 1206.91 385.482 1206.97 385.841L1207 385.939L1212.75 404.43C1212.9 404.887 1213.41 405.08 1213.81 404.848L1213.89 404.792L1230.2 391.944C1230.51 391.694 1230.57 391.229 1230.33 390.905C1230.11 390.611 1229.71 390.534 1229.4 390.71L1229.31 390.77L1213.82 402.974L1208.38 385.49Z" fill="#1443BD"/>
<path d="M1208.38 385.49C1208.26 385.1 1207.85 384.885 1207.47 385.009C1207.12 385.123 1206.91 385.482 1206.97 385.841L1207 385.939L1212.75 404.43C1212.9 404.887 1213.41 405.08 1213.81 404.848L1213.89 404.792L1230.2 391.944C1230.51 391.694 1230.57 391.229 1230.33 390.905C1230.11 390.611 1229.71 390.534 1229.4 390.71L1229.31 390.77L1213.82 402.974L1208.38 385.49Z" fill="black" fill-opacity="0.5"/>
<path d="M1209.09 544.226C1208.79 544.181 1208.51 544.39 1208.47 544.693L1208.33 545.753L1208.3 546.024C1208.17 547.088 1208.04 548.292 1207.92 549.612C1207.37 555.639 1207.18 561.857 1207.57 567.671C1208.49 581.235 1212.35 589.841 1220.18 590.932C1220.48 590.973 1220.75 590.761 1220.79 590.457C1220.83 590.153 1220.62 589.873 1220.33 589.832C1213.2 588.839 1209.54 580.68 1208.65 567.594C1208.27 561.848 1208.45 555.687 1209 549.715L1209.1 548.623C1209.17 547.914 1209.25 547.245 1209.32 546.621L1209.44 545.643L1209.54 544.857C1209.59 544.554 1209.38 544.271 1209.09 544.226Z" fill="#1443BD"/>
<path d="M1209.09 544.226C1208.79 544.181 1208.51 544.39 1208.47 544.693L1208.33 545.753L1208.3 546.024C1208.17 547.088 1208.04 548.292 1207.92 549.612C1207.37 555.639 1207.18 561.857 1207.57 567.671C1208.49 581.235 1212.35 589.841 1220.18 590.932C1220.48 590.973 1220.75 590.761 1220.79 590.457C1220.83 590.153 1220.62 589.873 1220.33 589.832C1213.2 588.839 1209.54 580.68 1208.65 567.594C1208.27 561.848 1208.45 555.687 1209 549.715L1209.1 548.623C1209.17 547.914 1209.25 547.245 1209.32 546.621L1209.44 545.643L1209.54 544.857C1209.59 544.554 1209.38 544.271 1209.09 544.226Z" fill="white" fill-opacity="0.5"/>
<path d="M1265.31 329.158C1265.19 328.874 1264.88 328.736 1264.6 328.851L1264.41 328.937C1264.3 328.992 1264.16 329.064 1264 329.153C1263.56 329.399 1263.13 329.696 1262.72 330.049C1261.21 331.348 1260.46 333.03 1260.92 335.066C1261.1 335.838 1261.45 336.249 1262.09 336.642L1262.37 336.802C1262.92 337.112 1263.06 337.265 1263.11 337.745C1263.21 338.668 1262.8 339.358 1262.01 339.887C1261.75 340.062 1261.47 340.205 1261.18 340.316L1260.93 340.407C1260.88 340.421 1260.85 340.431 1260.82 340.437C1260.53 340.51 1260.35 340.811 1260.42 341.109C1260.49 341.407 1260.79 341.589 1261.08 341.516C1261.47 341.418 1262.04 341.198 1262.61 340.815C1263.71 340.077 1264.34 339.015 1264.19 337.626C1264.1 336.766 1263.77 336.351 1263.05 335.92L1262.78 335.768C1262.27 335.48 1262.09 335.286 1261.98 334.814C1261.62 333.237 1262.2 331.95 1263.42 330.898C1263.77 330.596 1264.15 330.338 1264.52 330.125C1264.75 329.999 1264.92 329.918 1265.01 329.881C1265.28 329.766 1265.42 329.442 1265.31 329.158Z" fill="#DD936F"/>
<path d="M1199.45 611.323C1199.15 611.303 1198.89 611.536 1198.87 611.842C1198.85 612.117 1199.03 612.358 1199.29 612.418L1199.38 612.431L1217.3 613.599C1217.6 613.619 1217.86 613.386 1217.87 613.08C1217.89 612.805 1217.71 612.563 1217.45 612.504L1217.37 612.491L1199.45 611.323Z" fill="#1443BD"/>
<path d="M1199.45 611.323C1199.15 611.303 1198.89 611.536 1198.87 611.842C1198.85 612.117 1199.03 612.358 1199.29 612.418L1199.38 612.431L1217.3 613.599C1217.6 613.619 1217.86 613.386 1217.87 613.08C1217.89 612.805 1217.71 612.563 1217.45 612.504L1217.37 612.491L1199.45 611.323Z" fill="white" fill-opacity="0.5"/>
<path fill-rule="evenodd" clip-rule="evenodd" d="M1074.52 378.67C1074.52 378.67 1058.91 331.113 1041.25 319.571C1035.99 319.769 1040.92 326.853 1044.58 332.649C1046.45 335.613 1047.69 339.357 1047.69 339.357C1047.69 339.357 1040.48 338.586 1041.86 344.846C1036.08 344.56 1038.17 351.174 1038.17 351.174C1038.17 351.174 1033.73 351.183 1035.16 357.326C1036.14 361.55 1041.7 366.535 1042.98 370.978C1047.9 388.114 1055.98 389.061 1059.22 389.587C1067.44 390.915 1072.48 387.718 1074.52 378.67Z" fill="#FFC999"/>
<path d="M1064.38 357.194L1058.06 343.191L1057.9 342.585C1056.5 337.447 1054.28 335.344 1052.38 337.199C1050.75 338.794 1050.46 342.866 1051.92 346.567C1054.84 353.933 1055.13 357.343 1054.08 361.362L1053.74 362.648C1053.54 363.409 1053.43 364.021 1053.38 364.669C1053.18 367.451 1053.31 370.041 1054.07 372.54C1055.18 376.191 1057.47 378.764 1061.18 379.802C1061.47 379.882 1061.77 379.708 1061.85 379.412C1061.93 379.116 1061.76 378.811 1061.47 378.73C1055.59 377.088 1053.96 371.726 1054.47 364.751C1054.5 364.261 1054.58 363.788 1054.72 363.221L1054.86 362.636C1054.91 362.458 1054.97 362.241 1055.06 361.918L1055.2 361.385C1056.23 357.237 1055.87 353.579 1052.93 346.151C1051.62 342.829 1051.87 339.233 1053.13 338.002C1054.15 337.009 1055.65 338.44 1056.87 342.929L1057.04 343.561L1063.39 357.659C1063.52 357.938 1063.84 358.059 1064.11 357.931C1064.36 357.817 1064.48 357.543 1064.41 357.288L1064.38 357.194Z" fill="#DD936F"/>
<path d="M1041.62 344.347C1041.35 344.482 1041.24 344.815 1041.37 345.09L1041.58 345.509C1041.74 345.839 1041.93 346.206 1042.14 346.602C1042.73 347.733 1043.37 348.864 1044.03 349.921C1044.73 351.053 1045.41 352.035 1046.07 352.823C1047.4 354.431 1048.56 355.218 1049.63 354.884C1052.02 354.135 1052.75 352.334 1052.15 349.992C1051.93 349.106 1051.52 348.175 1050.98 347.229C1050.69 346.713 1050.38 346.225 1050.07 345.779L1049.82 345.431C1049.74 345.334 1049.69 345.258 1049.64 345.203C1049.45 344.965 1049.11 344.929 1048.88 345.122C1048.65 345.316 1048.61 345.666 1048.8 345.904L1049.02 346.2C1049.07 346.267 1049.13 346.343 1049.18 346.426C1049.48 346.845 1049.77 347.303 1050.04 347.786C1050.54 348.652 1050.9 349.496 1051.1 350.273C1051.57 352.085 1051.09 353.266 1049.31 353.823C1048.82 353.974 1047.96 353.388 1046.9 352.105C1046.28 351.361 1045.62 350.419 1044.94 349.326C1044.3 348.293 1043.68 347.185 1043.09 346.076L1042.8 345.515L1042.35 344.602C1042.21 344.326 1041.89 344.212 1041.62 344.347Z" fill="#DD936F"/>
<path d="M1038.96 351.315C1038.86 351.025 1038.55 350.869 1038.27 350.967C1037.98 351.066 1037.83 351.381 1037.93 351.671L1038.05 352.019L1038.21 352.446C1038.27 352.595 1038.33 352.751 1038.4 352.913C1038.78 353.836 1039.22 354.761 1039.71 355.626C1041.25 358.315 1042.99 359.903 1044.98 359.743C1046.93 359.585 1047.84 358.28 1047.89 356.358C1047.91 355.658 1047.81 354.921 1047.65 354.189C1047.55 353.79 1047.46 353.479 1047.4 353.295C1047.3 353.006 1046.99 352.856 1046.7 352.959C1046.42 353.062 1046.27 353.38 1046.38 353.669L1046.44 353.856C1046.48 354.007 1046.53 354.206 1046.59 354.443C1046.74 355.089 1046.82 355.736 1046.8 356.327C1046.77 357.736 1046.21 358.529 1044.89 358.636C1043.46 358.751 1042 357.417 1040.65 355.065C1040.18 354.245 1039.76 353.364 1039.4 352.482L1039.22 352.036L1039 351.436C1038.98 351.383 1038.96 351.343 1038.96 351.315Z" fill="#DD936F"/>
<path d="M1034.87 355.873C1034.58 355.946 1034.4 356.247 1034.48 356.545L1034.56 356.862L1034.71 357.388C1034.74 357.482 1034.77 357.577 1034.8 357.675C1035.07 358.516 1035.4 359.357 1035.78 360.145C1037.19 363.07 1039.03 364.593 1041.31 363.698C1042.93 363.064 1043.56 361.878 1043.32 360.414C1043.2 359.697 1042.88 358.957 1042.42 358.214C1042.22 357.889 1042.01 357.585 1041.8 357.309L1041.6 357.059C1041.56 357.015 1041.53 356.978 1041.5 356.951C1041.3 356.724 1040.96 356.708 1040.74 356.914C1040.51 357.121 1040.5 357.472 1040.7 357.699L1040.82 357.845C1040.86 357.889 1040.9 357.941 1040.95 357.999C1041.14 358.245 1041.33 358.517 1041.51 358.806C1041.89 359.435 1042.16 360.05 1042.25 360.601C1042.41 361.551 1042.05 362.22 1040.93 362.661C1039.34 363.281 1037.95 362.124 1036.75 359.653C1036.39 358.916 1036.09 358.123 1035.83 357.329C1035.77 357.143 1035.72 356.967 1035.67 356.802L1035.53 356.28C1035.47 356.016 1035.23 355.842 1034.97 355.858L1034.87 355.873Z" fill="#DD936F"/>
<path d="M1120.83 436.919C1120.49 437.131 1120.38 437.586 1120.59 437.936L1121.41 439.294L1122.18 440.551C1122.81 441.571 1123.5 442.667 1124.24 443.825C1127.05 448.239 1130.03 452.653 1133.03 456.775C1135.2 459.761 1137.31 462.482 1139.32 464.881C1143.16 469.451 1146.56 472.725 1149.44 474.45C1149.64 474.57 1149.88 474.584 1150.09 474.491L1150.19 474.437L1173.9 459.079C1174.23 458.86 1174.33 458.402 1174.12 458.057C1173.93 457.743 1173.54 457.629 1173.22 457.776L1173.12 457.827L1149.8 472.939L1149.6 472.814C1147.11 471.168 1144.14 468.288 1140.81 464.372L1140.42 463.915C1138.43 461.546 1136.34 458.85 1134.19 455.891C1131.21 451.796 1128.25 447.406 1125.45 443.017L1124.73 441.885C1124.15 440.961 1123.6 440.083 1123.1 439.26L1122.34 438.023L1121.83 437.168C1121.62 436.818 1121.18 436.707 1120.83 436.919Z" fill="#1443BD"/>
<path d="M1120.83 436.919C1120.49 437.131 1120.38 437.586 1120.59 437.936L1121.41 439.294L1122.18 440.551C1122.81 441.571 1123.5 442.667 1124.24 443.825C1127.05 448.239 1130.03 452.653 1133.03 456.775C1135.2 459.761 1137.31 462.482 1139.32 464.881C1143.16 469.451 1146.56 472.725 1149.44 474.45C1149.64 474.57 1149.88 474.584 1150.09 474.491L1150.19 474.437L1173.9 459.079C1174.23 458.86 1174.33 458.402 1174.12 458.057C1173.93 457.743 1173.54 457.629 1173.22 457.776L1173.12 457.827L1149.8 472.939L1149.6 472.814C1147.11 471.168 1144.14 468.288 1140.81 464.372L1140.42 463.915C1138.43 461.546 1136.34 458.85 1134.19 455.891C1131.21 451.796 1128.25 447.406 1125.45 443.017L1124.73 441.885C1124.15 440.961 1123.6 440.083 1123.1 439.26L1122.34 438.023L1121.83 437.168C1121.62 436.818 1121.18 436.707 1120.83 436.919Z" fill="black" fill-opacity="0.5"/>
<path d="M1110.78 439.562C1110.64 439.291 1110.31 439.186 1110.05 439.329C1109.81 439.456 1109.7 439.735 1109.78 439.986L1109.82 440.079L1122.56 464.865C1122.7 465.136 1123.02 465.241 1123.29 465.098C1123.53 464.972 1123.63 464.692 1123.56 464.441L1123.52 464.349L1110.78 439.562Z" fill="#DD936F"/>
<path fill-rule="evenodd" clip-rule="evenodd" d="M1320 522.994C1329.5 518.944 1334.26 508.013 1330.84 498.082L1299.88 408.119C1295.33 394.889 1280.84 388.291 1268.17 393.685C1255.66 399.016 1249.99 413.916 1255.69 426.492L1294.92 513.018C1299.3 522.69 1310.37 527.093 1320 522.994Z" fill="#FFC999"/>
<path fill-rule="evenodd" clip-rule="evenodd" d="M1318.71 462.288L1299.32 405.209C1293.76 392.804 1273.3 387.883 1261.27 393.79C1249.24 399.698 1244.29 414.547 1250.28 426.741L1277.65 482.452C1277.65 482.452 1308.38 475.133 1318.71 462.288Z" fill="#1443BD"/>
<path fill-rule="evenodd" clip-rule="evenodd" d="M1318.71 462.288L1299.32 405.209C1293.76 392.804 1273.3 387.883 1261.27 393.79C1249.24 399.698 1244.29 414.547 1250.28 426.741L1277.65 482.452C1277.65 482.452 1308.38 475.133 1318.71 462.288Z" fill="white" fill-opacity="0.5"/>
<path d="M1263.01 440.404C1262.85 440.028 1262.43 439.852 1262.06 440.012C1261.72 440.158 1261.55 440.531 1261.64 440.88L1261.68 440.984L1278.76 482.032C1278.91 482.384 1279.29 482.564 1279.65 482.447L1281.16 481.937L1282.55 481.452C1283.68 481.054 1284.9 480.615 1286.18 480.14C1291.08 478.328 1295.98 476.351 1300.55 474.274L1301.87 473.667C1308.82 470.436 1314.27 467.277 1317.71 464.274C1318.27 463.777 1318.79 463.286 1319.24 462.799C1319.52 462.504 1319.5 462.035 1319.21 461.752C1318.93 461.47 1318.47 461.481 1318.19 461.777C1317.77 462.225 1317.3 462.682 1316.76 463.147C1313.24 466.223 1307.42 469.532 1299.96 472.92C1295.42 474.981 1290.56 476.946 1285.69 478.747L1284.44 479.207C1283.41 479.58 1282.44 479.927 1281.52 480.246L1279.83 480.827L1263.01 440.404Z" fill="#1443BD"/>
<path d="M1263.01 440.404C1262.85 440.028 1262.43 439.852 1262.06 440.012C1261.72 440.158 1261.55 440.531 1261.64 440.88L1261.68 440.984L1278.76 482.032C1278.91 482.384 1279.29 482.564 1279.65 482.447L1281.16 481.937L1282.55 481.452C1283.68 481.054 1284.9 480.615 1286.18 480.14C1291.08 478.328 1295.98 476.351 1300.55 474.274L1301.87 473.667C1308.82 470.436 1314.27 467.277 1317.71 464.274C1318.27 463.777 1318.79 463.286 1319.24 462.799C1319.52 462.504 1319.5 462.035 1319.21 461.752C1318.93 461.47 1318.47 461.481 1318.19 461.777C1317.77 462.225 1317.3 462.682 1316.76 463.147C1313.24 466.223 1307.42 469.532 1299.96 472.92C1295.42 474.981 1290.56 476.946 1285.69 478.747L1284.44 479.207C1283.41 479.58 1282.44 479.927 1281.52 480.246L1279.83 480.827L1263.01 440.404Z" fill="black" fill-opacity="0.5"/>
<path fill-rule="evenodd" clip-rule="evenodd" d="M1200.75 512.225C1201.31 518.004 1206 522.446 1211.68 522.572L1311.5 524.774C1322.97 525.027 1332.14 515.112 1331.26 503.422C1330.4 491.997 1320.28 483.693 1309.18 485.312L1210.33 499.732C1204.38 500.601 1200.16 506.108 1200.75 512.225Z" fill="#FFC999"/>
<path fill-rule="evenodd" clip-rule="evenodd" d="M1208.92 538.472L1186.97 468.273C1186.61 467.114 1185.56 466.323 1184.38 466.308L1122.83 465.456C1120.92 465.43 1119.56 467.349 1120.18 469.197L1143.09 537.532C1143.46 538.632 1144.45 539.387 1145.58 539.438L1206.17 542.156C1208.09 542.241 1209.5 540.346 1208.92 538.472Z" fill="#2A84C6"/>
<path fill-rule="evenodd" clip-rule="evenodd" d="M1208.92 538.472L1186.97 468.273C1186.61 467.114 1185.56 466.323 1184.38 466.308L1122.83 465.456C1120.92 465.43 1119.56 467.349 1120.18 469.197L1143.09 537.532C1143.46 538.632 1144.45 539.387 1145.58 539.438L1206.17 542.156C1208.09 542.241 1209.5 540.346 1208.92 538.472Z" fill="black" fill-opacity="0.2"/>
<path fill-rule="evenodd" clip-rule="evenodd" d="M1205.67 537.617L1184.11 468.64C1183.67 467.239 1182.41 466.281 1180.97 466.26L1118.66 465.398C1117.33 465.381 1116.37 466.723 1116.81 468.015L1140.04 537.296C1140.45 538.513 1141.54 539.351 1142.8 539.407L1202.34 542.077C1204.67 542.181 1206.38 539.884 1205.67 537.617Z" fill="#1443BD"/>
<path fill-rule="evenodd" clip-rule="evenodd" d="M1205.67 537.617L1184.11 468.64C1183.67 467.239 1182.41 466.281 1180.97 466.26L1118.66 465.398C1117.33 465.381 1116.37 466.723 1116.81 468.015L1140.04 537.296C1140.45 538.513 1141.54 539.351 1142.8 539.407L1202.34 542.077C1204.67 542.181 1206.38 539.884 1205.67 537.617Z" fill="black" fill-opacity="0.5"/>
<path fill-rule="evenodd" clip-rule="evenodd" d="M1175.67 472.907C1174.98 473.7 1175.23 475.091 1176.23 476.017C1177.24 476.941 1178.62 477.048 1179.32 476.257C1180.01 475.465 1179.76 474.072 1178.76 473.148C1177.75 472.222 1176.37 472.115 1175.67 472.907Z" fill="#2A84C6"/>
<path fill-rule="evenodd" clip-rule="evenodd" d="M1175.67 472.907C1174.98 473.7 1175.23 475.091 1176.23 476.017C1177.24 476.941 1178.62 477.048 1179.32 476.257C1180.01 475.465 1179.76 474.072 1178.76 473.148C1177.75 472.222 1176.37 472.115 1175.67 472.907Z" fill="white" fill-opacity="0.85"/>
<path fill-rule="evenodd" clip-rule="evenodd" d="M1176.5 473.736C1176.14 474.147 1176.27 474.869 1176.79 475.35C1177.31 475.83 1178.03 475.885 1178.39 475.474C1178.75 475.063 1178.62 474.341 1178.1 473.86C1177.58 473.38 1176.86 473.325 1176.5 473.736Z" fill="#2A84C6"/>
<path fill-rule="evenodd" clip-rule="evenodd" d="M1176.5 473.736C1176.14 474.147 1176.27 474.869 1176.79 475.35C1177.31 475.83 1178.03 475.885 1178.39 475.474C1178.75 475.063 1178.62 474.341 1178.1 473.86C1177.58 473.38 1176.86 473.325 1176.5 473.736Z" fill="white" fill-opacity="0.85"/>
<path fill-rule="evenodd" clip-rule="evenodd" d="M1181.52 525.272C1177.99 524.921 1176.13 523.409 1176.46 520.397C1172.21 519.029 1172.68 515.346 1172.68 515.346C1172.68 515.346 1164.5 515.217 1163.12 511.64C1162.58 510.251 1163.62 508.765 1165.08 508.664C1182.62 507.448 1195.13 497.945 1195.13 497.945C1195.13 497.945 1188.23 487.592 1188.96 482.814C1189.17 481.401 1190.98 480.945 1191.83 482.085C1199.06 491.842 1213.56 499.493 1213.56 499.493C1213.56 499.493 1230.96 516.168 1212.08 523.729C1212.08 523.729 1197.69 529.593 1187.67 528.85C1182.92 528.5 1181.52 525.272 1181.52 525.272Z" fill="#FFC999"/>
<path d="M1185.58 512.167C1185.44 511.9 1185.11 511.804 1184.84 511.954C1183.59 512.672 1182.12 513.257 1180.48 513.719C1178.53 514.27 1176.44 514.622 1174.33 514.813L1173.69 514.867C1172.86 514.93 1172.15 514.958 1171.6 514.965L1171.19 514.966C1170.89 514.962 1170.65 515.208 1170.64 515.514C1170.64 515.79 1170.83 516.022 1171.09 516.068L1171.18 516.077L1171.4 516.078C1172.14 516.075 1173.18 516.033 1174.43 515.92C1176.59 515.723 1178.75 515.36 1180.77 514.789C1182.49 514.305 1184.04 513.688 1185.37 512.923C1185.64 512.773 1185.73 512.435 1185.58 512.167Z" fill="#DD936F"/>
<path d="M1187.23 517.679C1187.1 517.403 1186.78 517.287 1186.51 517.42C1186.35 517.5 1186.18 517.578 1186.02 517.654C1183.94 518.615 1181.7 519.231 1179.45 519.569C1178.07 519.778 1176.96 519.846 1176.26 519.841C1175.96 519.836 1175.71 520.082 1175.71 520.388C1175.7 520.664 1175.9 520.896 1176.15 520.942L1176.24 520.951H1176.44L1176.84 520.942C1177.55 520.916 1178.5 520.835 1179.61 520.668C1181.95 520.316 1184.28 519.673 1186.47 518.666C1186.64 518.587 1186.81 518.504 1186.98 518.42C1187.25 518.287 1187.36 517.955 1187.23 517.679Z" fill="#DD936F"/>
<path d="M1190.36 523.837C1190.22 523.56 1189.9 523.445 1189.63 523.578C1189.05 523.864 1187.69 524.131 1185.83 524.349C1184.89 524.461 1183.87 524.554 1182.85 524.63L1181.49 524.718C1181.19 524.734 1180.96 524.994 1180.98 525.301C1180.99 525.607 1181.25 525.843 1181.55 525.827L1182.66 525.757L1182.93 525.737C1183.96 525.661 1184.99 525.566 1185.96 525.453L1186.64 525.368C1188.27 525.152 1189.46 524.896 1190.1 524.578C1190.37 524.445 1190.49 524.113 1190.36 523.837Z" fill="#DD936F"/>
<path d="M1309.11 484.762L1212.73 498.224C1212.43 498.266 1212.22 498.546 1212.26 498.849C1212.3 499.123 1212.52 499.323 1212.79 499.329L1212.87 499.324L1309.25 485.862C1309.55 485.82 1309.76 485.54 1309.72 485.237C1309.68 484.963 1309.46 484.764 1309.2 484.757L1309.11 484.762Z" fill="#DD936F"/>
<g filter="url(#filter3_ddddd_1_2200)">
<path d="M913.199 365.474H830.201C828.564 365.474 827.236 366.831 827.236 368.505V427.285C827.236 428.959 828.564 430.317 830.201 430.317H913.199C914.836 430.317 916.164 428.959 916.164 427.285V368.505C916.164 366.831 914.836 365.474 913.199 365.474Z" fill="white"/>
</g>
<path d="M899.486 422.47C900.772 422.47 901.815 420.22 901.815 417.444C901.815 414.668 900.772 412.417 899.486 412.417C898.199 412.417 897.157 414.668 897.157 417.444C897.157 420.22 898.199 422.47 899.486 422.47Z" fill="white"/>
<path d="M916.122 385.303H827.279V394.707H916.122V385.303Z" fill="#1443BD"/>
<path d="M916.122 385.303H827.279V394.707H916.122V385.303Z" fill="black" fill-opacity="0.5"/>
<path d="M864.357 404.451H834.567C834.022 404.451 833.579 404.903 833.579 405.461V406.689C833.579 407.247 834.022 407.699 834.567 407.699H864.357C864.903 407.699 865.346 407.247 865.346 406.689V405.461C865.346 404.903 864.903 404.451 864.357 404.451Z" fill="#1443BD"/>
<path d="M864.357 404.451H834.567C834.022 404.451 833.579 404.903 833.579 405.461V406.689C833.579 407.247 834.022 407.699 834.567 407.699H864.357C864.903 407.699 865.346 407.247 865.346 406.689V405.461C865.346 404.903 864.903 404.451 864.357 404.451Z" fill="white" fill-opacity="0.2"/>
<path d="M851.75 414.196H834.567C834.022 414.196 833.579 414.648 833.579 415.206V416.433C833.579 416.991 834.022 417.444 834.567 417.444H851.75C852.296 417.444 852.738 416.991 852.738 416.433V415.206C852.738 414.648 852.296 414.196 851.75 414.196Z" fill="#1443BD"/>
<path d="M851.75 414.196H834.567C834.022 414.196 833.579 414.648 833.579 415.206V416.433C833.579 416.991 834.022 417.444 834.567 417.444H851.75C852.296 417.444 852.738 416.991 852.738 416.433V415.206C852.738 414.648 852.296 414.196 851.75 414.196Z" fill="white" fill-opacity="0.2"/>
<path d="M842.17 372.008H834.567C834.022 372.008 833.579 372.46 833.579 373.019V377.455C833.579 378.013 834.022 378.466 834.567 378.466H842.17C842.716 378.466 843.159 378.013 843.159 377.455V373.019C843.159 372.46 842.716 372.008 842.17 372.008Z" fill="#1443BD"/>
<path d="M897.156 417.444C897.154 415.495 898.01 413.649 899.486 412.417C896.898 410.248 893.108 410.504 890.821 413.002C888.534 415.5 888.534 419.383 890.821 421.881C893.108 424.379 896.898 424.635 899.486 422.466C898.011 421.235 897.156 419.391 897.156 417.444Z" fill="#F56D7E"/>
<path d="M903.51 410.948C902.042 410.946 900.62 411.465 899.486 412.418C900.959 413.651 901.812 415.495 901.812 417.442C901.812 419.389 900.959 421.233 899.486 422.466C901.65 424.282 904.721 424.435 907.048 422.844C909.375 421.253 910.409 418.292 909.594 415.554C908.78 412.816 906.309 410.945 903.51 410.948Z" fill="#B7EE81"/>
<path d="M903.51 410.948C902.042 410.946 900.62 411.465 899.486 412.418C900.959 413.651 901.812 415.495 901.812 417.442C901.812 419.389 900.959 421.233 899.486 422.466C901.65 424.282 904.721 424.435 907.048 422.844C909.375 421.253 910.409 418.292 909.594 415.554C908.78 412.816 906.309 410.945 903.51 410.948Z" fill="white" fill-opacity="0.2"/>
<path fill-rule="evenodd" clip-rule="evenodd" d="M1112.63 279.305C1121.8 279.305 1129.23 286.906 1129.23 296.282V296.325C1129.23 305.701 1121.8 313.302 1112.63 313.302H1088.15C1087.23 313.302 1086.33 313.227 1085.46 313.081L1080.72 317.766C1080.59 317.894 1080.41 317.965 1080.24 317.965C1079.85 317.965 1079.54 317.648 1079.54 317.257L1079.54 310.848C1074.75 307.872 1071.54 302.481 1071.54 296.325V296.282C1071.54 286.906 1078.98 279.305 1088.15 279.305H1112.63Z" fill="#2A84C6"/>
<path fill-rule="evenodd" clip-rule="evenodd" d="M1112.63 279.305C1121.8 279.305 1129.23 286.906 1129.23 296.282V296.325C1129.23 305.701 1121.8 313.302 1112.63 313.302H1088.15C1087.23 313.302 1086.33 313.227 1085.46 313.081L1080.72 317.766C1080.59 317.894 1080.41 317.965 1080.24 317.965C1079.85 317.965 1079.54 317.648 1079.54 317.257L1079.54 310.848C1074.75 307.872 1071.54 302.481 1071.54 296.325V296.282C1071.54 286.906 1078.98 279.305 1088.15 279.305H1112.63Z" fill="white" fill-opacity="0.5"/>
<g filter="url(#filter4_ddddd_1_2200)">
<path d="M1108.6 238.632H1143.57C1156.67 238.632 1167.28 249.49 1167.28 262.884C1167.28 276.279 1156.67 287.137 1143.57 287.137H1108.6C1095.5 287.137 1084.89 276.279 1084.89 262.884C1084.89 249.49 1095.5 238.632 1108.6 238.632Z" fill="white"/>
<path fill-rule="evenodd" clip-rule="evenodd" d="M1155.86 280.082V292.779C1155.86 293.337 1155.41 293.789 1154.87 293.789C1154.61 293.789 1154.37 293.688 1154.18 293.506L1145.06 284.504L1155.86 280.082Z" fill="white"/>
</g>
<path d="M1141.96 265.915C1139.84 265.915 1138.13 264.162 1138.13 262C1138.13 259.837 1139.84 258.084 1141.96 258.084C1144.07 258.084 1145.79 259.837 1145.79 262C1145.79 264.162 1144.07 265.915 1141.96 265.915Z" fill="#1443BD"/>
<path d="M1141.96 265.915C1139.84 265.915 1138.13 264.162 1138.13 262C1138.13 259.837 1139.84 258.084 1141.96 258.084C1144.07 258.084 1145.79 259.837 1145.79 262C1145.79 264.162 1144.07 265.915 1141.96 265.915Z" fill="black" fill-opacity="0.5"/>
<path d="M1126.27 265.915C1124.16 265.915 1122.44 264.162 1122.44 262C1122.44 259.837 1124.16 258.084 1126.27 258.084C1128.39 258.084 1130.1 259.837 1130.1 262C1130.1 264.162 1128.39 265.915 1126.27 265.915Z" fill="#1443BD"/>
<path d="M1126.27 265.915C1124.16 265.915 1122.44 264.162 1122.44 262C1122.44 259.837 1124.16 258.084 1126.27 258.084C1128.39 258.084 1130.1 259.837 1130.1 262C1130.1 264.162 1128.39 265.915 1126.27 265.915Z" fill="black" fill-opacity="0.5"/>
<path d="M1110.21 265.915C1108.1 265.915 1106.38 264.162 1106.38 262C1106.38 259.837 1108.1 258.084 1110.21 258.084C1112.33 258.084 1114.04 259.837 1114.04 262C1114.04 264.162 1112.33 265.915 1110.21 265.915Z" fill="#1443BD"/>
<path d="M1110.21 265.915C1108.1 265.915 1106.38 264.162 1106.38 262C1106.38 259.837 1108.1 258.084 1110.21 258.084C1112.33 258.084 1114.04 259.837 1114.04 262C1114.04 264.162 1112.33 265.915 1110.21 265.915Z" fill="black" fill-opacity="0.5"/>
<path fill-rule="evenodd" clip-rule="evenodd" d="M999.016 480.468H985.329V432.521C985.329 428.705 988.377 425.611 992.137 425.611H992.208C995.968 425.611 999.016 428.705 999.016 432.521V480.468Z" fill="#B7EE81"/>
<path fill-rule="evenodd" clip-rule="evenodd" d="M999.016 480.468H985.329V432.521C985.329 428.705 988.377 425.611 992.137 425.611H992.208C995.968 425.611 999.016 428.705 999.016 432.521V480.468Z" fill="white" fill-opacity="0.2"/>
<path fill-rule="evenodd" clip-rule="evenodd" d="M1005.82 492.203H992.095V467.167C992.095 463.451 995.075 460.439 998.752 460.439H999.164C1002.84 460.439 1005.82 463.451 1005.82 467.167V492.203Z" fill="#B7EE81"/>
<path fill-rule="evenodd" clip-rule="evenodd" d="M1005.82 492.203H992.095V467.167C992.095 463.451 995.075 460.439 998.752 460.439H999.164C1002.84 460.439 1005.82 463.451 1005.82 467.167V492.203Z" fill="black" fill-opacity="0.35"/>
<path fill-rule="evenodd" clip-rule="evenodd" d="M987.337 480.442H973.519V453.221C973.519 449.484 976.507 446.455 980.194 446.455H980.662C984.348 446.455 987.337 449.484 987.337 453.221V480.442Z" fill="#B7EE81"/>
<path fill-rule="evenodd" clip-rule="evenodd" d="M987.337 480.442H973.519V453.221C973.519 449.484 976.507 446.455 980.194 446.455H980.662C984.348 446.455 987.337 449.484 987.337 453.221V480.442Z" fill="white" fill-opacity="0.2"/>
<path fill-rule="evenodd" clip-rule="evenodd" d="M1003 520.362H974C972.579 520.362 970.573 518.438 970.573 517L968 481.603C968 480.165 969.152 479 970.573 479H1006.52C1007.94 479 1009.09 480.165 1009.09 481.603L1005.5 517C1005.5 518.438 1004.42 520.362 1003 520.362Z" fill="#1443BD"/>
<path fill-rule="evenodd" clip-rule="evenodd" d="M1003 520.362H974C972.579 520.362 970.573 518.438 970.573 517L968 481.603C968 480.165 969.152 479 970.573 479H1006.52C1007.94 479 1009.09 480.165 1009.09 481.603L1005.5 517C1005.5 518.438 1004.42 520.362 1003 520.362Z" fill="black" fill-opacity="0.2"/>
<path fill-rule="evenodd" clip-rule="evenodd" d="M1001.17 531.121L1014.21 695.486H1025.41L1012.37 531.121H1001.17Z" fill="#F2F2F2"/>
<path fill-rule="evenodd" clip-rule="evenodd" d="M965.492 531.121L952.446 695.486H963.648L976.693 531.121H965.492Z" fill="#F2F2F2"/>
<path fill-rule="evenodd" clip-rule="evenodd" d="M956.209 541.79C949.518 541.79 944.095 537.006 944.095 531.106C944.095 525.206 949.518 520.421 956.209 520.421H1022.68C1029.37 520.421 1034.79 525.206 1034.79 531.106C1034.79 537.006 1029.37 541.79 1022.68 541.79H956.209Z" fill="#2A84C6"/>
<path fill-rule="evenodd" clip-rule="evenodd" d="M956.209 541.79C949.518 541.79 944.095 537.006 944.095 531.106C944.095 525.206 949.518 520.421 956.209 520.421H1022.68C1029.37 520.421 1034.79 525.206 1034.79 531.106C1034.79 537.006 1029.37 541.79 1022.68 541.79H956.209Z" fill="white" fill-opacity="0.65"/>
<g opacity="0.8">
<path fill-rule="evenodd" clip-rule="evenodd" d="M1315.67 204.367L1362.23 239.581C1363.14 238.667 1364.44 238.143 1365.83 238.261C1368.3 238.468 1370.13 240.592 1369.93 243.005C1369.73 245.417 1367.56 247.205 1365.1 246.998C1363.44 246.858 1362.07 245.852 1361.41 244.474L1304.8 263.247C1304.96 263.763 1305.03 264.317 1304.98 264.886C1304.78 267.299 1302.61 269.087 1300.15 268.879C1297.68 268.672 1295.85 266.548 1296.05 264.135C1296.25 261.811 1298.26 260.066 1300.62 260.128L1310.65 206.282C1308.62 205.724 1307.21 203.818 1307.39 201.687C1307.59 199.274 1309.75 197.486 1312.22 197.694C1314.68 197.901 1316.52 200.025 1316.31 202.438C1316.25 203.146 1316.03 203.801 1315.67 204.367ZM1361 242.254C1360.99 242.427 1360.98 242.598 1360.99 242.768L1327.68 246.843C1327.23 245.066 1325.67 243.681 1323.7 243.516C1323.27 243.48 1322.85 243.504 1322.45 243.581L1313.35 206.201C1314.04 205.964 1314.65 205.567 1315.14 205.05L1361.69 240.255C1361.31 240.837 1361.06 241.516 1361 242.254ZM1321.61 243.83L1312.49 206.404C1312.18 206.448 1311.85 206.459 1311.51 206.433L1301.49 260.234C1302.31 260.414 1303.03 260.81 1303.61 261.352L1319.39 249.948C1318.99 249.225 1318.8 248.386 1318.87 247.508C1319.01 245.819 1320.11 244.436 1321.61 243.83ZM1319.88 250.664L1304.18 262.008C1304.29 262.15 1304.38 262.298 1304.46 262.451L1361.12 243.662C1361.11 243.648 1361.11 243.634 1361.1 243.62L1327.81 247.695C1327.82 247.881 1327.81 248.069 1327.8 248.259C1327.59 250.672 1325.43 252.46 1322.97 252.252C1321.71 252.147 1320.62 251.546 1319.88 250.664Z" fill="#B7EE81"/>
<path fill-rule="evenodd" clip-rule="evenodd" d="M1315.67 204.367L1362.23 239.581C1363.14 238.667 1364.44 238.143 1365.83 238.261C1368.3 238.468 1370.13 240.592 1369.93 243.005C1369.73 245.417 1367.56 247.205 1365.1 246.998C1363.44 246.858 1362.07 245.852 1361.41 244.474L1304.8 263.247C1304.96 263.763 1305.03 264.317 1304.98 264.886C1304.78 267.299 1302.61 269.087 1300.15 268.879C1297.68 268.672 1295.85 266.548 1296.05 264.135C1296.25 261.811 1298.26 260.066 1300.62 260.128L1310.65 206.282C1308.62 205.724 1307.21 203.818 1307.39 201.687C1307.59 199.274 1309.75 197.486 1312.22 197.694C1314.68 197.901 1316.52 200.025 1316.31 202.438C1316.25 203.146 1316.03 203.801 1315.67 204.367ZM1361 242.254C1360.99 242.427 1360.98 242.598 1360.99 242.768L1327.68 246.843C1327.23 245.066 1325.67 243.681 1323.7 243.516C1323.27 243.48 1322.85 243.504 1322.45 243.581L1313.35 206.201C1314.04 205.964 1314.65 205.567 1315.14 205.05L1361.69 240.255C1361.31 240.837 1361.06 241.516 1361 242.254ZM1321.61 243.83L1312.49 206.404C1312.18 206.448 1311.85 206.459 1311.51 206.433L1301.49 260.234C1302.31 260.414 1303.03 260.81 1303.61 261.352L1319.39 249.948C1318.99 249.225 1318.8 248.386 1318.87 247.508C1319.01 245.819 1320.11 244.436 1321.61 243.83ZM1319.88 250.664L1304.18 262.008C1304.29 262.15 1304.38 262.298 1304.46 262.451L1361.12 243.662C1361.11 243.648 1361.11 243.634 1361.1 243.62L1327.81 247.695C1327.82 247.881 1327.81 248.069 1327.8 248.259C1327.59 250.672 1325.43 252.46 1322.97 252.252C1321.71 252.147 1320.62 251.546 1319.88 250.664Z" fill="white" fill-opacity="0.65"/>
</g>
<g opacity="0.8">
<path fill-rule="evenodd" clip-rule="evenodd" d="M1122.79 95.8694L1118.98 129.006C1119.69 129.184 1120.32 129.671 1120.67 130.393C1121.29 131.666 1120.77 133.185 1119.53 133.786C1118.28 134.386 1116.77 133.841 1116.16 132.568C1115.75 131.711 1115.84 130.744 1116.33 130.019L1090.66 107.616C1090.45 107.845 1090.2 108.038 1089.9 108.179C1088.66 108.78 1087.15 108.235 1086.54 106.961C1085.92 105.688 1086.43 104.169 1087.68 103.569C1088.88 102.99 1090.33 103.475 1090.98 104.65L1120.39 93.9544C1120.07 92.7931 1120.6 91.5459 1121.7 91.0154C1122.95 90.4148 1124.45 90.9601 1125.07 92.2333C1125.68 93.5065 1125.17 95.0256 1123.92 95.6261C1123.56 95.8025 1123.17 95.8801 1122.79 95.8694ZM1117.3 129.175C1117.22 129.218 1117.13 129.266 1117.05 129.318L1105.37 114.111C1106.12 113.374 1106.34 112.202 1105.85 111.187C1105.75 110.965 1105.61 110.766 1105.46 110.591L1121.21 95.2589C1121.53 95.5286 1121.9 95.7155 1122.3 95.8066L1118.49 128.934C1118.09 128.915 1117.69 128.991 1117.3 129.175ZM1105.09 110.249L1120.86 94.8984C1120.75 94.7544 1120.65 94.5958 1120.56 94.4239L1091.18 105.111C1091.33 105.566 1091.34 106.038 1091.24 106.48L1101.44 110.933C1101.68 110.527 1102.03 110.187 1102.49 109.969C1103.36 109.548 1104.36 109.689 1105.09 110.249ZM1101.23 111.382L1091.09 106.952C1091.05 107.043 1091 107.132 1090.95 107.218L1116.64 129.64C1116.65 129.634 1116.66 129.628 1116.66 129.622L1104.99 114.421C1104.9 114.479 1104.81 114.532 1104.71 114.579C1103.46 115.18 1101.96 114.635 1101.34 113.361C1101.03 112.714 1101.01 112.003 1101.23 111.382Z" fill="#B7EE81"/>
<path fill-rule="evenodd" clip-rule="evenodd" d="M1122.79 95.8694L1118.98 129.006C1119.69 129.184 1120.32 129.671 1120.67 130.393C1121.29 131.666 1120.77 133.185 1119.53 133.786C1118.28 134.386 1116.77 133.841 1116.16 132.568C1115.75 131.711 1115.84 130.744 1116.33 130.019L1090.66 107.616C1090.45 107.845 1090.2 108.038 1089.9 108.179C1088.66 108.78 1087.15 108.235 1086.54 106.961C1085.92 105.688 1086.43 104.169 1087.68 103.569C1088.88 102.99 1090.33 103.475 1090.98 104.65L1120.39 93.9544C1120.07 92.7931 1120.6 91.5459 1121.7 91.0154C1122.95 90.4148 1124.45 90.9601 1125.07 92.2333C1125.68 93.5065 1125.17 95.0256 1123.92 95.6261C1123.56 95.8025 1123.17 95.8801 1122.79 95.8694ZM1117.3 129.175C1117.22 129.218 1117.13 129.266 1117.05 129.318L1105.37 114.111C1106.12 113.374 1106.34 112.202 1105.85 111.187C1105.75 110.965 1105.61 110.766 1105.46 110.591L1121.21 95.2589C1121.53 95.5286 1121.9 95.7155 1122.3 95.8066L1118.49 128.934C1118.09 128.915 1117.69 128.991 1117.3 129.175ZM1105.09 110.249L1120.86 94.8984C1120.75 94.7544 1120.65 94.5958 1120.56 94.4239L1091.18 105.111C1091.33 105.566 1091.34 106.038 1091.24 106.48L1101.44 110.933C1101.68 110.527 1102.03 110.187 1102.49 109.969C1103.36 109.548 1104.36 109.689 1105.09 110.249ZM1101.23 111.382L1091.09 106.952C1091.05 107.043 1091 107.132 1090.95 107.218L1116.64 129.64C1116.65 129.634 1116.66 129.628 1116.66 129.622L1104.99 114.421C1104.9 114.479 1104.81 114.532 1104.71 114.579C1103.46 115.18 1101.96 114.635 1101.34 113.361C1101.03 112.714 1101.01 112.003 1101.23 111.382Z" fill="white" fill-opacity="0.65"/>
</g>
<path d="M919 283C919 289.075 914.075 294 908 294C901.925 294 897 289.075 897 283C897 276.925 901.925 272 908 272C914.075 272 919 276.925 919 283Z" fill="white"/>
<mask id="mask0_1_2200" style="mask-type:alpha" maskUnits="userSpaceOnUse" x="897" y="272" width="22" height="22">
<circle cx="908" cy="283" r="11" fill="#C4C4C4"/>
</mask>
<g mask="url(#mask0_1_2200)">
<circle cx="908" cy="283" r="3" fill="#1443BD"/>
<circle cx="908" cy="283" r="3" fill="white" fill-opacity="0.5"/>
<circle cx="908" cy="293.5" r="7.5" fill="#1443BD"/>
<circle cx="908" cy="293.5" r="7.5" fill="white" fill-opacity="0.5"/>
</g>
<g opacity="0.4">
<path d="M356.5 635.075C495 700.233 593.5 721.003 840 721.003L317.5 813.319L-15 682.272C63 586.242 181 552.51 356.5 635.075Z" fill="#B7EE81"/>
<path d="M356.5 635.075C495 700.233 593.5 721.003 840 721.003L317.5 813.319L-15 682.272C63 586.242 181 552.51 356.5 635.075Z" fill="white" fill-opacity="0.85"/>
</g>
<path d="M1445 425.505C1453 359.717 1485 234.505 1512.5 229.73L1460 833.503H-20V571.939C63.6667 631.184 293.823 740.656 520.5 740.656C718.5 740.656 791.5 711.137 855.5 683.356C958.5 638.644 993.5 617.784 1146 683.356C1332.5 763.546 1419.57 634.6 1445 425.505Z" fill="#B7EE81"/>
<path d="M1445 425.505C1453 359.717 1485 234.505 1512.5 229.73L1460 833.503H-20V571.939C63.6667 631.184 293.823 740.656 520.5 740.656C718.5 740.656 791.5 711.137 855.5 683.356C958.5 638.644 993.5 617.784 1146 683.356C1332.5 763.546 1419.57 634.6 1445 425.505Z" fill="white" fill-opacity="0.65"/>
<g opacity="0.6" clip-path="url(#clip1_1_2200)">
<path fill-rule="evenodd" clip-rule="evenodd" d="M60.3957 215.096L46.346 131.353C44.4688 131.458 42.5616 130.749 41.1957 129.252C38.7857 126.61 38.9734 122.515 41.6151 120.105C44.2567 117.695 48.3519 117.883 50.7619 120.524C52.3829 122.301 52.8287 124.736 52.143 126.872L131.15 162.08C131.499 161.365 131.985 160.702 132.609 160.133C135.251 157.723 139.346 157.911 141.756 160.552C144.166 163.194 143.978 167.289 141.336 169.699C138.791 172.021 134.896 171.932 132.459 169.558L67.6563 217.949C69.2515 220.544 68.8327 223.988 66.4993 226.117C63.8576 228.527 59.7624 228.339 57.3524 225.698C54.9424 223.056 55.1301 218.961 57.7718 216.551C58.5475 215.843 59.4487 215.359 60.3957 215.096ZM50.3426 129.671C50.5319 129.499 50.7086 129.317 50.8727 129.128L90.3516 157.383C89.0417 159.747 89.3113 162.779 91.2335 164.886C91.652 165.344 92.1214 165.729 92.6252 166.039L64.7075 215.39C63.7389 214.972 62.6861 214.799 61.6463 214.877L47.6006 131.158C48.5907 130.903 49.5346 130.408 50.3426 129.671ZM93.7692 166.595L65.8175 216.006C66.2002 216.271 66.5599 216.582 66.8888 216.938L131.638 168.587C130.951 167.59 130.576 166.449 130.509 165.297L102.282 162.157C101.977 163.329 101.341 164.428 100.38 165.305C98.5302 166.993 95.967 167.407 93.7692 166.595ZM102.48 160.902L130.56 164.025C130.595 163.772 130.644 163.521 130.709 163.273L51.638 128.037C51.6277 128.056 51.6173 128.074 51.6069 128.093L91.0737 156.339C91.2515 156.129 91.4445 155.929 91.6529 155.739C94.2945 153.329 98.3897 153.517 100.8 156.158C102.025 157.501 102.579 159.22 102.48 160.902Z" fill="#B7EE81"/>
<path fill-rule="evenodd" clip-rule="evenodd" d="M60.3957 215.096L46.346 131.353C44.4688 131.458 42.5616 130.749 41.1957 129.252C38.7857 126.61 38.9734 122.515 41.6151 120.105C44.2567 117.695 48.3519 117.883 50.7619 120.524C52.3829 122.301 52.8287 124.736 52.143 126.872L131.15 162.08C131.499 161.365 131.985 160.702 132.609 160.133C135.251 157.723 139.346 157.911 141.756 160.552C144.166 163.194 143.978 167.289 141.336 169.699C138.791 172.021 134.896 171.932 132.459 169.558L67.6563 217.949C69.2515 220.544 68.8327 223.988 66.4993 226.117C63.8576 228.527 59.7624 228.339 57.3524 225.698C54.9424 223.056 55.1301 218.961 57.7718 216.551C58.5475 215.843 59.4487 215.359 60.3957 215.096ZM50.3426 129.671C50.5319 129.499 50.7086 129.317 50.8727 129.128L90.3516 157.383C89.0417 159.747 89.3113 162.779 91.2335 164.886C91.652 165.344 92.1214 165.729 92.6252 166.039L64.7075 215.39C63.7389 214.972 62.6861 214.799 61.6463 214.877L47.6006 131.158C48.5907 130.903 49.5346 130.408 50.3426 129.671ZM93.7692 166.595L65.8175 216.006C66.2002 216.271 66.5599 216.582 66.8888 216.938L131.638 168.587C130.951 167.59 130.576 166.449 130.509 165.297L102.282 162.157C101.977 163.329 101.341 164.428 100.38 165.305C98.5302 166.993 95.967 167.407 93.7692 166.595ZM102.48 160.902L130.56 164.025C130.595 163.772 130.644 163.521 130.709 163.273L51.638 128.037C51.6277 128.056 51.6173 128.074 51.6069 128.093L91.0737 156.339C91.2515 156.129 91.4445 155.929 91.6529 155.739C94.2945 153.329 98.3897 153.517 100.8 156.158C102.025 157.501 102.579 159.22 102.48 160.902Z" fill="white" fill-opacity="0.65"/>
</g>
<g opacity="0.8">
<path fill-rule="evenodd" clip-rule="evenodd" d="M590.676 435.571L622.939 460.47C623.565 459.82 624.468 459.448 625.437 459.529C627.147 459.673 628.417 461.176 628.273 462.886C628.129 464.597 626.627 465.866 624.916 465.722C623.766 465.626 622.815 464.914 622.36 463.938L583.061 477.315C583.171 477.681 583.216 478.073 583.182 478.476C583.038 480.187 581.535 481.456 579.825 481.312C578.115 481.169 576.845 479.666 576.989 477.955C577.128 476.308 578.529 475.069 580.16 475.109L587.189 436.935C585.781 436.542 584.805 435.193 584.932 433.682C585.076 431.972 586.579 430.702 588.289 430.846C589.999 430.99 591.269 432.493 591.125 434.203C591.083 434.705 590.924 435.169 590.676 435.571ZM622.08 462.365C622.07 462.488 622.067 462.61 622.071 462.73L598.956 465.66C598.646 464.401 597.562 463.421 596.198 463.307C595.901 463.282 595.61 463.299 595.332 463.355L589.062 436.874C589.54 436.705 589.967 436.423 590.307 436.056L622.561 460.948C622.296 461.361 622.124 461.842 622.08 462.365ZM594.748 463.532L588.47 437.019C588.249 437.051 588.021 437.059 587.789 437.041L580.766 475.184C581.333 475.31 581.837 475.59 582.237 475.974L593.198 467.871C592.923 467.359 592.789 466.765 592.841 466.143C592.942 464.945 593.709 463.963 594.748 463.532ZM593.538 468.378L582.634 476.438C582.704 476.538 582.769 476.643 582.827 476.751L622.157 463.363C622.155 463.353 622.153 463.344 622.15 463.334L599.042 466.263C599.048 466.395 599.045 466.529 599.034 466.664C598.89 468.374 597.387 469.644 595.677 469.5C594.808 469.427 594.052 469.002 593.538 468.378Z" fill="#B7EE81"/>
<path fill-rule="evenodd" clip-rule="evenodd" d="M590.676 435.571L622.939 460.47C623.565 459.82 624.468 459.448 625.437 459.529C627.147 459.673 628.417 461.176 628.273 462.886C628.129 464.597 626.627 465.866 624.916 465.722C623.766 465.626 622.815 464.914 622.36 463.938L583.061 477.315C583.171 477.681 583.216 478.073 583.182 478.476C583.038 480.187 581.535 481.456 579.825 481.312C578.115 481.169 576.845 479.666 576.989 477.955C577.128 476.308 578.529 475.069 580.16 475.109L587.189 436.935C585.781 436.542 584.805 435.193 584.932 433.682C585.076 431.972 586.579 430.702 588.289 430.846C589.999 430.99 591.269 432.493 591.125 434.203C591.083 434.705 590.924 435.169 590.676 435.571ZM622.08 462.365C622.07 462.488 622.067 462.61 622.071 462.73L598.956 465.66C598.646 464.401 597.562 463.421 596.198 463.307C595.901 463.282 595.61 463.299 595.332 463.355L589.062 436.874C589.54 436.705 589.967 436.423 590.307 436.056L622.561 460.948C622.296 461.361 622.124 461.842 622.08 462.365ZM594.748 463.532L588.47 437.019C588.249 437.051 588.021 437.059 587.789 437.041L580.766 475.184C581.333 475.31 581.837 475.59 582.237 475.974L593.198 467.871C592.923 467.359 592.789 466.765 592.841 466.143C592.942 464.945 593.709 463.963 594.748 463.532ZM593.538 468.378L582.634 476.438C582.704 476.538 582.769 476.643 582.827 476.751L622.157 463.363C622.155 463.353 622.153 463.344 622.15 463.334L599.042 466.263C599.048 466.395 599.045 466.529 599.034 466.664C598.89 468.374 597.387 469.644 595.677 469.5C594.808 469.427 594.052 469.002 593.538 468.378Z" fill="white" fill-opacity="0.65"/>
</g>
</g>
<defs>
<filter id="filter0_i_1_2200" x="949" y="271" width="30.4615" height="36" filterUnits="userSpaceOnUse" color-interpolation-filters="sRGB">
<feFlood flood-opacity="0" result="BackgroundImageFix"/>
<feBlend mode="normal" in="SourceGraphic" in2="BackgroundImageFix" result="shape"/>
<feColorMatrix in="SourceAlpha" type="matrix" values="0 0 0 0 0 0 0 0 0 0 0 0 0 0 0 0 0 0 127 0" result="hardAlpha"/>
<feOffset dy="-1"/>
<feComposite in2="hardAlpha" operator="arithmetic" k2="-1" k3="1"/>
<feColorMatrix type="matrix" values="0 0 0 0 0 0 0 0 0 0 0 0 0 0 0 0 0 0 0.12 0"/>
<feBlend mode="normal" in2="shape" result="effect1_innerShadow_1_2200"/>
</filter>
<filter id="filter1_i_1_2200" x="993" y="271" width="30.4615" height="36" filterUnits="userSpaceOnUse" color-interpolation-filters="sRGB">
<feFlood flood-opacity="0" result="BackgroundImageFix"/>
<feBlend mode="normal" in="SourceGraphic" in2="BackgroundImageFix" result="shape"/>
<feColorMatrix in="SourceAlpha" type="matrix" values="0 0 0 0 0 0 0 0 0 0 0 0 0 0 0 0 0 0 127 0" result="hardAlpha"/>
<feOffset dy="-1"/>
<feComposite in2="hardAlpha" operator="arithmetic" k2="-1" k3="1"/>
<feColorMatrix type="matrix" values="0 0 0 0 0 0 0 0 0 0 0 0 0 0 0 0 0 0 0.12 0"/>
<feBlend mode="normal" in2="shape" result="effect1_innerShadow_1_2200"/>
</filter>
<filter id="filter2_i_1_2200" x="1037" y="271" width="30.4615" height="36" filterUnits="userSpaceOnUse" color-interpolation-filters="sRGB">
<feFlood flood-opacity="0" result="BackgroundImageFix"/>
<feBlend mode="normal" in="SourceGraphic" in2="BackgroundImageFix" result="shape"/>
<feColorMatrix in="SourceAlpha" type="matrix" values="0 0 0 0 0 0 0 0 0 0 0 0 0 0 0 0 0 0 127 0" result="hardAlpha"/>
<feOffset dy="-1"/>
<feComposite in2="hardAlpha" operator="arithmetic" k2="-1" k3="1"/>
<feColorMatrix type="matrix" values="0 0 0 0 0 0 0 0 0 0 0 0 0 0 0 0 0 0 0.12 0"/>
<feBlend mode="normal" in2="shape" result="effect1_innerShadow_1_2200"/>
</filter>
<filter id="filter3_ddddd_1_2200" x="757.236" y="335.474" width="228.928" height="204.843" filterUnits="userSpaceOnUse" color-interpolation-filters="sRGB">
<feFlood flood-opacity="0" result="BackgroundImageFix"/>
<feColorMatrix in="SourceAlpha" type="matrix" values="0 0 0 0 0 0 0 0 0 0 0 0 0 0 0 0 0 0 127 0" result="hardAlpha"/>
<feOffset dy="6"/>
<feGaussianBlur stdDeviation="4"/>
<feColorMatrix type="matrix" values="0 0 0 0 0.705882 0 0 0 0 0.831373 0 0 0 0 0.921569 0 0 0 0.12 0"/>
<feBlend mode="normal" in2="BackgroundImageFix" result="effect1_dropShadow_1_2200"/>
<feColorMatrix in="SourceAlpha" type="matrix" values="0 0 0 0 0 0 0 0 0 0 0 0 0 0 0 0 0 0 127 0" result="hardAlpha"/>
<feOffset dy="8"/>
<feGaussianBlur stdDeviation="12"/>
<feColorMatrix type="matrix" values="0 0 0 0 0.705882 0 0 0 0 0.831373 0 0 0 0 0.921569 0 0 0 0.08 0"/>
<feBlend mode="normal" in2="effect1_dropShadow_1_2200" result="effect2_dropShadow_1_2200"/>
<feColorMatrix in="SourceAlpha" type="matrix" values="0 0 0 0 0 0 0 0 0 0 0 0 0 0 0 0 0 0 127 0" result="hardAlpha"/>
<feOffset dy="16"/>
<feGaussianBlur stdDeviation="18"/>
<feColorMatrix type="matrix" values="0 0 0 0 0.705882 0 0 0 0 0.831373 0 0 0 0 0.921569 0 0 0 0.04 0"/>
<feBlend mode="normal" in2="effect2_dropShadow_1_2200" result="effect3_dropShadow_1_2200"/>
<feColorMatrix in="SourceAlpha" type="matrix" values="0 0 0 0 0 0 0 0 0 0 0 0 0 0 0 0 0 0 127 0" result="hardAlpha"/>
<feOffset dy="40"/>
<feGaussianBlur stdDeviation="35"/>
<feColorMatrix type="matrix" values="0 0 0 0 0.705882 0 0 0 0 0.831373 0 0 0 0 0.921569 0 0 0 0.04 0"/>
<feBlend mode="normal" in2="effect3_dropShadow_1_2200" result="effect4_dropShadow_1_2200"/>
<feColorMatrix in="SourceAlpha" type="matrix" values="0 0 0 0 0 0 0 0 0 0 0 0 0 0 0 0 0 0 127 0" result="hardAlpha"/>
<feOffset dy="2"/>
<feGaussianBlur stdDeviation="2"/>
<feColorMatrix type="matrix" values="0 0 0 0 0.87451 0 0 0 0 0.929412 0 0 0 0 0.964706 0 0 0 0.4 0"/>
<feBlend mode="normal" in2="effect4_dropShadow_1_2200" result="effect5_dropShadow_1_2200"/>
<feBlend mode="normal" in="SourceGraphic" in2="effect5_dropShadow_1_2200" result="shape"/>
</filter>
<filter id="filter4_ddddd_1_2200" x="1014.89" y="208.632" width="222.399" height="195.157" filterUnits="userSpaceOnUse" color-interpolation-filters="sRGB">
<feFlood flood-opacity="0" result="BackgroundImageFix"/>
<feColorMatrix in="SourceAlpha" type="matrix" values="0 0 0 0 0 0 0 0 0 0 0 0 0 0 0 0 0 0 127 0" result="hardAlpha"/>
<feOffset dy="6"/>
<feGaussianBlur stdDeviation="4"/>
<feColorMatrix type="matrix" values="0 0 0 0 0.705882 0 0 0 0 0.831373 0 0 0 0 0.921569 0 0 0 0.12 0"/>
<feBlend mode="normal" in2="BackgroundImageFix" result="effect1_dropShadow_1_2200"/>
<feColorMatrix in="SourceAlpha" type="matrix" values="0 0 0 0 0 0 0 0 0 0 0 0 0 0 0 0 0 0 127 0" result="hardAlpha"/>
<feOffset dy="8"/>
<feGaussianBlur stdDeviation="12"/>
<feColorMatrix type="matrix" values="0 0 0 0 0.705882 0 0 0 0 0.831373 0 0 0 0 0.921569 0 0 0 0.08 0"/>
<feBlend mode="normal" in2="effect1_dropShadow_1_2200" result="effect2_dropShadow_1_2200"/>
<feColorMatrix in="SourceAlpha" type="matrix" values="0 0 0 0 0 0 0 0 0 0 0 0 0 0 0 0 0 0 127 0" result="hardAlpha"/>
<feOffset dy="16"/>
<feGaussianBlur stdDeviation="18"/>
<feColorMatrix type="matrix" values="0 0 0 0 0.705882 0 0 0 0 0.831373 0 0 0 0 0.921569 0 0 0 0.04 0"/>
<feBlend mode="normal" in2="effect2_dropShadow_1_2200" result="effect3_dropShadow_1_2200"/>
<feColorMatrix in="SourceAlpha" type="matrix" values="0 0 0 0 0 0 0 0 0 0 0 0 0 0 0 0 0 0 127 0" result="hardAlpha"/>
<feOffset dy="40"/>
<feGaussianBlur stdDeviation="35"/>
<feColorMatrix type="matrix" values="0 0 0 0 0.705882 0 0 0 0 0.831373 0 0 0 0 0.921569 0 0 0 0.04 0"/>
<feBlend mode="normal" in2="effect3_dropShadow_1_2200" result="effect4_dropShadow_1_2200"/>
<feColorMatrix in="SourceAlpha" type="matrix" values="0 0 0 0 0 0 0 0 0 0 0 0 0 0 0 0 0 0 127 0" result="hardAlpha"/>
<feOffset dy="2"/>
<feGaussianBlur stdDeviation="2"/>
<feColorMatrix type="matrix" values="0 0 0 0 0.87451 0 0 0 0 0.929412 0 0 0 0 0.964706 0 0 0 0.4 0"/>
<feBlend mode="normal" in2="effect4_dropShadow_1_2200" result="effect5_dropShadow_1_2200"/>
<feBlend mode="normal" in="SourceGraphic" in2="effect5_dropShadow_1_2200" result="shape"/>
</filter>
<clipPath id="clip0_1_2200">
<rect width="1440" height="764" fill="white"/>
</clipPath>
<clipPath id="clip1_1_2200">
<rect width="130" height="130" fill="white" transform="translate(-20 158.617) rotate(-42.3748)"/>
</clipPath>
</defs>
</svg>
