<svg width="1440" height="764" viewBox="0 0 1440 764" fill="none" xmlns="http://www.w3.org/2000/svg">
<g clip-path="url(#clip0_1_2509)">
<rect width="1440" height="764" fill="white"/>
<path d="M798.388 81.0437H505.361C500.339 81.0437 496.268 85.2065 496.268 90.3415V305.222C496.268 310.357 500.339 314.52 505.361 314.52H798.388C803.41 314.52 807.481 310.357 807.481 305.222V90.3415C807.481 85.2065 803.41 81.0437 798.388 81.0437Z" fill="#F2F2F2"/>
<path fill-rule="evenodd" clip-rule="evenodd" d="M590.198 289.283V127.657C590.198 125.9 591.591 124.476 593.309 124.476H784.923C786.641 124.476 788.034 125.9 788.034 127.657V289.88C788.034 291.307 786.872 292.464 785.44 292.464H593.309C591.591 292.464 590.198 291.04 590.198 289.283Z" fill="white"/>
<path fill-rule="evenodd" clip-rule="evenodd" d="M629.672 156.731H618.349C617.473 156.731 616.762 156.024 616.762 155.151C616.762 154.278 617.473 153.571 618.349 153.571H629.672C630.548 153.571 631.258 154.278 631.258 155.151C631.258 156.024 630.548 156.731 629.672 156.731Z" fill="white"/>
<path fill-rule="evenodd" clip-rule="evenodd" d="M629.855 164.315H618.531C617.655 164.315 616.945 163.608 616.945 162.735C616.945 161.862 617.655 161.155 618.531 161.155H629.855C630.731 161.155 631.441 161.862 631.441 162.735C631.441 163.608 630.731 164.315 629.855 164.315Z" fill="white"/>
<path d="M768.821 265.818C769.465 265.818 769.988 266.352 769.988 267.011C769.988 267.648 769.499 268.168 768.885 268.202L768.821 268.204H608.853C608.209 268.204 607.686 267.67 607.686 267.011C607.686 266.374 608.174 265.854 608.789 265.82L608.853 265.818H768.821Z" fill="#2A84C6"/>
<path d="M768.821 265.818C769.465 265.818 769.988 266.352 769.988 267.011C769.988 267.648 769.499 268.168 768.885 268.202L768.821 268.204H608.853C608.209 268.204 607.686 267.67 607.686 267.011C607.686 266.374 608.174 265.854 608.789 265.82L608.853 265.818H768.821Z" fill="white" fill-opacity="0.85"/>
<path d="M743.255 276.734C743.899 276.734 744.422 277.268 744.422 277.927C744.422 278.564 743.934 279.084 743.319 279.118L743.255 279.12H608.853C608.209 279.12 607.686 278.586 607.686 277.927C607.686 277.29 608.174 276.77 608.789 276.736L608.853 276.734H743.255Z" fill="#2A84C6"/>
<path d="M743.255 276.734C743.899 276.734 744.422 277.268 744.422 277.927C744.422 278.564 743.934 279.084 743.319 279.118L743.255 279.12H608.853C608.209 279.12 607.686 278.586 607.686 277.927C607.686 277.29 608.174 276.77 608.789 276.736L608.853 276.734H743.255Z" fill="white" fill-opacity="0.85"/>
<path d="M504.604 70.5249H798.989C803.593 70.5249 807.325 74.257 807.325 78.8608V103.702H496.268V78.8608C496.268 74.257 500 70.5249 504.604 70.5249Z" fill="#1443BD"/>
<path d="M504.604 70.5249H798.989C803.593 70.5249 807.325 74.257 807.325 78.8608V103.702H496.268V78.8608C496.268 74.257 500 70.5249 504.604 70.5249Z" fill="black" fill-opacity="0.5"/>
<path d="M513.791 92.9433C517.077 92.9433 519.741 90.2795 519.741 86.9935C519.741 83.7075 517.077 81.0437 513.791 81.0437C510.505 81.0437 507.841 83.7075 507.841 86.9935C507.841 90.2795 510.505 92.9433 513.791 92.9433Z" fill="#F56D7E"/>
<path d="M536.939 92.9433C540.225 92.9433 542.889 90.2795 542.889 86.9935C542.889 83.7075 540.225 81.0437 536.939 81.0437C533.653 81.0437 530.989 83.7075 530.989 86.9935C530.989 90.2795 533.653 92.9433 536.939 92.9433Z" fill="#B7EE81"/>
<path d="M536.939 92.9433C540.225 92.9433 542.889 90.2795 542.889 86.9935C542.889 83.7075 540.225 81.0437 536.939 81.0437C533.653 81.0437 530.989 83.7075 530.989 86.9935C530.989 90.2795 533.653 92.9433 536.939 92.9433Z" fill="white" fill-opacity="0.2"/>
<path d="M558.801 92.9433C562.087 92.9433 564.751 90.2795 564.751 86.9935C564.751 83.7075 562.087 81.0437 558.801 81.0437C555.515 81.0437 552.852 83.7075 552.852 86.9935C552.852 90.2795 555.515 92.9433 558.801 92.9433Z" fill="#B7EE81"/>
<path d="M558.801 92.9433C562.087 92.9433 564.751 90.2795 564.751 86.9935C564.751 83.7075 562.087 81.0437 558.801 81.0437C555.515 81.0437 552.852 83.7075 552.852 86.9935C552.852 90.2795 555.515 92.9433 558.801 92.9433Z" fill="white" fill-opacity="0.2"/>
<path d="M601.689 205.141L597.862 202.262L601.689 199.389L605.517 202.262L601.689 205.141Z" fill="white"/>
<path d="M575.115 124.437H520.301C518.391 124.437 516.844 126.019 516.844 127.971V289.214C516.844 291.166 518.391 292.748 520.301 292.748H575.115C577.024 292.748 578.572 291.166 578.572 289.214V127.971C578.572 126.019 577.024 124.437 575.115 124.437Z" fill="#1443BD"/>
<path d="M575.115 124.437H520.301C518.391 124.437 516.844 126.019 516.844 127.971V289.214C516.844 291.166 518.391 292.748 520.301 292.748H575.115C577.024 292.748 578.572 291.166 578.572 289.214V127.971C578.572 126.019 577.024 124.437 575.115 124.437Z" fill="white" fill-opacity="0.65"/>
<path d="M563.335 191.498H531.667C530.583 191.498 529.704 192.397 529.704 193.506V198.472C529.704 199.58 530.583 200.479 531.667 200.479H563.335C564.419 200.479 565.298 199.58 565.298 198.472V193.506C565.298 192.397 564.419 191.498 563.335 191.498Z" fill="white"/>
<path d="M563.364 208.593H531.637C530.569 208.593 529.704 209.478 529.704 210.57V215.325C529.704 216.417 530.569 217.302 531.637 217.302H563.364C564.432 217.302 565.298 216.417 565.298 215.325V210.57C565.298 209.478 564.432 208.593 563.364 208.593Z" fill="#2A84C6"/>
<path d="M563.364 208.593H531.637C530.569 208.593 529.704 209.478 529.704 210.57V215.325C529.704 216.417 530.569 217.302 531.637 217.302H563.364C564.432 217.302 565.298 216.417 565.298 215.325V210.57C565.298 209.478 564.432 208.593 563.364 208.593Z" fill="white" fill-opacity="0.85"/>
<path d="M563.364 225.688H531.637C530.569 225.688 529.704 226.573 529.704 227.665V232.419C529.704 233.511 530.569 234.397 531.637 234.397H563.364C564.432 234.397 565.298 233.511 565.298 232.419V227.665C565.298 226.573 564.432 225.688 563.364 225.688Z" fill="#B7EE81"/>
<path d="M563.364 225.688H531.637C530.569 225.688 529.704 226.573 529.704 227.665V232.419C529.704 233.511 530.569 234.397 531.637 234.397H563.364C564.432 234.397 565.298 233.511 565.298 232.419V227.665C565.298 226.573 564.432 225.688 563.364 225.688Z" fill="white" fill-opacity="0.5"/>
<path d="M563.364 242.781H531.637C530.569 242.781 529.704 243.666 529.704 244.758V249.513C529.704 250.605 530.569 251.49 531.637 251.49H563.364C564.432 251.49 565.298 250.605 565.298 249.513V244.758C565.298 243.666 564.432 242.781 563.364 242.781Z" fill="#B7EE81"/>
<path d="M563.364 242.781H531.637C530.569 242.781 529.704 243.666 529.704 244.758V249.513C529.704 250.605 530.569 251.49 531.637 251.49H563.364C564.432 251.49 565.298 250.605 565.298 249.513V244.758C565.298 243.666 564.432 242.781 563.364 242.781Z" fill="white" fill-opacity="0.2"/>
<path fill-rule="evenodd" clip-rule="evenodd" d="M607.888 200.779C606.743 200.779 605.814 199.809 605.814 198.611C605.814 197.413 606.743 196.443 607.888 196.443H645.917C647.062 196.443 647.991 197.413 647.991 198.611C647.991 199.809 647.062 200.779 645.917 200.779H607.888Z" fill="#2A84C6"/>
<path fill-rule="evenodd" clip-rule="evenodd" d="M607.888 200.779C606.743 200.779 605.814 199.809 605.814 198.611C605.814 197.413 606.743 196.443 607.888 196.443H645.917C647.062 196.443 647.991 197.413 647.991 198.611C647.991 199.809 647.062 200.779 645.917 200.779H607.888Z" fill="white" fill-opacity="0.2"/>
<path fill-rule="evenodd" clip-rule="evenodd" d="M619.202 210.679C618.057 210.679 617.129 209.709 617.129 208.511C617.129 207.314 618.057 206.343 619.202 206.343H634.003C635.149 206.343 636.077 207.314 636.077 208.511C636.077 209.709 635.149 210.679 634.003 210.679H619.202Z" fill="#2A84C6"/>
<path fill-rule="evenodd" clip-rule="evenodd" d="M619.202 210.679C618.057 210.679 617.129 209.709 617.129 208.511C617.129 207.314 618.057 206.343 619.202 206.343H634.003C635.149 206.343 636.077 207.314 636.077 208.511C636.077 209.709 635.149 210.679 634.003 210.679H619.202Z" fill="white" fill-opacity="0.85"/>
<g filter="url(#filter0_i_1_2509)">
<rect x="605.814" y="139.871" width="43.0813" height="50.9143" rx="4" fill="white"/>
</g>
<path fill-rule="evenodd" clip-rule="evenodd" d="M638.926 167.014C636.823 164.479 630.306 159.572 633.995 155.691C637.309 152.204 640.127 156.76 644 161.585L638.926 167.014Z" fill="#F56D7E"/>
<path fill-rule="evenodd" clip-rule="evenodd" d="M614.805 167.014C616.908 164.479 623.854 158.992 620.165 155.111C616.851 151.625 613.604 156.76 609.731 161.585L614.805 167.014Z" fill="#F56D7E"/>
<path fill-rule="evenodd" clip-rule="evenodd" d="M619.585 174.486C620.311 177.491 620.451 177.93 620.451 177.93C624.695 178.216 633.88 177.93 633.88 177.93C634.258 176.132 634.652 174.103 634.652 174.103C634.652 174.103 639.243 155.874 637.777 154.836C636.424 153.88 634.02 153.126 630.847 152.6C630.758 152.796 629.869 154.322 626.899 154.358C623.648 154.397 622.949 152.952 622.831 152.699C620.169 153.026 618.49 153.23 616.833 154.25C616.321 154.564 616.669 162.402 619.585 174.486Z" fill="#F56D7E"/>
<path fill-rule="evenodd" clip-rule="evenodd" d="M610.716 254.523C609.571 254.523 608.643 253.552 608.643 252.354C608.643 251.157 609.571 250.186 610.716 250.186H625.518C626.663 250.186 627.591 251.157 627.591 252.354C627.591 253.552 626.663 254.523 625.518 254.523H610.716Z" fill="#2A84C6"/>
<path fill-rule="evenodd" clip-rule="evenodd" d="M610.716 254.523C609.571 254.523 608.643 253.552 608.643 252.354C608.643 251.157 609.571 250.186 610.716 250.186H625.518C626.663 250.186 627.591 251.157 627.591 252.354C627.591 253.552 626.663 254.523 625.518 254.523H610.716Z" fill="white" fill-opacity="0.85"/>
<path fill-rule="evenodd" clip-rule="evenodd" d="M610.219 241.7C608.567 241.7 607.229 240.75 607.229 239.578C607.229 238.407 608.567 237.457 610.219 237.457H665.053C666.704 237.457 668.043 238.407 668.043 239.578C668.043 240.75 666.704 241.7 665.053 241.7H610.219Z" fill="#2A84C6"/>
<path fill-rule="evenodd" clip-rule="evenodd" d="M610.219 241.7C608.567 241.7 607.229 240.75 607.229 239.578C607.229 238.407 608.567 237.457 610.219 237.457H665.053C666.704 237.457 668.043 238.407 668.043 239.578C668.043 240.75 666.704 241.7 665.053 241.7H610.219Z" fill="white" fill-opacity="0.2"/>
<path fill-rule="evenodd" clip-rule="evenodd" d="M638.504 254.429C636.853 254.429 635.514 253.479 635.514 252.307C635.514 251.136 636.853 250.186 638.504 250.186H693.339C694.99 250.186 696.329 251.136 696.329 252.307C696.329 253.479 694.99 254.429 693.339 254.429H638.504Z" fill="#2A84C6"/>
<path fill-rule="evenodd" clip-rule="evenodd" d="M638.504 254.429C636.853 254.429 635.514 253.479 635.514 252.307C635.514 251.136 636.853 250.186 638.504 250.186H693.339C694.99 250.186 696.329 251.136 696.329 252.307C696.329 253.479 694.99 254.429 693.339 254.429H638.504Z" fill="white" fill-opacity="0.85"/>
<path fill-rule="evenodd" clip-rule="evenodd" d="M670.117 200.779C668.971 200.779 668.043 199.809 668.043 198.611C668.043 197.413 668.971 196.443 670.117 196.443H708.146C709.291 196.443 710.219 197.413 710.219 198.611C710.219 199.809 709.291 200.779 708.146 200.779H670.117Z" fill="#2A84C6"/>
<path fill-rule="evenodd" clip-rule="evenodd" d="M670.117 200.779C668.971 200.779 668.043 199.809 668.043 198.611C668.043 197.413 668.971 196.443 670.117 196.443H708.146C709.291 196.443 710.219 197.413 710.219 198.611C710.219 199.809 709.291 200.779 708.146 200.779H670.117Z" fill="white" fill-opacity="0.2"/>
<path fill-rule="evenodd" clip-rule="evenodd" d="M681.431 210.679C680.286 210.679 679.357 209.709 679.357 208.511C679.357 207.314 680.286 206.343 681.431 206.343H696.232C697.377 206.343 698.306 207.314 698.306 208.511C698.306 209.709 697.377 210.679 696.232 210.679H681.431Z" fill="#2A84C6"/>
<path fill-rule="evenodd" clip-rule="evenodd" d="M681.431 210.679C680.286 210.679 679.357 209.709 679.357 208.511C679.357 207.314 680.286 206.343 681.431 206.343H696.232C697.377 206.343 698.306 207.314 698.306 208.511C698.306 209.709 697.377 210.679 696.232 210.679H681.431Z" fill="white" fill-opacity="0.85"/>
<g filter="url(#filter1_i_1_2509)">
<rect x="668.043" y="139.871" width="43.0813" height="50.9143" rx="4" fill="white"/>
</g>
<path fill-rule="evenodd" clip-rule="evenodd" d="M701.155 167.014C699.052 164.479 692.535 159.572 696.224 155.691C699.538 152.204 702.356 156.76 706.229 161.585L701.155 167.014Z" fill="#1443BD"/>
<path fill-rule="evenodd" clip-rule="evenodd" d="M701.155 167.014C699.052 164.479 692.535 159.572 696.224 155.691C699.538 152.204 702.356 156.76 706.229 161.585L701.155 167.014Z" fill="white" fill-opacity="0.65"/>
<path fill-rule="evenodd" clip-rule="evenodd" d="M677.033 167.014C679.137 164.479 686.083 158.992 682.394 155.111C679.08 151.625 675.832 156.76 671.96 161.585L677.033 167.014Z" fill="#1443BD"/>
<path fill-rule="evenodd" clip-rule="evenodd" d="M677.033 167.014C679.137 164.479 686.083 158.992 682.394 155.111C679.08 151.625 675.832 156.76 671.96 161.585L677.033 167.014Z" fill="white" fill-opacity="0.65"/>
<path fill-rule="evenodd" clip-rule="evenodd" d="M681.814 174.486C682.54 177.491 682.679 177.93 682.679 177.93C686.923 178.216 696.109 177.93 696.109 177.93C696.486 176.132 696.881 174.103 696.881 174.103C696.881 174.103 701.472 155.874 700.005 154.836C698.653 153.88 696.248 153.126 693.075 152.6C692.987 152.796 692.098 154.322 689.128 154.358C685.877 154.397 685.178 152.952 685.06 152.699C682.398 153.026 680.718 153.23 679.062 154.25C678.55 154.564 678.897 162.402 681.814 174.486Z" fill="#1443BD"/>
<path fill-rule="evenodd" clip-rule="evenodd" d="M681.814 174.486C682.54 177.491 682.679 177.93 682.679 177.93C686.923 178.216 696.109 177.93 696.109 177.93C696.486 176.132 696.881 174.103 696.881 174.103C696.881 174.103 701.472 155.874 700.005 154.836C698.653 153.88 696.248 153.126 693.075 152.6C692.987 152.796 692.098 154.322 689.128 154.358C685.877 154.397 685.178 152.952 685.06 152.699C682.398 153.026 680.718 153.23 679.062 154.25C678.55 154.564 678.897 162.402 681.814 174.486Z" fill="white" fill-opacity="0.65"/>
<path fill-rule="evenodd" clip-rule="evenodd" d="M732.345 200.779C731.2 200.779 730.272 199.809 730.272 198.611C730.272 197.413 731.2 196.443 732.345 196.443H770.374C771.52 196.443 772.448 197.413 772.448 198.611C772.448 199.809 771.52 200.779 770.374 200.779H732.345Z" fill="#2A84C6"/>
<path fill-rule="evenodd" clip-rule="evenodd" d="M732.345 200.779C731.2 200.779 730.272 199.809 730.272 198.611C730.272 197.413 731.2 196.443 732.345 196.443H770.374C771.52 196.443 772.448 197.413 772.448 198.611C772.448 199.809 771.52 200.779 770.374 200.779H732.345Z" fill="white" fill-opacity="0.2"/>
<path fill-rule="evenodd" clip-rule="evenodd" d="M743.659 210.679C742.514 210.679 741.586 209.709 741.586 208.511C741.586 207.314 742.514 206.343 743.659 206.343H758.461C759.606 206.343 760.534 207.314 760.534 208.511C760.534 209.709 759.606 210.679 758.461 210.679H743.659Z" fill="#2A84C6"/>
<path fill-rule="evenodd" clip-rule="evenodd" d="M743.659 210.679C742.514 210.679 741.586 209.709 741.586 208.511C741.586 207.314 742.514 206.343 743.659 206.343H758.461C759.606 206.343 760.534 207.314 760.534 208.511C760.534 209.709 759.606 210.679 758.461 210.679H743.659Z" fill="white" fill-opacity="0.85"/>
<g filter="url(#filter2_i_1_2509)">
<rect x="730.272" y="139.871" width="43.0813" height="50.9143" rx="4" fill="white"/>
</g>
<path fill-rule="evenodd" clip-rule="evenodd" d="M763.383 167.014C761.28 164.479 754.763 159.572 758.453 155.691C761.767 152.204 764.585 156.76 768.457 161.585L763.383 167.014Z" fill="#B7EE81"/>
<path fill-rule="evenodd" clip-rule="evenodd" d="M763.383 167.014C761.28 164.479 754.763 159.572 758.453 155.691C761.767 152.204 764.585 156.76 768.457 161.585L763.383 167.014Z" fill="white" fill-opacity="0.5"/>
<path fill-rule="evenodd" clip-rule="evenodd" d="M739.262 167.014C741.365 164.479 748.312 158.992 744.622 155.111C741.308 151.625 738.061 156.76 734.188 161.585L739.262 167.014Z" fill="#B7EE81"/>
<path fill-rule="evenodd" clip-rule="evenodd" d="M739.262 167.014C741.365 164.479 748.312 158.992 744.622 155.111C741.308 151.625 738.061 156.76 734.188 161.585L739.262 167.014Z" fill="white" fill-opacity="0.5"/>
<path fill-rule="evenodd" clip-rule="evenodd" d="M744.043 174.486C744.768 177.491 744.908 177.93 744.908 177.93C749.152 178.216 758.337 177.93 758.337 177.93C758.715 176.132 759.11 174.103 759.11 174.103C759.11 174.103 763.7 155.874 762.234 154.836C760.882 153.88 758.477 153.126 755.304 152.6C755.216 152.796 754.326 154.322 751.356 154.358C748.105 154.397 747.406 152.952 747.288 152.699C744.627 153.026 742.947 153.23 741.29 154.25C740.778 154.564 741.126 162.402 744.043 174.486Z" fill="#B7EE81"/>
<path fill-rule="evenodd" clip-rule="evenodd" d="M744.043 174.486C744.768 177.491 744.908 177.93 744.908 177.93C749.152 178.216 758.337 177.93 758.337 177.93C758.715 176.132 759.11 174.103 759.11 174.103C759.11 174.103 763.7 155.874 762.234 154.836C760.882 153.88 758.477 153.126 755.304 152.6C755.216 152.796 754.326 154.322 751.356 154.358C748.105 154.397 747.406 152.952 747.288 152.699C744.627 153.026 742.947 153.23 741.29 154.25C740.778 154.564 741.126 162.402 744.043 174.486Z" fill="white" fill-opacity="0.5"/>
<path fill-rule="evenodd" clip-rule="evenodd" d="M807.501 443.879C816.028 455.95 832.289 459.113 844.554 451.087L955.669 378.395C972.014 367.704 976.206 345.166 964.846 329.085C953.618 313.195 931.721 310.036 916.631 322.129L812.819 405.345C801.215 414.646 798.868 431.659 807.501 443.879Z" fill="#FFC999"/>
<path fill-rule="evenodd" clip-rule="evenodd" d="M889.807 426.703L960.386 380.928C975.29 369.083 975.298 338.7 963.45 323.675C951.601 308.651 930.007 306.482 915.526 318.862L849.366 375.422C849.366 375.422 869.165 416.308 889.807 426.703Z" fill="#1443BD"/>
<path fill-rule="evenodd" clip-rule="evenodd" d="M889.807 426.703L960.386 380.928C975.29 369.083 975.298 338.7 963.45 323.675C951.601 308.651 930.007 306.482 915.526 318.862L849.366 375.422C849.366 375.422 869.165 416.308 889.807 426.703Z" fill="white" fill-opacity="0.5"/>
<path fill-rule="evenodd" clip-rule="evenodd" d="M760.66 282.066C753.525 285.839 750.27 294.466 753.078 302.163L802.45 437.441C808.122 452.975 825.662 460.117 840.224 452.822C854.456 445.69 859.834 427.745 851.952 413.685L781.729 288.414C777.5 280.871 768.213 278.072 760.66 282.066Z" fill="#FFC999"/>
<path fill-rule="evenodd" clip-rule="evenodd" d="M1002.51 312.961L984.636 293.018L990.269 227.383L1040.25 232.143L1040 297.093L1002.51 312.961Z" fill="#FFC999"/>
<path fill-rule="evenodd" clip-rule="evenodd" d="M977.495 220.901C977.495 220.901 970.077 212.557 966.69 217.911C963.304 223.268 968.369 242.948 976.654 243.712C987.722 244.732 977.495 220.901 977.495 220.901Z" fill="#FFC999"/>
<path fill-rule="evenodd" clip-rule="evenodd" d="M1024.31 272.371C1024.31 272.371 1007.62 285.502 986.446 271.305C971.206 261.085 970.35 225.798 974.121 200.037C976.256 185.459 983.09 177.797 997.172 173.908C1011.26 170.019 1049.09 171.069 1048.03 214.131C1046.84 262.094 1024.31 272.371 1024.31 272.371Z" fill="#FFC999"/>
<path d="M998.26 207.587L998.122 207.605C997.754 207.688 997.506 208.028 997.52 208.4L997.538 208.541L999.479 217.543L994.006 241.761C993.908 242.197 994.184 242.618 994.596 242.706L994.724 242.722L1004.81 243.13C1005.23 243.147 1005.59 242.81 1005.61 242.376C1005.62 241.986 1005.36 241.651 1004.99 241.576L1004.87 241.561L995.713 241.189L1001.01 217.722C1001.03 217.646 1001.04 217.568 1001.03 217.491L1001.02 217.376L999.038 208.203C998.957 207.826 998.624 207.573 998.26 207.587Z" fill="#DD936F"/>
<path d="M1012.96 249.418C1012.83 248.827 1012.25 248.456 1011.68 248.589L1011.29 248.666L1011.14 248.694C1010.68 248.777 1010.14 248.86 1009.51 248.938C1005.32 249.464 1000.22 249.478 994.463 248.639C993.876 248.554 993.333 248.97 993.249 249.57C993.166 250.17 993.573 250.725 994.16 250.811C1000.11 251.678 1005.4 251.663 1009.77 251.115L1010.53 251.013C1010.77 250.979 1010.99 250.943 1011.21 250.908L1011.96 250.769C1012.04 250.753 1012.1 250.74 1012.15 250.729C1012.72 250.596 1013.09 250.009 1012.96 249.418Z" fill="#F56D7E"/>
<path fill-rule="evenodd" clip-rule="evenodd" d="M1042.69 232.437L1051.38 216.102C1051.38 216.102 1057.28 192.348 1052.17 181.896C1044.23 165.677 1024.99 165.519 1013.7 160.912C1002.41 156.304 1002.63 152.38 997.981 152.893C993.33 153.404 975.03 165.642 972.628 178.948C970.515 190.646 972.568 220.678 972.568 220.678C972.568 220.678 976.573 194.261 979.276 187.334C988.434 183.747 1021.31 184.559 1034.9 189.301C1034.9 189.301 1035.83 198.365 1036.33 204.744C1043.52 210.339 1042.69 232.437 1042.69 232.437Z" fill="#1443BD"/>
<path fill-rule="evenodd" clip-rule="evenodd" d="M1042.69 232.437L1051.38 216.102C1051.38 216.102 1057.28 192.348 1052.17 181.896C1044.23 165.677 1024.99 165.519 1013.7 160.912C1002.41 156.304 1002.63 152.38 997.981 152.893C993.33 153.404 975.03 165.642 972.628 178.948C970.515 190.646 972.568 220.678 972.568 220.678C972.568 220.678 976.573 194.261 979.276 187.334C988.434 183.747 1021.31 184.559 1034.9 189.301C1034.9 189.301 1035.83 198.365 1036.33 204.744C1043.52 210.339 1042.69 232.437 1042.69 232.437Z" fill="black" fill-opacity="0.5"/>
<path d="M986.182 269.8C985.905 269.471 985.42 269.433 985.099 269.716C984.777 269.998 984.74 270.494 985.017 270.823C985.227 271.073 985.629 271.488 986.228 272.011C987.212 272.871 988.402 273.727 989.801 274.525C997.328 278.817 1007.39 279.725 1020.07 275.181C1020.48 275.037 1020.69 274.589 1020.55 274.18C1020.41 273.771 1019.97 273.555 1019.57 273.699C1007.3 278.094 997.693 277.227 990.549 273.153C989.241 272.408 988.135 271.611 987.226 270.817L986.859 270.487C986.527 270.18 986.302 269.943 986.182 269.8Z" fill="#DD936F"/>
<path d="M994.014 204.845C990.474 203.385 986.886 202.583 983.453 202.806C981.033 202.964 978.793 203.635 976.8 204.891C975.837 205.497 975.538 206.787 976.131 207.772C976.725 208.756 977.986 209.062 978.949 208.456C980.341 207.578 981.934 207.101 983.712 206.985C986.443 206.808 989.461 207.482 992.482 208.728C993.245 209.043 993.962 209.376 994.62 209.711L995.102 209.963C995.563 210.21 995.882 210.397 996.034 210.492C996.998 211.098 998.259 210.791 998.851 209.806C999.444 208.821 999.143 207.531 998.18 206.925L997.744 206.661C996.87 206.15 995.592 205.496 994.014 204.845Z" fill="#1443BD"/>
<path d="M994.014 204.845C990.474 203.385 986.886 202.583 983.453 202.806C981.033 202.964 978.793 203.635 976.8 204.891C975.837 205.497 975.538 206.787 976.131 207.772C976.725 208.756 977.986 209.062 978.949 208.456C980.341 207.578 981.934 207.101 983.712 206.985C986.443 206.808 989.461 207.482 992.482 208.728C993.245 209.043 993.962 209.376 994.62 209.711L995.102 209.963C995.563 210.21 995.882 210.397 996.034 210.492C996.998 211.098 998.259 210.791 998.851 209.806C999.444 208.821 999.143 207.531 998.18 206.925L997.744 206.661C996.87 206.15 995.592 205.496 994.014 204.845Z" fill="black" fill-opacity="0.5"/>
<path d="M1028.37 208.418C1024.83 206.958 1021.25 206.157 1017.81 206.38C1015.39 206.537 1013.15 207.208 1011.16 208.464C1010.2 209.071 1009.9 210.361 1010.49 211.345C1011.09 212.33 1012.35 212.636 1013.31 212.029C1014.7 211.152 1016.29 210.674 1018.07 210.559C1020.8 210.382 1023.82 211.056 1026.84 212.302C1027.61 212.616 1028.32 212.949 1028.98 213.285L1029.46 213.537C1029.92 213.784 1030.24 213.97 1030.4 214.066C1031.36 214.672 1032.62 214.364 1033.21 213.379C1033.8 212.394 1033.5 211.105 1032.54 210.499L1032.1 210.235C1031.23 209.723 1029.95 209.069 1028.37 208.418Z" fill="#1443BD"/>
<path d="M1028.37 208.418C1024.83 206.958 1021.25 206.157 1017.81 206.38C1015.39 206.537 1013.15 207.208 1011.16 208.464C1010.2 209.071 1009.9 210.361 1010.49 211.345C1011.09 212.33 1012.35 212.636 1013.31 212.029C1014.7 211.152 1016.29 210.674 1018.07 210.559C1020.8 210.382 1023.82 211.056 1026.84 212.302C1027.61 212.616 1028.32 212.949 1028.98 213.285L1029.46 213.537C1029.92 213.784 1030.24 213.97 1030.4 214.066C1031.36 214.672 1032.62 214.364 1033.21 213.379C1033.8 212.394 1033.5 211.105 1032.54 210.499L1032.1 210.235C1031.23 209.723 1029.95 209.069 1028.37 208.418Z" fill="black" fill-opacity="0.5"/>
<path d="M998.545 256.569C998.121 256.544 997.758 256.875 997.733 257.308C997.711 257.697 997.971 258.037 998.332 258.12L998.456 258.137L1004.5 258.497C1004.92 258.522 1005.29 258.192 1005.31 257.759C1005.33 257.369 1005.07 257.029 1004.71 256.947L1004.59 256.929L998.545 256.569Z" fill="#DD936F"/>
<path d="M998.595 215.986C997.748 215.925 997.014 216.576 996.954 217.442C996.898 218.249 997.449 218.957 998.211 219.098L998.377 219.119L1005.79 219.657C1006.64 219.718 1007.37 219.067 1007.43 218.201C1007.49 217.394 1006.93 216.686 1006.17 216.545L1006.01 216.524L998.595 215.986Z" fill="#1443BD"/>
<path d="M998.595 215.986C997.748 215.925 997.014 216.576 996.954 217.442C996.898 218.249 997.449 218.957 998.211 219.098L998.377 219.119L1005.79 219.657C1006.64 219.718 1007.37 219.067 1007.43 218.201C1007.49 217.394 1006.93 216.686 1006.17 216.545L1006.01 216.524L998.595 215.986Z" fill="black" fill-opacity="0.5"/>
<path d="M1005.03 221.253C1003.47 220.514 1001.88 220.12 1000.32 220.278C998.994 220.412 997.786 220.944 996.771 221.912C996.151 222.504 996.117 223.497 996.696 224.132C997.275 224.766 998.246 224.8 998.867 224.209C999.374 223.725 999.949 223.472 1000.62 223.404C1001.55 223.31 1002.63 223.579 1003.73 224.101C1004.32 224.379 1004.76 224.654 1004.99 224.817C1005.68 225.321 1006.64 225.156 1007.13 224.45C1007.62 223.744 1007.46 222.763 1006.77 222.259C1006.4 221.992 1005.8 221.621 1005.03 221.253Z" fill="#1443BD"/>
<path d="M1005.03 221.253C1003.47 220.514 1001.88 220.12 1000.32 220.278C998.994 220.412 997.786 220.944 996.771 221.912C996.151 222.504 996.117 223.497 996.696 224.132C997.275 224.766 998.246 224.8 998.867 224.209C999.374 223.725 999.949 223.472 1000.62 223.404C1001.55 223.31 1002.63 223.579 1003.73 224.101C1004.32 224.379 1004.76 224.654 1004.99 224.817C1005.68 225.321 1006.64 225.156 1007.13 224.45C1007.62 223.744 1007.46 222.763 1006.77 222.259C1006.4 221.992 1005.8 221.621 1005.03 221.253Z" fill="black" fill-opacity="0.5"/>
<path d="M1033.46 218.094C1032.61 218.048 1031.89 218.714 1031.85 219.58C1031.8 220.388 1032.37 221.086 1033.13 221.212L1033.3 221.231L1045.46 221.884C1046.31 221.93 1047.03 221.264 1047.08 220.398C1047.12 219.59 1046.56 218.892 1045.79 218.766L1045.62 218.747L1033.46 218.094Z" fill="#1443BD"/>
<path d="M1033.46 218.094C1032.61 218.048 1031.89 218.714 1031.85 219.58C1031.8 220.388 1032.37 221.086 1033.13 221.212L1033.3 221.231L1045.46 221.884C1046.31 221.93 1047.03 221.264 1047.08 220.398C1047.12 219.59 1046.56 218.892 1045.79 218.766L1045.62 218.747L1033.46 218.094Z" fill="black" fill-opacity="0.5"/>
<path fill-rule="evenodd" clip-rule="evenodd" d="M1032.61 217.152L1009.39 215.774C1007.77 215.678 1006.38 216.939 1006.29 218.595C1006.14 221.69 1006.03 226.659 1006.58 230.952C1007.22 236.012 1011.45 239.34 1016.41 239.87C1022.62 240.535 1028.2 240.871 1031.21 237.738C1035.79 232.965 1035.21 224.625 1035.36 220.236C1035.42 218.626 1034.18 217.244 1032.61 217.152Z" fill="white"/>
<path d="M1024.14 229.943C1024.69 230.061 1025.24 229.698 1025.35 229.131C1026.01 225.914 1024.28 222.77 1021.4 222.155C1018.53 221.543 1015.71 223.719 1015.06 226.938C1014.94 227.504 1015.3 228.059 1015.85 228.176C1016.41 228.294 1016.95 227.931 1017.06 227.365C1017.5 225.222 1019.28 223.844 1020.98 224.206C1022.69 224.57 1023.78 226.562 1023.35 228.705C1023.23 229.271 1023.59 229.826 1024.14 229.943Z" fill="#1443BD"/>
<path d="M1024.14 229.943C1024.69 230.061 1025.24 229.698 1025.35 229.131C1026.01 225.914 1024.28 222.77 1021.4 222.155C1018.53 221.543 1015.71 223.719 1015.06 226.938C1014.94 227.504 1015.3 228.059 1015.85 228.176C1016.41 228.294 1016.95 227.931 1017.06 227.365C1017.5 225.222 1019.28 223.844 1020.98 224.206C1022.69 224.57 1023.78 226.562 1023.35 228.705C1023.23 229.271 1023.59 229.826 1024.14 229.943Z" fill="black" fill-opacity="0.5"/>
<path fill-rule="evenodd" clip-rule="evenodd" d="M996.408 214.739L970.12 213.179C968.923 217.049 969 232.294 973.327 235.817C979.188 239.412 991.474 238.736 993.557 235.551C996.719 230.719 998.328 221.238 998.51 217.128C998.566 215.875 997.633 214.811 996.408 214.739Z" fill="white"/>
<path d="M992.04 227.232C992.606 227.242 993.073 226.782 993.082 226.203C993.138 222.916 990.863 220.157 987.926 220.107C984.99 220.057 982.624 222.735 982.571 226.021C982.561 226.599 983.012 227.076 983.578 227.086C984.144 227.095 984.61 226.634 984.619 226.056C984.655 223.868 986.153 222.172 987.892 222.202C989.63 222.231 991.071 223.978 991.034 226.167C991.024 226.745 991.475 227.222 992.04 227.232Z" fill="#1443BD"/>
<path d="M992.04 227.232C992.606 227.242 993.073 226.782 993.082 226.203C993.138 222.916 990.863 220.157 987.926 220.107C984.99 220.057 982.624 222.735 982.571 226.021C982.561 226.599 983.012 227.076 983.578 227.086C984.144 227.095 984.61 226.634 984.619 226.056C984.655 223.868 986.153 222.172 987.892 222.202C989.63 222.231 991.071 223.978 991.034 226.167C991.024 226.745 991.475 227.222 992.04 227.232Z" fill="black" fill-opacity="0.5"/>
<path d="M1006.34 214.959C1005.49 214.931 1004.78 215.612 1004.76 216.479C1004.73 217.288 1005.31 217.973 1006.08 218.084L1006.24 218.098L1035.07 219.035C1035.92 219.063 1036.63 218.382 1036.65 217.515C1036.68 216.706 1036.1 216.02 1035.33 215.91L1035.17 215.895L1006.34 214.959Z" fill="#1443BD"/>
<path d="M1006.34 214.959C1005.49 214.931 1004.78 215.612 1004.76 216.479C1004.73 217.288 1005.31 217.973 1006.08 218.084L1006.24 218.098L1035.07 219.035C1035.92 219.063 1036.63 218.382 1036.65 217.515C1036.68 216.706 1036.1 216.02 1035.33 215.91L1035.17 215.895L1006.34 214.959Z" fill="black" fill-opacity="0.5"/>
<path d="M969.981 212.192C969.135 212.13 968.4 212.78 968.339 213.646C968.282 214.453 968.832 215.162 969.594 215.304L969.76 215.325L997.943 217.405C998.789 217.467 999.524 216.816 999.585 215.951C999.642 215.144 999.092 214.435 998.33 214.293L998.164 214.272L969.981 212.192Z" fill="#1443BD"/>
<path d="M969.981 212.192C969.135 212.13 968.4 212.78 968.339 213.646C968.282 214.453 968.832 215.162 969.594 215.304L969.76 215.325L997.943 217.405C998.789 217.467 999.524 216.816 999.585 215.951C999.642 215.144 999.092 214.435 998.33 214.293L998.164 214.272L969.981 212.192Z" fill="black" fill-opacity="0.5"/>
<path d="M1009.42 215.252L1032.64 216.63C1034.49 216.738 1035.94 218.362 1035.88 220.256L1035.85 221.29L1035.82 223.165C1035.78 225.95 1035.68 227.506 1035.38 229.421C1034.81 233.063 1033.62 235.969 1031.57 238.105C1028.84 240.948 1024.84 241.3 1016.36 240.391C1010.94 239.812 1006.72 236.137 1006.07 231.019C1005.6 227.373 1005.56 223.05 1005.78 218.569C1005.88 216.624 1007.51 215.139 1009.42 215.252ZM1009.36 216.297C1008.09 216.221 1006.99 217.153 1006.82 218.41L1006.8 218.622C1006.59 223.046 1006.63 227.313 1007.08 230.884C1007.67 235.49 1011.49 238.819 1016.47 239.35L1017.58 239.464C1024.97 240.189 1028.53 239.772 1030.84 237.372C1032.72 235.413 1033.83 232.702 1034.37 229.256L1034.47 228.573C1034.68 227 1034.76 225.535 1034.8 223.135L1034.85 220.374C1034.85 220.322 1034.85 220.27 1034.85 220.217C1034.9 218.894 1033.88 217.751 1032.58 217.675L1009.36 216.297Z" fill="#1443BD"/>
<path d="M1009.42 215.252L1032.64 216.63C1034.49 216.738 1035.94 218.362 1035.88 220.256L1035.85 221.29L1035.82 223.165C1035.78 225.95 1035.68 227.506 1035.38 229.421C1034.81 233.063 1033.62 235.969 1031.57 238.105C1028.84 240.948 1024.84 241.3 1016.36 240.391C1010.94 239.812 1006.72 236.137 1006.07 231.019C1005.6 227.373 1005.56 223.05 1005.78 218.569C1005.88 216.624 1007.51 215.139 1009.42 215.252ZM1009.36 216.297C1008.09 216.221 1006.99 217.153 1006.82 218.41L1006.8 218.622C1006.59 223.046 1006.63 227.313 1007.08 230.884C1007.67 235.49 1011.49 238.819 1016.47 239.35L1017.58 239.464C1024.97 240.189 1028.53 239.772 1030.84 237.372C1032.72 235.413 1033.83 232.702 1034.37 229.256L1034.47 228.573C1034.68 227 1034.76 225.535 1034.8 223.135L1034.85 220.374C1034.85 220.322 1034.85 220.27 1034.85 220.217C1034.9 218.894 1033.88 217.751 1032.58 217.675L1009.36 216.297Z" fill="black" fill-opacity="0.5"/>
<path d="M970.15 212.657L996.438 214.217C997.941 214.306 999.09 215.612 999.022 217.152C998.763 222.975 996.722 231.656 993.982 235.842C991.612 239.466 978.882 239.835 973.064 236.266C969.144 233.08 967.892 218.646 969.632 213.022C969.703 212.794 969.916 212.644 970.15 212.657ZM970.499 213.726L970.433 213.982C969.078 219.655 970.328 232.707 973.646 235.408C978.995 238.684 991.122 238.333 993.132 235.261C995.748 231.263 997.749 222.755 997.999 217.104C998.042 216.136 997.322 215.317 996.379 215.262L970.499 213.726Z" fill="#1443BD"/>
<path d="M970.15 212.657L996.438 214.217C997.941 214.306 999.09 215.612 999.022 217.152C998.763 222.975 996.722 231.656 993.982 235.842C991.612 239.466 978.882 239.835 973.064 236.266C969.144 233.08 967.892 218.646 969.632 213.022C969.703 212.794 969.916 212.644 970.15 212.657ZM970.499 213.726L970.433 213.982C969.078 219.655 970.328 232.707 973.646 235.408C978.995 238.684 991.122 238.333 993.132 235.261C995.748 231.263 997.749 222.755 997.999 217.104C998.042 216.136 997.322 215.317 996.379 215.262L970.499 213.726Z" fill="black" fill-opacity="0.5"/>
<path fill-rule="evenodd" clip-rule="evenodd" d="M1046.77 219.147C1049.8 216.072 1054.42 215.293 1057.62 218.965C1062.77 224.881 1057.51 246.422 1043.32 247.062C1037.95 246.2 1042.04 223.945 1046.77 219.147Z" fill="#FFC999"/>
<path fill-rule="evenodd" clip-rule="evenodd" d="M1061.35 488.799C1061.35 488.799 1074.08 423.649 1079.71 399.581C1085.34 375.512 1093.9 317.887 1084.18 313.573C1074.45 309.258 1051.16 300.096 1051.16 300.096C1051.16 300.096 1028.06 303.129 1007.2 307.672C990.68 311.27 995.369 295.412 975.343 298.795C966.863 300.229 940.246 304.518 926.958 311.93C921.63 314.902 922.49 332.95 921.733 350.494C919.317 406.491 932.68 492.286 932.68 492.286C932.68 492.286 924.755 500.613 934.362 511.412C939.122 516.468 959.732 514.755 986.115 514.821C1016.15 514.895 1051.47 518.751 1058.03 512.912C1070.34 501.945 1061.35 488.799 1061.35 488.799Z" fill="#1443BD"/>
<path fill-rule="evenodd" clip-rule="evenodd" d="M1061.35 488.799C1061.35 488.799 1074.08 423.649 1079.71 399.581C1085.34 375.512 1093.9 317.887 1084.18 313.573C1074.45 309.258 1051.16 300.096 1051.16 300.096C1051.16 300.096 1028.06 303.129 1007.2 307.672C990.68 311.27 995.369 295.412 975.343 298.795C966.863 300.229 940.246 304.518 926.958 311.93C921.63 314.902 922.49 332.95 921.733 350.494C919.317 406.491 932.68 492.286 932.68 492.286C932.68 492.286 924.755 500.613 934.362 511.412C939.122 516.468 959.732 514.755 986.115 514.821C1016.15 514.895 1051.47 518.751 1058.03 512.912C1070.34 501.945 1061.35 488.799 1061.35 488.799Z" fill="white" fill-opacity="0.5"/>
<path fill-rule="evenodd" clip-rule="evenodd" d="M983.842 290.38L1003.97 310.143L979.815 327.437L969.346 301.084L983.842 290.38Z" fill="#1443BD"/>
<path fill-rule="evenodd" clip-rule="evenodd" d="M983.842 290.38L1003.97 310.143L979.815 327.437L969.346 301.084L983.842 290.38Z" fill="white" fill-opacity="0.5"/>
<path fill-rule="evenodd" clip-rule="evenodd" d="M1038.89 1034.15L996.565 624.503L994.879 623.654L950.454 1035.09C950.454 1035.09 917.331 1042.94 899.828 1032.2C899.146 952.421 917.516 693.285 925.29 574.944C926.541 555.891 932.269 529.994 933.412 522.795C986.592 513.606 1058.64 526.857 1058.64 526.857L1061.75 536.41C1062.35 538.268 1062.72 540.201 1062.84 542.155L1096.23 1030.1C1096.23 1030.1 1063.5 1042.22 1038.89 1034.15Z" fill="#2A84C6"/>
<path fill-rule="evenodd" clip-rule="evenodd" d="M1038.89 1034.15L996.565 624.503L994.879 623.654L950.454 1035.09C950.454 1035.09 917.331 1042.94 899.828 1032.2C899.146 952.421 917.516 693.285 925.29 574.944C926.541 555.891 932.269 529.994 933.412 522.795C986.592 513.606 1058.64 526.857 1058.64 526.857L1061.75 536.41C1062.35 538.268 1062.72 540.201 1062.84 542.155L1096.23 1030.1C1096.23 1030.1 1063.5 1042.22 1038.89 1034.15Z" fill="white" fill-opacity="0.85"/>
<path d="M967.767 607.795C967.385 607.605 966.926 607.766 966.739 608.156C966.574 608.502 966.68 608.912 966.974 609.133L967.092 609.206L999.143 625.221C999.524 625.411 999.984 625.25 1000.17 624.86C1000.34 624.514 1000.23 624.104 999.936 623.883L999.817 623.81L967.767 607.795Z" fill="#1443BD"/>
<path d="M967.767 607.795C967.385 607.605 966.926 607.766 966.739 608.156C966.574 608.502 966.68 608.912 966.974 609.133L967.092 609.206L999.143 625.221C999.524 625.411 999.984 625.25 1000.17 624.86C1000.34 624.514 1000.23 624.104 999.936 623.883L999.817 623.81L967.767 607.795Z" fill="white" fill-opacity="0.5"/>
<path fill-rule="evenodd" clip-rule="evenodd" d="M1058.35 512.741C1058.35 512.741 990.632 502.508 934.342 512.59C933.879 517.692 933.396 523.974 933.396 523.974C933.396 523.974 981.562 527.365 1059.44 529.329C1059.22 515.481 1058.35 512.741 1058.35 512.741Z" fill="#2A84C6"/>
<path fill-rule="evenodd" clip-rule="evenodd" d="M1058.35 512.741C1058.35 512.741 990.632 502.508 934.342 512.59C933.879 517.692 933.396 523.974 933.396 523.974C933.396 523.974 981.562 527.365 1059.44 529.329C1059.22 515.481 1058.35 512.741 1058.35 512.741Z" fill="white" fill-opacity="0.85"/>
<path d="M1036.41 527.368C1011.74 525.316 986.425 524.527 962.78 525.733C952.842 526.241 943.467 527.097 934.747 528.332C934.327 528.392 934.033 528.788 934.091 529.218C934.15 529.647 934.537 529.947 934.957 529.888C943.631 528.659 952.962 527.807 962.856 527.302C986.426 526.099 1011.68 526.887 1036.29 528.933L1040.19 529.27C1044.02 529.611 1047.59 529.965 1050.88 530.32L1054.56 530.733L1057.19 531.049C1057.44 531.08 1057.63 531.105 1057.76 531.122C1058.18 531.177 1058.57 530.873 1058.62 530.443C1058.67 530.013 1058.38 529.619 1057.96 529.564L1056.44 529.375C1055.38 529.246 1054.17 529.105 1052.82 528.953L1049.93 528.64C1045.82 528.205 1041.29 527.774 1036.41 527.368Z" fill="#1443BD"/>
<path d="M1036.41 527.368C1011.74 525.316 986.425 524.527 962.78 525.733C952.842 526.241 943.467 527.097 934.747 528.332C934.327 528.392 934.033 528.788 934.091 529.218C934.15 529.647 934.537 529.947 934.957 529.888C943.631 528.659 952.962 527.807 962.856 527.302C986.426 526.099 1011.68 526.887 1036.29 528.933L1040.19 529.27C1044.02 529.611 1047.59 529.965 1050.88 530.32L1054.56 530.733L1057.19 531.049C1057.44 531.08 1057.63 531.105 1057.76 531.122C1058.18 531.177 1058.57 530.873 1058.62 530.443C1058.67 530.013 1058.38 529.619 1057.96 529.564L1056.44 529.375C1055.38 529.246 1054.17 529.105 1052.82 528.953L1049.93 528.64C1045.82 528.205 1041.29 527.774 1036.41 527.368Z" fill="white" fill-opacity="0.5"/>
<path d="M1036.68 510.076C1012.02 508.024 986.696 507.235 963.051 508.441C953.113 508.949 943.738 509.805 935.018 511.04C934.598 511.1 934.304 511.496 934.362 511.926C934.421 512.355 934.808 512.655 935.229 512.596C943.902 511.367 953.233 510.515 963.127 510.01C986.697 508.807 1011.95 509.595 1036.56 511.641L1039.18 511.865C1043.06 512.203 1046.69 512.555 1050.04 512.91L1054.22 513.37L1058.03 513.829C1058.45 513.885 1058.84 513.581 1058.89 513.151C1058.95 512.721 1058.65 512.327 1058.23 512.272L1056.71 512.082C1055.83 511.975 1054.84 511.859 1053.75 511.736L1050.2 511.348C1046.09 510.913 1041.57 510.482 1036.68 510.076Z" fill="#1443BD"/>
<path d="M1036.68 510.076C1012.02 508.024 986.696 507.235 963.051 508.441C953.113 508.949 943.738 509.805 935.018 511.04C934.598 511.1 934.304 511.496 934.362 511.926C934.421 512.355 934.808 512.655 935.229 512.596C943.902 511.367 953.233 510.515 963.127 510.01C986.697 508.807 1011.95 509.595 1036.56 511.641L1039.18 511.865C1043.06 512.203 1046.69 512.555 1050.04 512.91L1054.22 513.37L1058.03 513.829C1058.45 513.885 1058.84 513.581 1058.89 513.151C1058.95 512.721 1058.65 512.327 1058.23 512.272L1056.71 512.082C1055.83 511.975 1054.84 511.859 1053.75 511.736L1050.2 511.348C1046.09 510.913 1041.57 510.482 1036.68 510.076Z" fill="white" fill-opacity="0.5"/>
<path d="M990.502 511.154C990.078 511.143 989.726 511.486 989.715 511.92L989.631 516.017C989.598 517.776 989.565 519.714 989.535 521.812C989.28 539.201 989.264 557.649 989.646 574.934L989.74 578.866C990.156 594.826 990.91 608.207 992.059 618.242C992.108 618.672 992.49 618.981 992.911 618.93C993.332 618.88 993.634 618.49 993.584 618.059L993.403 616.411C992.273 605.791 991.552 591.671 991.181 574.899C990.83 558.964 990.816 542.035 991.016 525.862L991.084 520.947L991.251 511.959C991.261 511.525 990.926 511.165 990.502 511.154Z" fill="#1443BD"/>
<path d="M990.502 511.154C990.078 511.143 989.726 511.486 989.715 511.92L989.631 516.017C989.598 517.776 989.565 519.714 989.535 521.812C989.28 539.201 989.264 557.649 989.646 574.934L989.74 578.866C990.156 594.826 990.91 608.207 992.059 618.242C992.108 618.672 992.49 618.981 992.911 618.93C993.332 618.88 993.634 618.49 993.584 618.059L993.403 616.411C992.273 605.791 991.552 591.671 991.181 574.899C990.83 558.964 990.816 542.035 991.016 525.862L991.084 520.947L991.251 511.959C991.261 511.525 990.926 511.165 990.502 511.154Z" fill="white" fill-opacity="0.5"/>
<path fill-rule="evenodd" clip-rule="evenodd" d="M977.335 516.835C977.305 518.787 978.484 520.391 979.971 520.417C981.456 520.441 982.685 518.877 982.715 516.923C982.745 514.971 981.567 513.367 980.081 513.341C978.594 513.317 977.365 514.881 977.335 516.835Z" fill="white"/>
<path fill-rule="evenodd" clip-rule="evenodd" d="M1003.87 308.533L1022.5 333.605L1050.35 300.149L1040.15 287.115L1003.87 308.533Z" fill="#1443BD"/>
<path fill-rule="evenodd" clip-rule="evenodd" d="M1003.87 308.533L1022.5 333.605L1050.35 300.149L1040.15 287.115L1003.87 308.533Z" fill="white" fill-opacity="0.5"/>
<path d="M1003.03 309.889C1002.5 309.689 1001.91 309.967 1001.72 310.51L1001.52 311.095L1001.33 311.721C1001.26 311.948 1001.19 312.193 1001.12 312.456L1001 312.865C1000.54 314.559 1000.03 316.642 999.479 319.144L999.178 320.55C997.35 329.241 995.525 340.731 993.815 355.383L993.36 359.381C991.524 375.947 989.947 395.407 988.702 417.992L988.6 419.881C986.745 454.306 987.174 483.838 988.79 505.913C988.832 506.49 989.323 506.923 989.888 506.88C990.452 506.837 990.875 506.334 990.833 505.757L990.673 503.495C989.223 482.148 988.87 454.164 990.553 421.738L990.645 419.996C991.903 396.645 993.513 376.603 995.396 359.619L995.704 356.891C997.448 341.697 999.315 329.862 1001.18 320.99L1001.48 319.604C1001.97 317.362 1002.43 315.466 1002.85 313.895L1002.98 313.434C1003.13 312.889 1003.26 312.42 1003.38 312.022L1003.59 311.366C1003.61 311.307 1003.63 311.263 1003.64 311.234C1003.83 310.691 1003.56 310.089 1003.03 309.889Z" fill="#1443BD"/>
<path d="M1003.03 309.889C1002.5 309.689 1001.91 309.967 1001.72 310.51L1001.52 311.095L1001.33 311.721C1001.26 311.948 1001.19 312.193 1001.12 312.456L1001 312.865C1000.54 314.559 1000.03 316.642 999.479 319.144L999.178 320.55C997.35 329.241 995.525 340.731 993.815 355.383L993.36 359.381C991.524 375.947 989.947 395.407 988.702 417.992L988.6 419.881C986.745 454.306 987.174 483.838 988.79 505.913C988.832 506.49 989.323 506.923 989.888 506.88C990.452 506.837 990.875 506.334 990.833 505.757L990.673 503.495C989.223 482.148 988.87 454.164 990.553 421.738L990.645 419.996C991.903 396.645 993.513 376.603 995.396 359.619L995.704 356.891C997.448 341.697 999.315 329.862 1001.18 320.99L1001.48 319.604C1001.97 317.362 1002.43 315.466 1002.85 313.895L1002.98 313.434C1003.13 312.889 1003.26 312.42 1003.38 312.022L1003.59 311.366C1003.61 311.307 1003.63 311.263 1003.64 311.234C1003.83 310.691 1003.56 310.089 1003.03 309.889Z" fill="black" fill-opacity="0.5"/>
<path d="M921.585 346.396C921.085 345.969 920.381 346.045 919.974 346.551C919.801 346.766 919.708 347.008 919.634 347.322C919.55 347.681 919.488 348.183 919.444 348.842L919.423 349.185C919.348 350.569 919.335 352.582 919.386 355.16L919.415 356.39C919.583 362.927 920.1 372.293 920.933 383.54L921.244 387.64C923.323 414.436 926.794 447.699 931.455 483.838L931.953 487.663L931.762 488.163L931.597 488.616C931.257 489.567 930.918 490.62 930.601 491.745C929.831 494.477 929.317 497.19 929.179 499.744C928.949 504.011 929.786 507.484 932.007 509.828C932.401 510.244 933.049 510.254 933.456 509.852C933.862 509.45 933.872 508.786 933.479 508.371C931.728 506.522 931.023 503.599 931.225 499.86C931.353 497.482 931.839 494.917 932.569 492.325C932.812 491.464 933.068 490.648 933.327 489.891L933.676 488.91C933.795 488.589 933.887 488.352 933.946 488.21C934.017 488.038 934.042 487.849 934.018 487.664L933.223 481.524C928.612 445.53 925.194 412.481 923.17 385.968L922.896 382.304C922.165 372.284 921.691 363.825 921.499 357.628L921.436 355.199C921.388 352.815 921.394 350.926 921.454 349.598L921.469 349.301C921.492 348.873 921.521 348.518 921.555 348.245L921.591 347.993L921.607 347.983L921.712 347.872C922.075 347.428 922.018 346.768 921.585 346.396Z" fill="#1443BD"/>
<path d="M921.585 346.396C921.085 345.969 920.381 346.045 919.974 346.551C919.801 346.766 919.708 347.008 919.634 347.322C919.55 347.681 919.488 348.183 919.444 348.842L919.423 349.185C919.348 350.569 919.335 352.582 919.386 355.16L919.415 356.39C919.583 362.927 920.1 372.293 920.933 383.54L921.244 387.64C923.323 414.436 926.794 447.699 931.455 483.838L931.953 487.663L931.762 488.163L931.597 488.616C931.257 489.567 930.918 490.62 930.601 491.745C929.831 494.477 929.317 497.19 929.179 499.744C928.949 504.011 929.786 507.484 932.007 509.828C932.401 510.244 933.049 510.254 933.456 509.852C933.862 509.45 933.872 508.786 933.479 508.371C931.728 506.522 931.023 503.599 931.225 499.86C931.353 497.482 931.839 494.917 932.569 492.325C932.812 491.464 933.068 490.648 933.327 489.891L933.676 488.91C933.795 488.589 933.887 488.352 933.946 488.21C934.017 488.038 934.042 487.849 934.018 487.664L933.223 481.524C928.612 445.53 925.194 412.481 923.17 385.968L922.896 382.304C922.165 372.284 921.691 363.825 921.499 357.628L921.436 355.199C921.388 352.815 921.394 350.926 921.454 349.598L921.469 349.301C921.492 348.873 921.521 348.518 921.555 348.245L921.591 347.993L921.607 347.983L921.712 347.872C922.075 347.428 922.018 346.768 921.585 346.396Z" fill="black" fill-opacity="0.5"/>
<path d="M973.793 341.862L975.2 341.986C975.655 342.028 976.096 342.071 976.521 342.114L978.598 342.34L979.233 342.418C979.795 342.492 980.204 342.999 980.167 343.577L977.687 382.653C977.664 383.024 977.458 383.357 977.14 383.539L956.439 395.382C956.083 395.585 955.646 395.565 955.31 395.33L939.319 384.167C939.027 383.963 938.852 383.626 938.851 383.264L938.866 376.152L938.89 371.617C938.941 363.759 939.035 355.014 939.184 345.535C939.191 345.112 939.434 344.732 939.81 344.555C943.847 342.663 949.68 341.669 956.867 341.389C962.296 341.177 968.102 341.386 973.793 341.862ZM956.184 343.613C950.113 343.898 945.116 344.727 941.562 346.175L941.319 346.276L941.184 355.908C941.123 360.915 941.077 365.671 941.046 370.149L941.002 378.623L940.997 382.681L955.971 393.134L975.585 381.915L977.962 344.473L977.519 344.424C976.357 344.296 975.047 344.168 973.618 344.048C968.006 343.578 962.281 343.373 956.949 343.581L956.184 343.613Z" fill="#1443BD"/>
<path d="M973.793 341.862L975.2 341.986C975.655 342.028 976.096 342.071 976.521 342.114L978.598 342.34L979.233 342.418C979.795 342.492 980.204 342.999 980.167 343.577L977.687 382.653C977.664 383.024 977.458 383.357 977.14 383.539L956.439 395.382C956.083 395.585 955.646 395.565 955.31 395.33L939.319 384.167C939.027 383.963 938.852 383.626 938.851 383.264L938.866 376.152L938.89 371.617C938.941 363.759 939.035 355.014 939.184 345.535C939.191 345.112 939.434 344.732 939.81 344.555C943.847 342.663 949.68 341.669 956.867 341.389C962.296 341.177 968.102 341.386 973.793 341.862ZM956.184 343.613C950.113 343.898 945.116 344.727 941.562 346.175L941.319 346.276L941.184 355.908C941.123 360.915 941.077 365.671 941.046 370.149L941.002 378.623L940.997 382.681L955.971 393.134L975.585 381.915L977.962 344.473L977.519 344.424C976.357 344.296 975.047 344.168 973.618 344.048C968.006 343.578 962.281 343.373 956.949 343.581L956.184 343.613Z" fill="black" fill-opacity="0.5"/>
<path fill-rule="evenodd" clip-rule="evenodd" d="M1002.42 327.379C1002.39 329.333 1003.65 330.937 1005.24 330.963C1006.84 330.989 1008.15 329.427 1008.18 327.473C1008.21 325.521 1006.95 323.915 1005.36 323.889C1003.76 323.862 1002.45 325.424 1002.42 327.379Z" fill="white"/>
<path fill-rule="evenodd" clip-rule="evenodd" d="M997.817 363.271C997.787 365.224 999.053 366.829 1000.64 366.856C1002.24 366.882 1003.55 365.32 1003.58 363.366C1003.61 361.414 1002.35 359.808 1000.76 359.782C999.162 359.755 997.847 361.317 997.817 363.271Z" fill="white"/>
<path fill-rule="evenodd" clip-rule="evenodd" d="M994.9 402.14C994.87 404.095 996.136 405.698 997.727 405.724C999.319 405.751 1000.63 404.189 1000.67 402.234C1000.7 400.282 999.431 398.677 997.839 398.65C996.245 398.624 994.93 400.188 994.9 402.14Z" fill="white"/>
<path fill-rule="evenodd" clip-rule="evenodd" d="M993.748 438.681C993.718 440.633 994.983 442.239 996.575 442.265C998.167 442.291 999.482 440.729 999.514 438.775C999.544 436.823 998.279 435.217 996.687 435.191C995.095 435.164 993.78 436.726 993.748 438.681Z" fill="white"/>
<path fill-rule="evenodd" clip-rule="evenodd" d="M993.566 487.028C993.536 488.983 994.802 490.586 996.393 490.613C997.985 490.639 999.3 489.077 999.332 487.123C999.363 485.17 998.097 483.565 996.505 483.538C994.911 483.512 993.596 485.074 993.566 487.028Z" fill="white"/>
<path d="M1050.65 300.373C1050.26 300.033 1049.69 300.047 1049.31 300.384L1049.2 300.495L1023.08 332L1004.42 309.812C1004.09 309.413 1003.52 309.335 1003.1 309.608L1002.98 309.7C1002.59 310.043 1002.51 310.621 1002.78 311.052L1002.87 311.177L1022.3 334.297C1022.68 334.745 1023.33 334.78 1023.75 334.404L1023.86 334.292L1050.77 301.849C1051.13 301.408 1051.08 300.747 1050.65 300.373Z" fill="#1443BD"/>
<path d="M1050.65 300.373C1050.26 300.033 1049.69 300.047 1049.31 300.384L1049.2 300.495L1023.08 332L1004.42 309.812C1004.09 309.413 1003.52 309.335 1003.1 309.608L1002.98 309.7C1002.59 310.043 1002.51 310.621 1002.78 311.052L1002.87 311.177L1022.3 334.297C1022.68 334.745 1023.33 334.78 1023.75 334.404L1023.86 334.292L1050.77 301.849C1051.13 301.408 1051.08 300.747 1050.65 300.373Z" fill="black" fill-opacity="0.5"/>
<path d="M972.649 301.792C972.478 301.241 971.902 300.936 971.363 301.112C970.868 301.273 970.577 301.781 970.664 302.289L970.697 302.428L978.839 328.579C979.04 329.225 979.77 329.497 980.324 329.17L980.44 329.091L1003.51 310.92C1003.95 310.567 1004.04 309.909 1003.69 309.451C1003.38 309.034 1002.82 308.926 1002.38 309.175L1002.26 309.26L980.348 326.519L972.649 301.792Z" fill="#1443BD"/>
<path d="M972.649 301.792C972.478 301.241 971.902 300.936 971.363 301.112C970.868 301.273 970.577 301.781 970.664 302.289L970.697 302.428L978.839 328.579C979.04 329.225 979.77 329.497 980.324 329.17L980.44 329.091L1003.51 310.92C1003.95 310.567 1004.04 309.909 1003.69 309.451C1003.38 309.034 1002.82 308.926 1002.38 309.175L1002.26 309.26L980.348 326.519L972.649 301.792Z" fill="black" fill-opacity="0.5"/>
<path d="M973.653 526.29C973.233 526.226 972.842 526.522 972.78 526.951L972.581 528.449L972.534 528.833C972.351 530.337 972.168 532.04 971.997 533.907C971.217 542.431 970.951 551.225 971.506 559.447C972.801 578.631 978.259 590.803 989.339 592.345C989.759 592.404 990.146 592.103 990.203 591.673C990.26 591.244 989.966 590.848 989.546 590.789C979.462 589.385 974.287 577.846 973.038 559.339C972.49 551.213 972.753 542.5 973.526 534.053L973.674 532.508C973.774 531.506 973.877 530.56 973.981 529.677L974.15 528.293L974.299 527.182C974.361 526.753 974.072 526.354 973.653 526.29Z" fill="#1443BD"/>
<path d="M973.653 526.29C973.233 526.226 972.842 526.522 972.78 526.951L972.581 528.449L972.534 528.833C972.351 530.337 972.168 532.04 971.997 533.907C971.217 542.431 970.951 551.225 971.506 559.447C972.801 578.631 978.259 590.803 989.339 592.345C989.759 592.404 990.146 592.103 990.203 591.673C990.26 591.244 989.966 590.848 989.546 590.789C979.462 589.385 974.287 577.846 973.038 559.339C972.49 551.213 972.753 542.5 973.526 534.053L973.674 532.508C973.774 531.506 973.877 530.56 973.981 529.677L974.15 528.293L974.299 527.182C974.361 526.753 974.072 526.354 973.653 526.29Z" fill="white" fill-opacity="0.5"/>
<path d="M1053.16 222.123C1053 221.721 1052.55 221.526 1052.16 221.689L1051.89 221.811C1051.73 221.888 1051.54 221.989 1051.31 222.115C1050.7 222.463 1050.08 222.884 1049.5 223.383C1047.37 225.219 1046.31 227.598 1046.96 230.479C1047.21 231.57 1047.7 232.152 1048.62 232.707L1049.01 232.933C1049.79 233.371 1049.99 233.588 1050.06 234.268C1050.2 235.573 1049.62 236.548 1048.5 237.296C1048.13 237.544 1047.73 237.746 1047.33 237.903L1046.97 238.032C1046.9 238.052 1046.85 238.066 1046.82 238.075C1046.41 238.178 1046.15 238.603 1046.25 239.024C1046.35 239.446 1046.77 239.704 1047.18 239.601C1047.74 239.461 1048.54 239.15 1049.34 238.609C1050.9 237.566 1051.79 236.064 1051.59 234.098C1051.46 232.882 1050.99 232.295 1049.97 231.686L1049.59 231.47C1048.87 231.064 1048.61 230.789 1048.46 230.122C1047.95 227.892 1048.77 226.072 1050.49 224.583C1050.99 224.156 1051.52 223.791 1052.05 223.491C1052.37 223.312 1052.61 223.197 1052.74 223.145C1053.13 222.982 1053.32 222.525 1053.16 222.123Z" fill="#DD936F"/>
<path d="M960.016 621.184C959.593 621.156 959.228 621.484 959.201 621.917C959.177 622.307 959.434 622.648 959.795 622.733L959.919 622.751L985.265 624.403C985.688 624.43 986.053 624.102 986.08 623.669C986.105 623.279 985.847 622.938 985.486 622.854L985.363 622.835L960.016 621.184Z" fill="#1443BD"/>
<path d="M960.016 621.184C959.593 621.156 959.228 621.484 959.201 621.917C959.177 622.307 959.434 622.648 959.795 622.733L959.919 622.751L985.265 624.403C985.688 624.43 986.053 624.102 986.08 623.669C986.105 623.279 985.847 622.938 985.486 622.854L985.363 622.835L960.016 621.184Z" fill="white" fill-opacity="0.5"/>
<path fill-rule="evenodd" clip-rule="evenodd" d="M783.33 292.146C783.33 292.146 761.264 224.888 736.28 208.563C728.842 208.844 735.817 218.862 740.993 227.059C743.64 231.251 745.387 236.546 745.387 236.546C745.387 236.546 735.186 235.456 737.142 244.309C728.969 243.906 731.927 253.259 731.927 253.259C731.927 253.259 725.644 253.272 727.665 261.961C729.053 267.934 736.924 274.984 738.728 281.268C745.685 305.502 757.113 306.843 761.702 307.586C773.316 309.464 780.447 304.943 783.33 292.146Z" fill="#FFC999"/>
<path d="M768.995 261.774L760.051 241.97L759.828 241.112C757.849 233.846 754.713 230.872 752.027 233.495C749.717 235.751 749.309 241.509 751.378 246.744C755.496 257.162 755.912 261.984 754.431 267.669L753.942 269.487C753.667 270.564 753.507 271.428 753.441 272.345C753.157 276.28 753.344 279.943 754.415 283.478C755.98 288.641 759.215 292.279 764.474 293.747C764.883 293.861 765.305 293.615 765.417 293.197C765.529 292.778 765.288 292.346 764.878 292.232C756.557 289.909 754.259 282.326 754.973 272.461C755.023 271.768 755.135 271.099 755.326 270.297L755.537 269.47C755.604 269.218 755.688 268.911 755.814 268.455L756.01 267.701C757.464 261.834 756.955 256.661 752.802 246.155C750.945 241.458 751.306 236.371 753.088 234.631C754.526 233.227 756.649 235.25 758.376 241.599L758.609 242.492L767.6 262.431C767.777 262.825 768.234 262.997 768.619 262.816C768.961 262.654 769.132 262.268 769.041 261.907L768.995 261.774Z" fill="#DD936F"/>
<path d="M736.804 243.604C736.424 243.795 736.266 244.266 736.453 244.655L736.744 245.247C736.977 245.714 737.243 246.234 737.537 246.793C738.379 248.392 739.282 249.992 740.21 251.487C741.205 253.089 742.172 254.477 743.095 255.591C744.977 257.865 746.621 258.978 748.128 258.507C751.512 257.447 752.551 254.899 751.704 251.588C751.383 250.334 750.807 249.017 750.049 247.681C749.636 246.951 749.194 246.26 748.751 245.629L748.398 245.137C748.296 245.001 748.213 244.892 748.151 244.814C747.884 244.478 747.4 244.427 747.071 244.701C746.742 244.974 746.692 245.469 746.96 245.805L747.275 246.225C747.344 246.32 747.42 246.426 747.503 246.544C747.918 247.136 748.333 247.785 748.72 248.468C749.414 249.692 749.936 250.886 750.218 251.986C750.873 254.547 750.192 256.218 747.678 257.005C746.993 257.22 745.769 256.39 744.267 254.577C743.395 253.524 742.467 252.191 741.507 250.645C740.6 249.185 739.715 247.617 738.89 246.049L738.478 245.257L737.832 243.964C737.645 243.575 737.185 243.414 736.804 243.604Z" fill="#DD936F"/>
<path d="M733.036 253.459C732.9 253.049 732.464 252.828 732.062 252.967C731.66 253.107 731.445 253.552 731.581 253.963L731.754 254.455L731.982 255.058C732.065 255.27 732.153 255.49 732.247 255.719C732.785 257.025 733.407 258.332 734.108 259.556C736.286 263.359 738.745 265.605 741.551 265.378C744.31 265.155 745.599 263.31 745.673 260.591C745.7 259.601 745.566 258.558 745.328 257.524C745.198 256.959 745.067 256.519 744.977 256.259C744.834 255.851 744.394 255.638 743.995 255.784C743.596 255.93 743.387 256.379 743.53 256.787L743.615 257.053C743.679 257.266 743.756 257.548 743.833 257.883C744.043 258.796 744.16 259.711 744.137 260.547C744.083 262.54 743.3 263.662 741.43 263.813C739.405 263.976 737.339 262.089 735.434 258.763C734.77 257.603 734.176 256.357 733.662 255.109L733.41 254.479L733.095 253.63C733.068 253.556 733.049 253.498 733.036 253.459Z" fill="#DD936F"/>
<path d="M727.263 259.906C726.851 260.009 726.599 260.434 726.7 260.855L726.817 261.304L727.034 262.049C727.074 262.18 727.116 262.316 727.161 262.454C727.542 263.643 728.002 264.832 728.542 265.948C730.545 270.083 733.145 272.237 736.373 270.972C738.659 270.076 739.555 268.398 739.21 266.327C739.041 265.314 738.588 264.267 737.943 263.217C737.66 262.757 737.358 262.327 737.055 261.937L736.771 261.582C736.719 261.52 736.675 261.469 736.64 261.429C736.354 261.109 735.868 261.086 735.555 261.378C735.241 261.67 735.219 262.166 735.504 262.487L735.679 262.694C735.73 262.757 735.788 262.83 735.852 262.912C736.121 263.26 736.391 263.645 736.642 264.053C737.19 264.943 737.566 265.813 737.696 266.591C737.92 267.935 737.414 268.882 735.823 269.506C733.586 270.382 731.612 268.746 729.919 265.251C729.414 264.209 728.981 263.087 728.62 261.964C728.536 261.702 728.46 261.453 728.392 261.219L728.192 260.482C728.102 260.107 727.764 259.862 727.4 259.884L727.263 259.906Z" fill="#DD936F"/>
<path d="M848.836 374.527C848.352 374.827 848.198 375.471 848.491 375.965L849.651 377.887L850.743 379.665C851.634 381.106 852.607 382.657 853.652 384.295C857.633 390.537 861.838 396.78 866.08 402.609C869.152 406.832 872.133 410.681 874.983 414.073C880.416 420.537 885.226 425.166 889.289 427.606C889.572 427.777 889.916 427.796 890.212 427.665L890.356 427.588L923.882 405.867C924.36 405.558 924.502 404.911 924.199 404.422C923.924 403.978 923.376 403.817 922.92 404.025L922.786 404.098L889.798 425.47L889.523 425.294C885.992 422.965 881.794 418.892 877.083 413.353L876.537 412.708C873.72 409.356 870.769 405.545 867.723 401.359C863.509 395.568 859.327 389.359 855.368 383.151L854.353 381.551C853.528 380.243 852.754 379.002 852.038 377.838L850.97 376.088L850.243 374.88C849.95 374.385 849.32 374.227 848.836 374.527Z" fill="#1443BD"/>
<path d="M848.836 374.527C848.352 374.827 848.198 375.471 848.491 375.965L849.651 377.887L850.743 379.665C851.634 381.106 852.607 382.657 853.652 384.295C857.633 390.537 861.838 396.78 866.08 402.609C869.152 406.832 872.133 410.681 874.983 414.073C880.416 420.537 885.226 425.166 889.289 427.606C889.572 427.777 889.916 427.796 890.212 427.665L890.356 427.588L923.882 405.867C924.36 405.558 924.502 404.911 924.199 404.422C923.924 403.978 923.376 403.817 922.92 404.025L922.786 404.098L889.798 425.47L889.523 425.294C885.992 422.965 881.794 418.892 877.083 413.353L876.537 412.708C873.72 409.356 870.769 405.545 867.723 401.359C863.509 395.568 859.327 389.359 855.368 383.151L854.353 381.551C853.528 380.243 852.754 379.002 852.038 377.838L850.97 376.088L850.243 374.88C849.95 374.385 849.32 374.227 848.836 374.527Z" fill="black" fill-opacity="0.5"/>
<path d="M834.618 378.266C834.421 377.882 833.957 377.734 833.581 377.936C833.247 378.115 833.096 378.51 833.205 378.866L833.258 378.996L851.272 414.051C851.47 414.435 851.934 414.583 852.31 414.381C852.643 414.202 852.795 413.807 852.685 413.452L852.632 413.321L834.618 378.266Z" fill="#DD936F"/>
<path fill-rule="evenodd" clip-rule="evenodd" d="M1130.51 496.262C1143.95 490.535 1150.68 475.075 1145.85 461.029L1102.07 333.796C1095.63 315.085 1075.13 305.753 1057.22 313.383C1039.52 320.922 1031.5 341.995 1039.57 359.78L1095.04 482.153C1101.24 495.832 1116.9 502.06 1130.51 496.262Z" fill="#FFC999"/>
<path fill-rule="evenodd" clip-rule="evenodd" d="M1128.7 410.406L1101.26 329.68C1093.4 312.136 1064.47 305.176 1047.46 313.531C1030.44 321.886 1023.44 342.887 1031.91 360.133L1070.62 438.924C1070.62 438.924 1114.08 428.573 1128.7 410.406Z" fill="#1443BD"/>
<path fill-rule="evenodd" clip-rule="evenodd" d="M1128.7 410.406L1101.26 329.68C1093.4 312.136 1064.47 305.176 1047.46 313.531C1030.44 321.886 1023.44 342.887 1031.91 360.133L1070.62 438.924C1070.62 438.924 1114.08 428.573 1128.7 410.406Z" fill="white" fill-opacity="0.5"/>
<path d="M1049.91 379.456C1049.69 378.924 1049.09 378.676 1048.57 378.903C1048.1 379.109 1047.85 379.636 1047.98 380.13L1048.03 380.277L1072.19 438.331C1072.4 438.829 1072.94 439.083 1073.44 438.918L1075.58 438.197L1077.55 437.51C1079.15 436.947 1080.87 436.326 1082.69 435.654C1089.61 433.091 1096.54 430.295 1103.01 427.358L1104.87 426.5C1114.7 421.931 1122.41 417.462 1127.27 413.215C1128.07 412.513 1128.8 411.818 1129.44 411.13C1129.83 410.711 1129.81 410.048 1129.4 409.649C1128.99 409.25 1128.35 409.266 1127.96 409.684C1127.36 410.318 1126.69 410.965 1125.94 411.622C1120.96 415.972 1112.73 420.652 1102.18 425.444C1095.76 428.359 1088.87 431.137 1081.99 433.684L1080.22 434.335C1078.77 434.863 1077.39 435.353 1076.1 435.804L1073.71 436.626L1049.91 379.456Z" fill="#1443BD"/>
<path d="M1049.91 379.456C1049.69 378.924 1049.09 378.676 1048.57 378.903C1048.1 379.109 1047.85 379.636 1047.98 380.13L1048.03 380.277L1072.19 438.331C1072.4 438.829 1072.94 439.083 1073.44 438.918L1075.58 438.197L1077.55 437.51C1079.15 436.947 1080.87 436.326 1082.69 435.654C1089.61 433.091 1096.54 430.295 1103.01 427.358L1104.87 426.5C1114.7 421.931 1122.41 417.462 1127.27 413.215C1128.07 412.513 1128.8 411.818 1129.44 411.13C1129.83 410.711 1129.81 410.048 1129.4 409.649C1128.99 409.25 1128.35 409.266 1127.96 409.684C1127.36 410.318 1126.69 410.965 1125.94 411.622C1120.96 415.972 1112.73 420.652 1102.18 425.444C1095.76 428.359 1088.87 431.137 1081.99 433.684L1080.22 434.335C1078.77 434.863 1077.39 435.353 1076.1 435.804L1073.71 436.626L1049.91 379.456Z" fill="black" fill-opacity="0.5"/>
<path fill-rule="evenodd" clip-rule="evenodd" d="M961.858 481.032C962.648 489.205 969.285 495.487 977.317 495.665L1118.5 498.78C1134.71 499.137 1147.69 485.114 1146.44 468.581C1145.22 452.423 1130.9 440.679 1115.21 442.969L975.416 463.363C966.998 464.591 961.022 472.38 961.858 481.032Z" fill="#FFC999"/>
<path fill-rule="evenodd" clip-rule="evenodd" d="M973.413 518.152L942.373 418.87C941.86 417.232 940.384 416.113 938.702 416.091L851.662 414.887C848.959 414.85 847.037 417.563 847.914 420.178L880.316 516.823C880.838 518.378 882.236 519.446 883.841 519.519L969.519 523.362C972.237 523.482 974.241 520.802 973.413 518.152Z" fill="#2A84C6"/>
<path fill-rule="evenodd" clip-rule="evenodd" d="M973.413 518.152L942.373 418.87C941.86 417.232 940.384 416.113 938.702 416.091L851.662 414.887C848.959 414.85 847.037 417.563 847.914 420.178L880.316 516.823C880.838 518.378 882.236 519.446 883.841 519.519L969.519 523.362C972.237 523.482 974.241 520.802 973.413 518.152Z" fill="black" fill-opacity="0.2"/>
<path fill-rule="evenodd" clip-rule="evenodd" d="M968.825 516.943L938.325 419.39C937.705 417.409 935.916 416.053 933.88 416.025L845.765 414.805C843.875 414.781 842.53 416.678 843.144 418.506L875.996 516.489C876.573 518.211 878.12 519.395 879.899 519.474L964.109 523.252C967.4 523.398 969.829 520.15 968.825 516.943Z" fill="#1443BD"/>
<path fill-rule="evenodd" clip-rule="evenodd" d="M968.825 516.943L938.325 419.39C937.705 417.409 935.916 416.053 933.88 416.025L845.765 414.805C843.875 414.781 842.53 416.678 843.144 418.506L875.996 516.489C876.573 518.211 878.12 519.395 879.899 519.474L964.109 523.252C967.4 523.398 969.829 520.15 968.825 516.943Z" fill="black" fill-opacity="0.5"/>
<path fill-rule="evenodd" clip-rule="evenodd" d="M926.393 425.425C925.409 426.546 925.763 428.513 927.185 429.823C928.607 431.13 930.559 431.282 931.546 430.163C932.531 429.042 932.177 427.072 930.755 425.765C929.332 424.455 927.378 424.304 926.393 425.425Z" fill="#2A84C6"/>
<path fill-rule="evenodd" clip-rule="evenodd" d="M926.393 425.425C925.409 426.546 925.763 428.513 927.185 429.823C928.607 431.13 930.559 431.282 931.546 430.163C932.531 429.042 932.177 427.072 930.755 425.765C929.332 424.455 927.378 424.304 926.393 425.425Z" fill="white" fill-opacity="0.85"/>
<path fill-rule="evenodd" clip-rule="evenodd" d="M927.564 426.596C927.051 427.177 927.236 428.199 927.974 428.879C928.714 429.557 929.726 429.636 930.239 429.055C930.749 428.474 930.565 427.452 929.827 426.771C929.089 426.094 928.074 426.015 927.564 426.596Z" fill="#2A84C6"/>
<path fill-rule="evenodd" clip-rule="evenodd" d="M927.564 426.596C927.051 427.177 927.236 428.199 927.974 428.879C928.714 429.557 929.726 429.636 930.239 429.055C930.749 428.474 930.565 427.452 929.827 426.771C929.089 426.094 928.074 426.015 927.564 426.596Z" fill="white" fill-opacity="0.85"/>
<path fill-rule="evenodd" clip-rule="evenodd" d="M934.667 499.484C929.666 498.988 927.036 496.849 927.51 492.589C921.495 490.655 922.166 485.445 922.166 485.445C922.166 485.445 910.588 485.263 908.64 480.204C907.883 478.239 909.353 476.138 911.412 475.995C936.218 474.275 953.906 460.836 953.906 460.836C953.906 460.836 944.153 446.194 945.185 439.435C945.49 437.437 948.045 436.792 949.24 438.404C959.466 452.204 979.973 463.025 979.973 463.025C979.973 463.025 1004.59 486.607 977.888 497.301C977.888 497.301 957.531 505.595 943.36 504.544C936.649 504.048 934.667 499.484 934.667 499.484Z" fill="#FFC999"/>
<path d="M940.41 480.95C940.203 480.572 939.735 480.436 939.365 480.648C937.589 481.663 935.513 482.491 933.198 483.144C930.439 483.923 927.476 484.421 924.494 484.692L923.587 484.768C922.419 484.856 921.418 484.897 920.638 484.907L920.061 484.909C919.637 484.903 919.288 485.25 919.283 485.683C919.278 486.074 919.552 486.401 919.916 486.467L920.04 486.479L920.357 486.48C921.395 486.477 922.866 486.417 924.63 486.257C927.697 485.978 930.749 485.465 933.607 484.658C936.034 483.973 938.222 483.101 940.115 482.019C940.485 481.807 940.617 481.329 940.41 480.95Z" fill="#DD936F"/>
<path d="M942.744 488.744C942.56 488.354 942.1 488.19 941.719 488.379C941.49 488.492 941.259 488.602 941.026 488.71C938.081 490.068 934.918 490.94 931.742 491.418C929.78 491.713 928.208 491.809 927.23 491.802C926.794 491.796 926.445 492.142 926.44 492.576C926.434 492.966 926.709 493.294 927.073 493.36L927.197 493.372H927.473L928.04 493.359C929.053 493.322 930.392 493.209 931.965 492.972C935.273 492.474 938.571 491.565 941.658 490.141C941.903 490.028 942.146 489.912 942.387 489.793C942.769 489.604 942.929 489.135 942.744 488.744Z" fill="#DD936F"/>
<path d="M947.159 497.453C946.975 497.063 946.515 496.899 946.134 497.088C945.317 497.492 943.388 497.869 940.765 498.179C939.423 498.337 937.984 498.469 936.544 498.575L934.628 498.7C934.204 498.722 933.878 499.091 933.9 499.524C933.921 499.957 934.282 500.29 934.706 500.268L936.279 500.169L936.655 500.141C938.115 500.034 939.575 499.9 940.941 499.739L941.898 499.619C944.209 499.313 945.892 498.952 946.802 498.502C947.184 498.313 947.344 497.844 947.159 497.453Z" fill="#DD936F"/>
<path d="M1115.11 442.19L978.799 461.23C978.378 461.289 978.084 461.684 978.142 462.114C978.193 462.501 978.512 462.783 978.882 462.793L979.007 462.786L1115.32 443.746C1115.74 443.687 1116.03 443.291 1115.97 442.862C1115.92 442.475 1115.6 442.193 1115.23 442.183L1115.11 442.19Z" fill="#DD936F"/>
<g filter="url(#filter3_ddddd_1_2509)">
<path d="M555.181 273.485H437.799C435.483 273.485 433.605 275.404 433.605 277.772V360.903C433.605 363.271 435.483 365.191 437.799 365.191H555.181C557.497 365.191 559.375 363.271 559.375 360.903V277.772C559.375 275.404 557.497 273.485 555.181 273.485Z" fill="white"/>
</g>
<path d="M535.787 354.093C537.606 354.093 539.081 350.911 539.081 346.985C539.081 343.058 537.606 339.876 535.787 339.876C533.968 339.876 532.493 343.058 532.493 346.985C532.493 350.911 533.968 354.093 535.787 354.093Z" fill="white"/>
<path d="M559.315 301.529H433.666V314.828H559.315V301.529Z" fill="#1443BD"/>
<path d="M559.315 301.529H433.666V314.828H559.315V301.529Z" fill="black" fill-opacity="0.5"/>
<path d="M486.106 328.609H443.974C443.202 328.609 442.576 329.249 442.576 330.038V331.774C442.576 332.563 443.202 333.203 443.974 333.203H486.106C486.877 333.203 487.503 332.563 487.503 331.774V330.038C487.503 329.249 486.877 328.609 486.106 328.609Z" fill="#1443BD"/>
<path d="M486.106 328.609H443.974C443.202 328.609 442.576 329.249 442.576 330.038V331.774C442.576 332.563 443.202 333.203 443.974 333.203H486.106C486.877 333.203 487.503 332.563 487.503 331.774V330.038C487.503 329.249 486.877 328.609 486.106 328.609Z" fill="white" fill-opacity="0.2"/>
<path d="M468.275 342.391H443.974C443.202 342.391 442.576 343.031 442.576 343.82V345.555C442.576 346.345 443.202 346.985 443.974 346.985H468.275C469.047 346.985 469.673 346.345 469.673 345.555V343.82C469.673 343.031 469.047 342.391 468.275 342.391Z" fill="#1443BD"/>
<path d="M468.275 342.391H443.974C443.202 342.391 442.576 343.031 442.576 343.82V345.555C442.576 346.345 443.202 346.985 443.974 346.985H468.275C469.047 346.985 469.673 346.345 469.673 345.555V343.82C469.673 343.031 469.047 342.391 468.275 342.391Z" fill="white" fill-opacity="0.2"/>
<path d="M454.727 282.726H443.974C443.202 282.726 442.576 283.365 442.576 284.155V290.429C442.576 291.219 443.202 291.859 443.974 291.859H454.727C455.499 291.859 456.125 291.219 456.125 290.429V284.155C456.125 283.365 455.499 282.726 454.727 282.726Z" fill="#1443BD"/>
<path d="M532.493 346.984C532.49 344.229 533.7 341.618 535.788 339.876C532.127 336.808 526.767 337.17 523.533 340.703C520.298 344.235 520.298 349.728 523.533 353.261C526.767 356.793 532.127 357.155 535.788 354.088C533.701 352.346 532.491 349.738 532.493 346.984Z" fill="#F56D7E"/>
<path d="M541.478 337.797C539.403 337.794 537.391 338.529 535.787 339.876C537.87 341.621 539.077 344.229 539.077 346.982C539.077 349.735 537.87 352.343 535.787 354.088C538.848 356.655 543.191 356.872 546.482 354.622C549.772 352.372 551.235 348.184 550.083 344.312C548.931 340.439 545.436 337.793 541.478 337.797Z" fill="#B7EE81"/>
<path d="M541.478 337.797C539.403 337.794 537.391 338.529 535.787 339.876C537.87 341.621 539.077 344.229 539.077 346.982C539.077 349.735 537.87 352.343 535.787 354.088C538.848 356.655 543.191 356.872 546.482 354.622C549.772 352.372 551.235 348.184 550.083 344.312C548.931 340.439 545.436 337.793 541.478 337.797Z" fill="white" fill-opacity="0.2"/>
<path fill-rule="evenodd" clip-rule="evenodd" d="M837.236 151.617C850.204 151.617 860.717 162.367 860.717 175.627V175.689C860.717 188.949 850.204 199.699 837.236 199.699H802.607C801.313 199.699 800.044 199.592 798.807 199.386L792.098 206.012C791.916 206.192 791.672 206.293 791.419 206.293C790.878 206.293 790.44 205.845 790.44 205.292L790.44 196.228C783.657 192.019 779.125 184.395 779.125 175.689V175.627C779.125 162.367 789.638 151.617 802.607 151.617H837.236Z" fill="#2A84C6"/>
<path fill-rule="evenodd" clip-rule="evenodd" d="M837.236 151.617C850.204 151.617 860.717 162.367 860.717 175.627V175.689C860.717 188.949 850.204 199.699 837.236 199.699H802.607C801.313 199.699 800.044 199.592 798.807 199.386L792.098 206.012C791.916 206.192 791.672 206.293 791.419 206.293C790.878 206.293 790.44 205.845 790.44 205.292L790.44 196.228C783.657 192.019 779.125 184.395 779.125 175.689V175.627C779.125 162.367 789.638 151.617 802.607 151.617H837.236Z" fill="white" fill-opacity="0.5"/>
<g filter="url(#filter4_ddddd_1_2509)">
<path d="M831.54 94.093H880.985C899.512 94.093 914.531 109.45 914.531 128.393C914.531 147.337 899.512 162.693 880.985 162.693H831.54C813.014 162.693 797.995 147.337 797.995 128.393C797.995 109.45 813.014 94.093 831.54 94.093Z" fill="white"/>
<path fill-rule="evenodd" clip-rule="evenodd" d="M898.369 152.716V170.672C898.369 171.462 897.743 172.102 896.972 172.102C896.609 172.102 896.262 171.958 896.001 171.701L883.096 158.969L898.369 152.716Z" fill="white"/>
</g>
<path d="M878.714 132.68C875.722 132.68 873.298 130.201 873.298 127.142C873.298 124.084 875.722 121.604 878.714 121.604C881.705 121.604 884.13 124.084 884.13 127.142C884.13 130.201 881.705 132.68 878.714 132.68Z" fill="#1443BD"/>
<path d="M878.714 132.68C875.722 132.68 873.298 130.201 873.298 127.142C873.298 124.084 875.722 121.604 878.714 121.604C881.705 121.604 884.13 124.084 884.13 127.142C884.13 130.201 881.705 132.68 878.714 132.68Z" fill="black" fill-opacity="0.5"/>
<path d="M856.525 132.68C853.533 132.68 851.108 130.201 851.108 127.142C851.108 124.084 853.533 121.604 856.525 121.604C859.516 121.604 861.941 124.084 861.941 127.142C861.941 130.201 859.516 132.68 856.525 132.68Z" fill="#1443BD"/>
<path d="M856.525 132.68C853.533 132.68 851.108 130.201 851.108 127.142C851.108 124.084 853.533 121.604 856.525 121.604C859.516 121.604 861.941 124.084 861.941 127.142C861.941 130.201 859.516 132.68 856.525 132.68Z" fill="black" fill-opacity="0.5"/>
<path d="M833.812 132.68C830.82 132.68 828.395 130.201 828.395 127.142C828.395 124.084 830.82 121.604 833.812 121.604C836.803 121.604 839.228 124.084 839.228 127.142C839.228 130.201 836.803 132.68 833.812 132.68Z" fill="#1443BD"/>
<path d="M833.812 132.68C830.82 132.68 828.395 130.201 828.395 127.142C828.395 124.084 830.82 121.604 833.812 121.604C836.803 121.604 839.228 124.084 839.228 127.142C839.228 130.201 836.803 132.68 833.812 132.68Z" fill="black" fill-opacity="0.5"/>
<path fill-rule="evenodd" clip-rule="evenodd" d="M676.551 436.119H657.194V368.309C657.194 362.911 661.504 358.536 666.822 358.536H666.923C672.24 358.536 676.551 362.911 676.551 368.309V436.119Z" fill="#B7EE81"/>
<path fill-rule="evenodd" clip-rule="evenodd" d="M676.551 436.119H657.194V368.309C657.194 362.911 661.504 358.536 666.822 358.536H666.923C672.24 358.536 676.551 362.911 676.551 368.309V436.119Z" fill="white" fill-opacity="0.2"/>
<path fill-rule="evenodd" clip-rule="evenodd" d="M686.176 452.717H666.763V417.308C666.763 412.053 670.978 407.793 676.178 407.793H676.76C681.96 407.793 686.176 412.053 686.176 417.308V452.717Z" fill="#B7EE81"/>
<path fill-rule="evenodd" clip-rule="evenodd" d="M686.176 452.717H666.763V417.308C666.763 412.053 670.978 407.793 676.178 407.793H676.76C681.96 407.793 686.176 412.053 686.176 417.308V452.717Z" fill="black" fill-opacity="0.35"/>
<path fill-rule="evenodd" clip-rule="evenodd" d="M660.033 436.083H640.491V397.585C640.491 392.3 644.718 388.016 649.931 388.016H650.594C655.807 388.016 660.033 392.3 660.033 397.585V436.083Z" fill="#B7EE81"/>
<path fill-rule="evenodd" clip-rule="evenodd" d="M660.033 436.083H640.491V397.585C640.491 392.3 644.718 388.016 649.931 388.016H650.594C655.807 388.016 660.033 392.3 660.033 397.585V436.083Z" fill="white" fill-opacity="0.2"/>
<path fill-rule="evenodd" clip-rule="evenodd" d="M682.186 492.541H641.172C639.162 492.541 636.324 489.819 636.324 487.786L632.686 437.725C632.686 435.692 634.315 434.043 636.324 434.043H687.161C689.171 434.043 690.8 435.692 690.8 437.725L685.722 487.786C685.722 489.819 684.195 492.541 682.186 492.541Z" fill="#1443BD"/>
<path fill-rule="evenodd" clip-rule="evenodd" d="M682.186 492.541H641.172C639.162 492.541 636.324 489.819 636.324 487.786L632.686 437.725C632.686 435.692 634.315 434.043 636.324 434.043H687.161C689.171 434.043 690.8 435.692 690.8 437.725L685.722 487.786C685.722 489.819 684.195 492.541 682.186 492.541Z" fill="black" fill-opacity="0.2"/>
<path fill-rule="evenodd" clip-rule="evenodd" d="M679.591 507.757L698.041 740.215H713.883L695.433 507.757H679.591Z" fill="#F2F2F2"/>
<path fill-rule="evenodd" clip-rule="evenodd" d="M629.138 507.757L610.688 740.215H626.53L644.981 507.757H629.138Z" fill="#F2F2F2"/>
<path fill-rule="evenodd" clip-rule="evenodd" d="M616.01 522.846C606.547 522.846 598.877 516.08 598.877 507.736C598.877 499.391 606.547 492.625 616.01 492.625H710.015C719.476 492.625 727.148 499.391 727.148 507.736C727.148 516.08 719.476 522.846 710.015 522.846H616.01Z" fill="#2A84C6"/>
<path fill-rule="evenodd" clip-rule="evenodd" d="M616.01 522.846C606.547 522.846 598.877 516.08 598.877 507.736C598.877 499.391 606.547 492.625 616.01 492.625H710.015C719.476 492.625 727.148 499.391 727.148 507.736C727.148 516.08 719.476 522.846 710.015 522.846H616.01Z" fill="white" fill-opacity="0.65"/>
<g opacity="0.8">
<path fill-rule="evenodd" clip-rule="evenodd" d="M1130.67 123.367L1177.23 158.581C1178.14 157.667 1179.44 157.143 1180.83 157.261C1183.3 157.468 1185.13 159.592 1184.93 162.005C1184.73 164.417 1182.56 166.205 1180.1 165.998C1178.44 165.858 1177.07 164.852 1176.41 163.474L1119.8 182.247C1119.96 182.763 1120.03 183.317 1119.98 183.886C1119.78 186.299 1117.61 188.087 1115.15 187.879C1112.68 187.672 1110.85 185.548 1111.05 183.135C1111.25 180.811 1113.26 179.066 1115.62 179.128L1125.65 125.282C1123.62 124.724 1122.21 122.818 1122.39 120.687C1122.59 118.274 1124.75 116.486 1127.22 116.694C1129.68 116.901 1131.52 119.025 1131.31 121.438C1131.25 122.146 1131.03 122.801 1130.67 123.367ZM1176 161.254C1175.99 161.427 1175.98 161.598 1175.99 161.768L1142.68 165.843C1142.23 164.066 1140.67 162.681 1138.7 162.516C1138.27 162.48 1137.85 162.504 1137.45 162.581L1128.35 125.201C1129.04 124.964 1129.65 124.567 1130.14 124.05L1176.69 159.255C1176.31 159.837 1176.06 160.516 1176 161.254ZM1136.61 162.83L1127.49 125.404C1127.18 125.448 1126.85 125.459 1126.51 125.433L1116.49 179.234C1117.31 179.414 1118.03 179.81 1118.61 180.352L1134.39 168.948C1133.99 168.225 1133.8 167.386 1133.87 166.508C1134.01 164.819 1135.11 163.436 1136.61 162.83ZM1134.88 169.664L1119.18 181.008C1119.29 181.15 1119.38 181.298 1119.46 181.451L1176.12 162.662C1176.11 162.648 1176.11 162.634 1176.1 162.62L1142.81 166.695C1142.82 166.881 1142.81 167.069 1142.8 167.259C1142.59 169.672 1140.43 171.46 1137.97 171.252C1136.71 171.147 1135.62 170.546 1134.88 169.664Z" fill="#B7EE81"/>
<path fill-rule="evenodd" clip-rule="evenodd" d="M1130.67 123.367L1177.23 158.581C1178.14 157.667 1179.44 157.143 1180.83 157.261C1183.3 157.468 1185.13 159.592 1184.93 162.005C1184.73 164.417 1182.56 166.205 1180.1 165.998C1178.44 165.858 1177.07 164.852 1176.41 163.474L1119.8 182.247C1119.96 182.763 1120.03 183.317 1119.98 183.886C1119.78 186.299 1117.61 188.087 1115.15 187.879C1112.68 187.672 1110.85 185.548 1111.05 183.135C1111.25 180.811 1113.26 179.066 1115.62 179.128L1125.65 125.282C1123.62 124.724 1122.21 122.818 1122.39 120.687C1122.59 118.274 1124.75 116.486 1127.22 116.694C1129.68 116.901 1131.52 119.025 1131.31 121.438C1131.25 122.146 1131.03 122.801 1130.67 123.367ZM1176 161.254C1175.99 161.427 1175.98 161.598 1175.99 161.768L1142.68 165.843C1142.23 164.066 1140.67 162.681 1138.7 162.516C1138.27 162.48 1137.85 162.504 1137.45 162.581L1128.35 125.201C1129.04 124.964 1129.65 124.567 1130.14 124.05L1176.69 159.255C1176.31 159.837 1176.06 160.516 1176 161.254ZM1136.61 162.83L1127.49 125.404C1127.18 125.448 1126.85 125.459 1126.51 125.433L1116.49 179.234C1117.31 179.414 1118.03 179.81 1118.61 180.352L1134.39 168.948C1133.99 168.225 1133.8 167.386 1133.87 166.508C1134.01 164.819 1135.11 163.436 1136.61 162.83ZM1134.88 169.664L1119.18 181.008C1119.29 181.15 1119.38 181.298 1119.46 181.451L1176.12 162.662C1176.11 162.648 1176.11 162.634 1176.1 162.62L1142.81 166.695C1142.82 166.881 1142.81 167.069 1142.8 167.259C1142.59 169.672 1140.43 171.46 1137.97 171.252C1136.71 171.147 1135.62 170.546 1134.88 169.664Z" fill="white" fill-opacity="0.65"/>
</g>
<g opacity="0.8">
<path fill-rule="evenodd" clip-rule="evenodd" d="M835.786 14.8694L831.977 48.0056C832.689 48.1835 833.324 48.6713 833.672 49.3929C834.286 50.6661 833.773 52.1852 832.527 52.7858C831.281 53.3863 829.773 52.8411 829.159 51.5678C828.747 50.7115 828.843 49.7439 829.33 49.0194L803.658 26.6157C803.451 26.8445 803.197 27.0375 802.903 27.1793C801.657 27.7799 800.149 27.2346 799.536 25.9614C798.922 24.6881 799.435 23.1691 800.681 22.5685C801.882 21.9898 803.325 22.4751 803.978 23.6504L833.386 12.9544C833.071 11.7931 833.6 10.5459 834.7 10.0154C835.946 9.41479 837.454 9.96007 838.068 11.2333C838.681 12.5065 838.169 14.0256 836.923 14.6261C836.557 14.8025 836.168 14.8801 835.786 14.8694ZM830.304 48.175C830.215 48.218 830.13 48.2658 830.048 48.3178L818.372 33.1115C819.116 32.374 819.343 31.2021 818.854 30.1865C818.747 29.9654 818.614 29.7662 818.459 29.5912L834.209 14.2589C834.526 14.5286 834.9 14.7155 835.296 14.8066L831.488 47.9335C831.091 47.9148 830.686 47.9913 830.304 48.175ZM818.093 29.2494L833.862 13.8984C833.748 13.7544 833.647 13.5958 833.563 13.4239L804.179 24.1111C804.328 24.5657 804.344 25.0383 804.245 25.4798L814.437 29.9326C814.677 29.5271 815.033 29.1871 815.487 28.9686C816.359 28.548 817.36 28.6894 818.093 29.2494ZM814.227 30.3819L804.088 25.9524C804.048 26.0435 804.002 26.1322 803.951 26.2179L829.645 48.6397C829.65 48.6339 829.656 48.6282 829.662 48.6224L817.99 33.4207C817.901 33.4789 817.807 33.532 817.709 33.5794C816.463 34.18 814.955 33.6347 814.342 32.3615C814.03 31.7141 814.009 31.0033 814.227 30.3819Z" fill="#B7EE81"/>
<path fill-rule="evenodd" clip-rule="evenodd" d="M835.786 14.8694L831.977 48.0056C832.689 48.1835 833.324 48.6713 833.672 49.3929C834.286 50.6661 833.773 52.1852 832.527 52.7858C831.281 53.3863 829.773 52.8411 829.159 51.5678C828.747 50.7115 828.843 49.7439 829.33 49.0194L803.658 26.6157C803.451 26.8445 803.197 27.0375 802.903 27.1793C801.657 27.7799 800.149 27.2346 799.536 25.9614C798.922 24.6881 799.435 23.1691 800.681 22.5685C801.882 21.9898 803.325 22.4751 803.978 23.6504L833.386 12.9544C833.071 11.7931 833.6 10.5459 834.7 10.0154C835.946 9.41479 837.454 9.96007 838.068 11.2333C838.681 12.5065 838.169 14.0256 836.923 14.6261C836.557 14.8025 836.168 14.8801 835.786 14.8694ZM830.304 48.175C830.215 48.218 830.13 48.2658 830.048 48.3178L818.372 33.1115C819.116 32.374 819.343 31.2021 818.854 30.1865C818.747 29.9654 818.614 29.7662 818.459 29.5912L834.209 14.2589C834.526 14.5286 834.9 14.7155 835.296 14.8066L831.488 47.9335C831.091 47.9148 830.686 47.9913 830.304 48.175ZM818.093 29.2494L833.862 13.8984C833.748 13.7544 833.647 13.5958 833.563 13.4239L804.179 24.1111C804.328 24.5657 804.344 25.0383 804.245 25.4798L814.437 29.9326C814.677 29.5271 815.033 29.1871 815.487 28.9686C816.359 28.548 817.36 28.6894 818.093 29.2494ZM814.227 30.3819L804.088 25.9524C804.048 26.0435 804.002 26.1322 803.951 26.2179L829.645 48.6397C829.65 48.6339 829.656 48.6282 829.662 48.6224L817.99 33.4207C817.901 33.4789 817.807 33.532 817.709 33.5794C816.463 34.18 814.955 33.6347 814.342 32.3615C814.03 31.7141 814.009 31.0033 814.227 30.3819Z" fill="white" fill-opacity="0.65"/>
</g>
<path d="M563.386 156.843C563.386 165.435 556.421 172.4 547.829 172.4C539.237 172.4 532.271 165.435 532.271 156.843C532.271 148.251 539.237 141.286 547.829 141.286C556.421 141.286 563.386 148.251 563.386 156.843Z" fill="white"/>
<mask id="mask0_1_2509" style="mask-type:alpha" maskUnits="userSpaceOnUse" x="532" y="141" width="32" height="32">
<ellipse cx="547.829" cy="156.843" rx="15.5571" ry="15.5571" fill="#C4C4C4"/>
</mask>
<g mask="url(#mask0_1_2509)">
<circle cx="544.721" cy="154.771" r="3" fill="#1443BD"/>
<circle cx="544.721" cy="154.771" r="3" fill="white" fill-opacity="0.5"/>
<circle cx="544.721" cy="165.271" r="7.5" fill="#1443BD"/>
<circle cx="544.721" cy="165.271" r="7.5" fill="white" fill-opacity="0.5"/>
</g>
<g filter="url(#filter5_dd_1_2509)">
<g opacity="0.4">
<path d="M356.5 635.075C495 700.233 593.5 721.003 840 721.003L317.5 813.319L-15 682.272C63 586.242 181 552.51 356.5 635.075Z" fill="#B7EE81"/>
<path d="M356.5 635.075C495 700.233 593.5 721.003 840 721.003L317.5 813.319L-15 682.272C63 586.242 181 552.51 356.5 635.075Z" fill="white" fill-opacity="0.85"/>
</g>
<path d="M1445 425.505C1453 359.717 1485 234.505 1512.5 229.73L1460 833.503H-20V571.939C63.6667 631.184 293.823 740.656 520.5 740.656C718.5 740.656 791.5 711.137 855.5 683.356C958.5 638.644 993.5 617.784 1146 683.356C1332.5 763.546 1419.57 634.6 1445 425.505Z" fill="#B7EE81"/>
<path d="M1445 425.505C1453 359.717 1485 234.505 1512.5 229.73L1460 833.503H-20V571.939C63.6667 631.184 293.823 740.656 520.5 740.656C718.5 740.656 791.5 711.137 855.5 683.356C958.5 638.644 993.5 617.784 1146 683.356C1332.5 763.546 1419.57 634.6 1445 425.505Z" fill="white" fill-opacity="0.65"/>
</g>
<g opacity="0.6" clip-path="url(#clip1_1_2509)">
<path fill-rule="evenodd" clip-rule="evenodd" d="M60.3957 215.096L46.346 131.353C44.4688 131.458 42.5616 130.749 41.1957 129.252C38.7857 126.61 38.9734 122.515 41.6151 120.105C44.2567 117.695 48.3519 117.883 50.7619 120.524C52.3829 122.301 52.8287 124.736 52.143 126.872L131.15 162.08C131.499 161.365 131.985 160.702 132.609 160.133C135.251 157.723 139.346 157.911 141.756 160.552C144.166 163.194 143.978 167.289 141.336 169.699C138.791 172.021 134.896 171.932 132.459 169.558L67.6563 217.949C69.2515 220.544 68.8327 223.988 66.4993 226.117C63.8576 228.527 59.7624 228.339 57.3524 225.698C54.9424 223.056 55.1301 218.961 57.7718 216.551C58.5475 215.843 59.4487 215.359 60.3957 215.096ZM50.3426 129.671C50.5319 129.499 50.7086 129.317 50.8727 129.128L90.3516 157.383C89.0417 159.747 89.3113 162.779 91.2335 164.886C91.652 165.344 92.1214 165.729 92.6252 166.039L64.7075 215.39C63.7389 214.972 62.6861 214.799 61.6463 214.877L47.6006 131.158C48.5907 130.903 49.5346 130.408 50.3426 129.671ZM93.7692 166.595L65.8175 216.006C66.2002 216.271 66.5599 216.582 66.8888 216.938L131.638 168.587C130.951 167.59 130.576 166.449 130.509 165.297L102.282 162.157C101.977 163.329 101.341 164.428 100.38 165.305C98.5302 166.993 95.967 167.407 93.7692 166.595ZM102.48 160.902L130.56 164.025C130.595 163.772 130.644 163.521 130.709 163.273L51.638 128.037C51.6277 128.056 51.6173 128.074 51.6069 128.093L91.0737 156.339C91.2515 156.129 91.4445 155.929 91.6529 155.739C94.2945 153.329 98.3897 153.517 100.8 156.158C102.025 157.501 102.579 159.22 102.48 160.902Z" fill="#B7EE81"/>
<path fill-rule="evenodd" clip-rule="evenodd" d="M60.3957 215.096L46.346 131.353C44.4688 131.458 42.5616 130.749 41.1957 129.252C38.7857 126.61 38.9734 122.515 41.6151 120.105C44.2567 117.695 48.3519 117.883 50.7619 120.524C52.3829 122.301 52.8287 124.736 52.143 126.872L131.15 162.08C131.499 161.365 131.985 160.702 132.609 160.133C135.251 157.723 139.346 157.911 141.756 160.552C144.166 163.194 143.978 167.289 141.336 169.699C138.791 172.021 134.896 171.932 132.459 169.558L67.6563 217.949C69.2515 220.544 68.8327 223.988 66.4993 226.117C63.8576 228.527 59.7624 228.339 57.3524 225.698C54.9424 223.056 55.1301 218.961 57.7718 216.551C58.5475 215.843 59.4487 215.359 60.3957 215.096ZM50.3426 129.671C50.5319 129.499 50.7086 129.317 50.8727 129.128L90.3516 157.383C89.0417 159.747 89.3113 162.779 91.2335 164.886C91.652 165.344 92.1214 165.729 92.6252 166.039L64.7075 215.39C63.7389 214.972 62.6861 214.799 61.6463 214.877L47.6006 131.158C48.5907 130.903 49.5346 130.408 50.3426 129.671ZM93.7692 166.595L65.8175 216.006C66.2002 216.271 66.5599 216.582 66.8888 216.938L131.638 168.587C130.951 167.59 130.576 166.449 130.509 165.297L102.282 162.157C101.977 163.329 101.341 164.428 100.38 165.305C98.5302 166.993 95.967 167.407 93.7692 166.595ZM102.48 160.902L130.56 164.025C130.595 163.772 130.644 163.521 130.709 163.273L51.638 128.037C51.6277 128.056 51.6173 128.074 51.6069 128.093L91.0737 156.339C91.2515 156.129 91.4445 155.929 91.6529 155.739C94.2945 153.329 98.3897 153.517 100.8 156.158C102.025 157.501 102.579 159.22 102.48 160.902Z" fill="white" fill-opacity="0.65"/>
</g>
<g opacity="0.8">
<path fill-rule="evenodd" clip-rule="evenodd" d="M355.274 435.571L387.537 460.47C388.163 459.82 389.066 459.448 390.035 459.529C391.745 459.673 393.015 461.176 392.871 462.886C392.727 464.597 391.224 465.866 389.514 465.722C388.364 465.626 387.413 464.914 386.957 463.938L347.658 477.315C347.769 477.681 347.814 478.073 347.78 478.476C347.636 480.187 346.133 481.456 344.423 481.312C342.713 481.169 341.443 479.666 341.587 477.955C341.726 476.308 343.126 475.069 344.758 475.109L351.787 436.935C350.379 436.542 349.403 435.193 349.53 433.682C349.674 431.972 351.177 430.702 352.887 430.846C354.597 430.99 355.867 432.493 355.723 434.203C355.681 434.705 355.521 435.169 355.274 435.571ZM386.678 462.365C386.668 462.488 386.665 462.61 386.669 462.73L363.553 465.66C363.244 464.401 362.16 463.421 360.796 463.307C360.499 463.282 360.208 463.299 359.929 463.355L353.66 436.874C354.137 436.705 354.564 436.423 354.905 436.056L387.159 460.948C386.893 461.361 386.722 461.842 386.678 462.365ZM359.345 463.532L353.068 437.019C352.847 437.051 352.619 437.059 352.387 437.041L345.364 475.184C345.931 475.31 346.435 475.59 346.835 475.974L357.796 467.871C357.521 467.359 357.386 466.765 357.439 466.143C357.54 464.945 358.307 463.963 359.345 463.532ZM358.136 468.378L347.232 476.438C347.302 476.538 347.366 476.643 347.424 476.751L386.755 463.363C386.753 463.353 386.75 463.344 386.748 463.334L363.64 466.263C363.646 466.395 363.643 466.529 363.632 466.664C363.488 468.374 361.985 469.644 360.275 469.5C359.405 469.427 358.65 469.002 358.136 468.378Z" fill="#B7EE81"/>
<path fill-rule="evenodd" clip-rule="evenodd" d="M355.274 435.571L387.537 460.47C388.163 459.82 389.066 459.448 390.035 459.529C391.745 459.673 393.015 461.176 392.871 462.886C392.727 464.597 391.224 465.866 389.514 465.722C388.364 465.626 387.413 464.914 386.957 463.938L347.658 477.315C347.769 477.681 347.814 478.073 347.78 478.476C347.636 480.187 346.133 481.456 344.423 481.312C342.713 481.169 341.443 479.666 341.587 477.955C341.726 476.308 343.126 475.069 344.758 475.109L351.787 436.935C350.379 436.542 349.403 435.193 349.53 433.682C349.674 431.972 351.177 430.702 352.887 430.846C354.597 430.99 355.867 432.493 355.723 434.203C355.681 434.705 355.521 435.169 355.274 435.571ZM386.678 462.365C386.668 462.488 386.665 462.61 386.669 462.73L363.553 465.66C363.244 464.401 362.16 463.421 360.796 463.307C360.499 463.282 360.208 463.299 359.929 463.355L353.66 436.874C354.137 436.705 354.564 436.423 354.905 436.056L387.159 460.948C386.893 461.361 386.722 461.842 386.678 462.365ZM359.345 463.532L353.068 437.019C352.847 437.051 352.619 437.059 352.387 437.041L345.364 475.184C345.931 475.31 346.435 475.59 346.835 475.974L357.796 467.871C357.521 467.359 357.386 466.765 357.439 466.143C357.54 464.945 358.307 463.963 359.345 463.532ZM358.136 468.378L347.232 476.438C347.302 476.538 347.366 476.643 347.424 476.751L386.755 463.363C386.753 463.353 386.75 463.344 386.748 463.334L363.64 466.263C363.646 466.395 363.643 466.529 363.632 466.664C363.488 468.374 361.985 469.644 360.275 469.5C359.405 469.427 358.65 469.002 358.136 468.378Z" fill="white" fill-opacity="0.65"/>
</g>
</g>
<defs>
<filter id="filter0_i_1_2509" x="605.814" y="139.871" width="43.0813" height="50.9143" filterUnits="userSpaceOnUse" color-interpolation-filters="sRGB">
<feFlood flood-opacity="0" result="BackgroundImageFix"/>
<feBlend mode="normal" in="SourceGraphic" in2="BackgroundImageFix" result="shape"/>
<feColorMatrix in="SourceAlpha" type="matrix" values="0 0 0 0 0 0 0 0 0 0 0 0 0 0 0 0 0 0 127 0" result="hardAlpha"/>
<feOffset dy="-1"/>
<feComposite in2="hardAlpha" operator="arithmetic" k2="-1" k3="1"/>
<feColorMatrix type="matrix" values="0 0 0 0 0 0 0 0 0 0 0 0 0 0 0 0 0 0 0.12 0"/>
<feBlend mode="normal" in2="shape" result="effect1_innerShadow_1_2509"/>
</filter>
<filter id="filter1_i_1_2509" x="668.043" y="139.871" width="43.0813" height="50.9143" filterUnits="userSpaceOnUse" color-interpolation-filters="sRGB">
<feFlood flood-opacity="0" result="BackgroundImageFix"/>
<feBlend mode="normal" in="SourceGraphic" in2="BackgroundImageFix" result="shape"/>
<feColorMatrix in="SourceAlpha" type="matrix" values="0 0 0 0 0 0 0 0 0 0 0 0 0 0 0 0 0 0 127 0" result="hardAlpha"/>
<feOffset dy="-1"/>
<feComposite in2="hardAlpha" operator="arithmetic" k2="-1" k3="1"/>
<feColorMatrix type="matrix" values="0 0 0 0 0 0 0 0 0 0 0 0 0 0 0 0 0 0 0.12 0"/>
<feBlend mode="normal" in2="shape" result="effect1_innerShadow_1_2509"/>
</filter>
<filter id="filter2_i_1_2509" x="730.272" y="139.871" width="43.0813" height="50.9143" filterUnits="userSpaceOnUse" color-interpolation-filters="sRGB">
<feFlood flood-opacity="0" result="BackgroundImageFix"/>
<feBlend mode="normal" in="SourceGraphic" in2="BackgroundImageFix" result="shape"/>
<feColorMatrix in="SourceAlpha" type="matrix" values="0 0 0 0 0 0 0 0 0 0 0 0 0 0 0 0 0 0 127 0" result="hardAlpha"/>
<feOffset dy="-1"/>
<feComposite in2="hardAlpha" operator="arithmetic" k2="-1" k3="1"/>
<feColorMatrix type="matrix" values="0 0 0 0 0 0 0 0 0 0 0 0 0 0 0 0 0 0 0.12 0"/>
<feBlend mode="normal" in2="shape" result="effect1_innerShadow_1_2509"/>
</filter>
<filter id="filter3_ddddd_1_2509" x="363.605" y="243.485" width="265.769" height="231.706" filterUnits="userSpaceOnUse" color-interpolation-filters="sRGB">
<feFlood flood-opacity="0" result="BackgroundImageFix"/>
<feColorMatrix in="SourceAlpha" type="matrix" values="0 0 0 0 0 0 0 0 0 0 0 0 0 0 0 0 0 0 127 0" result="hardAlpha"/>
<feOffset dy="6"/>
<feGaussianBlur stdDeviation="4"/>
<feColorMatrix type="matrix" values="0 0 0 0 0.705882 0 0 0 0 0.831373 0 0 0 0 0.921569 0 0 0 0.12 0"/>
<feBlend mode="normal" in2="BackgroundImageFix" result="effect1_dropShadow_1_2509"/>
<feColorMatrix in="SourceAlpha" type="matrix" values="0 0 0 0 0 0 0 0 0 0 0 0 0 0 0 0 0 0 127 0" result="hardAlpha"/>
<feOffset dy="8"/>
<feGaussianBlur stdDeviation="12"/>
<feColorMatrix type="matrix" values="0 0 0 0 0.705882 0 0 0 0 0.831373 0 0 0 0 0.921569 0 0 0 0.08 0"/>
<feBlend mode="normal" in2="effect1_dropShadow_1_2509" result="effect2_dropShadow_1_2509"/>
<feColorMatrix in="SourceAlpha" type="matrix" values="0 0 0 0 0 0 0 0 0 0 0 0 0 0 0 0 0 0 127 0" result="hardAlpha"/>
<feOffset dy="16"/>
<feGaussianBlur stdDeviation="18"/>
<feColorMatrix type="matrix" values="0 0 0 0 0.705882 0 0 0 0 0.831373 0 0 0 0 0.921569 0 0 0 0.04 0"/>
<feBlend mode="normal" in2="effect2_dropShadow_1_2509" result="effect3_dropShadow_1_2509"/>
<feColorMatrix in="SourceAlpha" type="matrix" values="0 0 0 0 0 0 0 0 0 0 0 0 0 0 0 0 0 0 127 0" result="hardAlpha"/>
<feOffset dy="40"/>
<feGaussianBlur stdDeviation="35"/>
<feColorMatrix type="matrix" values="0 0 0 0 0.705882 0 0 0 0 0.831373 0 0 0 0 0.921569 0 0 0 0.04 0"/>
<feBlend mode="normal" in2="effect3_dropShadow_1_2509" result="effect4_dropShadow_1_2509"/>
<feColorMatrix in="SourceAlpha" type="matrix" values="0 0 0 0 0 0 0 0 0 0 0 0 0 0 0 0 0 0 127 0" result="hardAlpha"/>
<feOffset dy="2"/>
<feGaussianBlur stdDeviation="2"/>
<feColorMatrix type="matrix" values="0 0 0 0 0.87451 0 0 0 0 0.929412 0 0 0 0 0.964706 0 0 0 0.4 0"/>
<feBlend mode="normal" in2="effect4_dropShadow_1_2509" result="effect5_dropShadow_1_2509"/>
<feBlend mode="normal" in="SourceGraphic" in2="effect5_dropShadow_1_2509" result="shape"/>
</filter>
<filter id="filter4_ddddd_1_2509" x="727.995" y="64.093" width="256.536" height="218.009" filterUnits="userSpaceOnUse" color-interpolation-filters="sRGB">
<feFlood flood-opacity="0" result="BackgroundImageFix"/>
<feColorMatrix in="SourceAlpha" type="matrix" values="0 0 0 0 0 0 0 0 0 0 0 0 0 0 0 0 0 0 127 0" result="hardAlpha"/>
<feOffset dy="6"/>
<feGaussianBlur stdDeviation="4"/>
<feColorMatrix type="matrix" values="0 0 0 0 0.705882 0 0 0 0 0.831373 0 0 0 0 0.921569 0 0 0 0.12 0"/>
<feBlend mode="normal" in2="BackgroundImageFix" result="effect1_dropShadow_1_2509"/>
<feColorMatrix in="SourceAlpha" type="matrix" values="0 0 0 0 0 0 0 0 0 0 0 0 0 0 0 0 0 0 127 0" result="hardAlpha"/>
<feOffset dy="8"/>
<feGaussianBlur stdDeviation="12"/>
<feColorMatrix type="matrix" values="0 0 0 0 0.705882 0 0 0 0 0.831373 0 0 0 0 0.921569 0 0 0 0.08 0"/>
<feBlend mode="normal" in2="effect1_dropShadow_1_2509" result="effect2_dropShadow_1_2509"/>
<feColorMatrix in="SourceAlpha" type="matrix" values="0 0 0 0 0 0 0 0 0 0 0 0 0 0 0 0 0 0 127 0" result="hardAlpha"/>
<feOffset dy="16"/>
<feGaussianBlur stdDeviation="18"/>
<feColorMatrix type="matrix" values="0 0 0 0 0.705882 0 0 0 0 0.831373 0 0 0 0 0.921569 0 0 0 0.04 0"/>
<feBlend mode="normal" in2="effect2_dropShadow_1_2509" result="effect3_dropShadow_1_2509"/>
<feColorMatrix in="SourceAlpha" type="matrix" values="0 0 0 0 0 0 0 0 0 0 0 0 0 0 0 0 0 0 127 0" result="hardAlpha"/>
<feOffset dy="40"/>
<feGaussianBlur stdDeviation="35"/>
<feColorMatrix type="matrix" values="0 0 0 0 0.705882 0 0 0 0 0.831373 0 0 0 0 0.921569 0 0 0 0.04 0"/>
<feBlend mode="normal" in2="effect3_dropShadow_1_2509" result="effect4_dropShadow_1_2509"/>
<feColorMatrix in="SourceAlpha" type="matrix" values="0 0 0 0 0 0 0 0 0 0 0 0 0 0 0 0 0 0 127 0" result="hardAlpha"/>
<feOffset dy="2"/>
<feGaussianBlur stdDeviation="2"/>
<feColorMatrix type="matrix" values="0 0 0 0 0.87451 0 0 0 0 0.929412 0 0 0 0 0.964706 0 0 0 0.4 0"/>
<feBlend mode="normal" in2="effect4_dropShadow_1_2509" result="effect5_dropShadow_1_2509"/>
<feBlend mode="normal" in="SourceGraphic" in2="effect5_dropShadow_1_2509" result="shape"/>
</filter>
<filter id="filter5_dd_1_2509" x="-24" y="140.067" width="1540.5" height="701.436" filterUnits="userSpaceOnUse" color-interpolation-filters="sRGB">
<feFlood flood-opacity="0" result="BackgroundImageFix"/>
<feColorMatrix in="SourceAlpha" type="matrix" values="0 0 0 0 0 0 0 0 0 0 0 0 0 0 0 0 0 0 127 0" result="hardAlpha"/>
<feOffset dy="4"/>
<feGaussianBlur stdDeviation="2"/>
<feComposite in2="hardAlpha" operator="out"/>
<feColorMatrix type="matrix" values="0 0 0 0 0 0 0 0 0 0 0 0 0 0 0 0 0 0 0.25 0"/>
<feBlend mode="normal" in2="BackgroundImageFix" result="effect1_dropShadow_1_2509"/>
<feColorMatrix in="SourceAlpha" type="matrix" values="0 0 0 0 0 0 0 0 0 0 0 0 0 0 0 0 0 0 127 0" result="hardAlpha"/>
<feOffset dy="4"/>
<feGaussianBlur stdDeviation="2"/>
<feComposite in2="hardAlpha" operator="out"/>
<feColorMatrix type="matrix" values="0 0 0 0 0 0 0 0 0 0 0 0 0 0 0 0 0 0 0.25 0"/>
<feBlend mode="normal" in2="effect1_dropShadow_1_2509" result="effect2_dropShadow_1_2509"/>
<feBlend mode="normal" in="SourceGraphic" in2="effect2_dropShadow_1_2509" result="shape"/>
</filter>
<clipPath id="clip0_1_2509">
<rect width="1440" height="764" fill="white"/>
</clipPath>
<clipPath id="clip1_1_2509">
<rect width="130" height="130" fill="white" transform="translate(-20 158.617) rotate(-42.3748)"/>
</clipPath>
</defs>
</svg>
