<svg width="200" height="48" viewBox="0 0 200 48" fill="none" xmlns="http://www.w3.org/2000/svg">
<path d="M13.75 47.2265H21.3695V33.6484H30.1704C38.7941 33.6484 44.6712 28.1261 44.6712 19.928V19.8711C44.6712 11.6445 38.7941 6.15063 30.1704 6.15063H13.75V47.2265ZM28.2803 12.1569C33.7439 12.1569 36.9335 14.975 36.9335 19.8995V19.9565C36.9335 24.881 33.7439 27.7276 28.2803 27.7276H21.3695V12.1569H28.2803Z" fill="white"/>
<path d="M115.323 37.2913H122.676V18.8171C122.676 15.145 125.157 12.4692 128.701 12.4692C132.127 12.4692 134.253 14.5757 134.253 17.9631V37.2913H141.4V18.6463C141.4 15.0027 143.822 12.4692 147.366 12.4692C150.969 12.4692 152.977 14.6042 152.977 18.3332V37.2913H160.331V16.5683C160.331 10.5336 156.285 6.49146 150.113 6.49146C145.594 6.49146 141.873 8.82564 140.367 12.5831H140.19C139.038 8.71177 135.878 6.49146 131.507 6.49146C127.372 6.49146 124.153 8.65484 122.824 11.9569H122.676V7.1177H115.323V37.2913Z" fill="white"/>
<path d="M88.2406 48C94.7674 48 98.4296 45.6373 100.822 39.0048L112.074 7.80652H104.336L96.9824 31.9454H96.7757L89.4515 7.80652H81.4185L92.6706 38.0085L92.2276 39.2326C91.2825 41.766 89.7173 42.5346 86.9116 42.5346C85.878 42.5346 85.0215 42.3923 84.4604 42.2784V47.6869C85.3464 47.8292 86.823 48 88.2406 48Z" fill="white"/>
<path d="M4.2823 16.0331C6.67449 16.0331 8.53508 14.2113 8.53508 11.9056C8.53508 9.59985 6.67449 7.80652 4.2823 7.80652C1.89012 7.80652 0 9.59985 0 11.9056C0 14.2113 1.89012 16.0331 4.2823 16.0331ZM4.2823 36.9269C6.67449 36.9269 8.53508 35.1051 8.53508 32.7993C8.53508 30.5221 6.67449 28.7003 4.2823 28.7003C1.89012 28.7003 0 30.5221 0 32.7993C0 35.1051 1.89012 36.9269 4.2823 36.9269Z" fill="white"/>
<path d="M74.6644 32.3983C80.449 26.5016 80.4685 19.8796 77.9391 15.8962L77.7845 15.611L72.9188 20.571L73.0152 20.7545C73.916 22.6945 73.5277 25.7473 70.9382 28.387C67.5551 31.8356 63.253 31.7928 59.4968 28.1341L74.992 12.3386L73.4124 10.7283C67.0938 4.28731 58.962 4.00209 52.6344 10.4523C46.3068 16.9025 46.5787 25.4818 53.1737 32.2046L53.1934 32.2248C59.8477 39.008 68.0236 39.1678 74.6644 32.3983ZM56.5474 14.3134C59.304 11.5034 62.9674 11.1506 66.6606 14.149L56.2817 24.729C53.4808 21.0223 53.7909 17.1234 56.5474 14.3134Z" fill="white"/>
<path d="M189.997 32.3983C195.782 26.5016 195.801 19.8796 193.272 15.8962L193.117 15.611L188.251 20.571L188.348 20.7545C189.249 22.6945 188.86 25.7473 186.271 28.387C182.888 31.8356 178.586 31.7928 174.829 28.1341L190.325 12.3386L188.745 10.7284C182.426 4.28732 174.294 4.00209 167.967 10.4523C161.639 16.9025 161.911 25.4818 168.506 32.2046L168.526 32.2248C175.18 39.008 183.356 39.1678 189.997 32.3983ZM171.88 14.3134C174.637 11.5034 178.3 11.1506 181.993 14.1489L171.614 24.729C168.813 21.0223 169.123 17.1234 171.88 14.3134Z" fill="white"/>
</svg>
